<mxfile host="Electron" modified="2024-01-29T13:20:02.451Z" agent="Mozilla/5.0 (Windows NT 10.0; Win64; x64) AppleWebKit/537.36 (KHTML, like Gecko) draw.io/22.0.2 Chrome/114.0.5735.289 Electron/25.8.4 Safari/537.36" etag="99tERGbycR21967zmm2b" version="22.0.2" type="device">
  <diagram id="UHxsY-8TxW5ZOARY3Srl" name="Page-1">
    <mxGraphModel dx="1594" dy="932" grid="1" gridSize="10" guides="1" tooltips="1" connect="1" arrows="1" fold="1" page="1" pageScale="1" pageWidth="827" pageHeight="1169" math="0" shadow="0">
      <root>
        <mxCell id="0" />
        <mxCell id="1" parent="0" />
        <mxCell id="BpYFKoxMu2_yIMwH--3D-3" value="" style="group;labelBackgroundColor=none;fontStyle=0" parent="1" vertex="1" connectable="0">
          <mxGeometry x="160" y="360" width="1060" height="520" as="geometry" />
        </mxCell>
        <mxCell id="BpYFKoxMu2_yIMwH--3D-1" value="" style="shape=image;verticalLabelPosition=bottom;verticalAlign=top;imageAspect=0;image=data:image/png,iVBORw0KGgoAAAANSUhEUgAABDoAAAIbCAYAAAAKDf4QAAAAAXNSR0IArs4c6QAAAARnQU1BAACxjwv8YQUAAAAJcEhZcwAAEnQAABJ0Ad5mH3gAAP+lSURBVHhe7P0HnCTZcd+J/9KVr/Z2erp7vF2LXWAXAOEIJ4oACZACLWhAI3cn/k/SX6J095FEne6voyjHvwxJ4UjQgQRBK4IECAILDyzWm/GmvbfV5U26dxFZ1YvZwe5OV0+bqq747uZk5susrOrMZyIi40VoioAgCIIgCIIgCIIgCMIBQAwdgtAi7ERD12prQRAEQRCEveWVJJmtSDevJL2IRCMIBx0xdAhCkxA0VGqumw12s+Xy6qXt2sZmWbDmAr/6uWCbCY5V914qewVYDND435o8EOwH21RaK95cMxrt1A6/dKy6Wy2o7QqCIAiC0HIEwkd1vbkEcssrrOHfts2btK5uVJeXjvPySmwKIfq3toM1CyRUFggpte2Xymvrl8p585ayl84RBKHREUOHIDQQQWOkf4Jhm5rm5r5P28HiK3g0zvNQH6ypzKMN33ODY9yaPS6jbfq/uqZzfTrHo30+zvDa9flI9bteDZ0GdIPGeZ0GdRWM7RpMWvM+j/OGTsdpQ+dzaJv+pzIDumEEx7g8OE5LcJ3gnKoxhD8fLIHQUP2+2koQBEEQhKbkFkGDtzeNE7xWHgkkTm3t0pq2eW17UBVaXNr26Rho7fF5fA6X8Zqu4VdovXk9Oo8/H1yXv+uVqAkaeojWbLQgWYYlG92kMqt6nNaK9jWtVhYYQGg/Rvsho3YuLZpBCx+n9Uv71Wu+tA62aVX9RxCEfUYMHYLQAHAr3DRQeJ6C7foo2tWl5HioOD7KVMbltqvg0Dm8uJ4PzS0impuEv2m44GvRUM6GDY1bNwkBfIivz829aljQXzJ0vBY6nc/Gi8DIQf/pbK2gj/GYzuW8BOfxWmezCP2mSB/caB8MUw+MHCFaB4tR3Y5atIR4MYJ1hPYtui5fumo0qV1UEARBEITmgeQNxcYHr0Kygg24BaCyDthZKCcDOLR28yS3ULlXpu0SNL8C70IE3uNt8JeswNChNLcqr9D1tMCgQYIH/a94OzBykDyj0XcF0s4dZAaWhUhoIemiKhORnKHBYIGDrkkLCR+K5BdFZcF5igUcA+b3rsK4h35fyIIyItCMKJ0bpyUMWLS22oNFC9E61AmYMfpcKFi0wGBC3yEIwr4ihg5B2AXYm4KbFreuwOuCBmiXCh32rHBdGscdeHYF2bKHXMlF0fZQqHgol8skFKRgVrKBh8a3PDmq16lej8ft6jYv/FZDZ6GCR/MaQTH9Ux3++exgFayDMhrot9r0+fxbP7fJt7boaK08ODd4O8KD/Lc8NzY9QHhdNZCwQaO6VlYMfqQLZjiJWFhHPGQgHjHQFjURCYdgmCHopgWLhBL2EjFpvXkdviZ/C68FQRAEQdghAhmBrQubC3thVGjTIYGmDFVwoDZ8qDTJLeVlqPIqtMoGYG/AWyjDezEEdZmU/8Abgxc2WNy6sFHEpxGcZJSCDpU16LPVwbwmtQRbgXGitl8VW2rHglM3z3sN+JRNIWHzoy8TGugXBLvVsqrkQutu+jvj9PvoXFUzlFS9OOh4sOblW94e+ukytAcq0IdIZol0AuFuaOEeINIHdMagddI14vQZMwJND9c+d7tnCH939fsFQbh7xNAhCHcBtx42QLjsYeFXPSwqroLt+HAch2SBHFzHRpn22SuDvTPKtg1VycNw8sF5fD4bQNhDg40g8EowAsNFa+CzYcSI0JgfDowYbNAImVXvD82KkqCQgBWKBh4g7P0RtgwYkQSMUIy22VtEQ4TOZa8Q/rypVw0izMtkGUEQBEEQvp3AkMFTRBworxzIIXDztBQDrwy1ZsO/ppPskgvKVTkLf5nKJjWoORpoa+exl0bgqZH3oJZNqNVQ7QsOPmwY0fodIGlAMyOAQfILe4Gw98cQHT/uQe+3Ag8QzWoLvEOMcz60HrpHVqzqEWImap/jz/N0GzaE1IwggiDUjRg6BKFO2NOixEaL2rSSMq9tF065AN8uokLbFdeDXSnDL2XgOfZLhgybDSIuvw2pwGSBQHhNvMAIEoZphREydFgmG0Jo0A+3Qw8lEOIpMBZPf9FghuMwI3GEQyHE2ChSmx7DxhE2fIiYIAiCIAgMv6XxgqkkcDLVaSU2rfN5+DMOLXSszMfyweIvuXCfIwXcrhoy4JTgZ1yoFRqPN6zaNYVXpYPkvgEPejsbQWKBMQN6BPrryzAGzNpUmDhUJAlj2IA+Quclk8HUGGwaRkId9Bm+1yLNCMJWEUOHINwCNwZuEdwseIqIT4KA53lw3KpHRtnx4FbyyBcrwZSTfMVDkRY2dKCUgU5CAwcG9XwOEGpDuTY3surFhR3D18LB9BiOGVKd0kKF4SRUuB3hcBTxsIFEpLrEoyGEI3GEQrTmWCHsEWKat0x/qU59EdFBEARBOBgEggwtNU8NWlTJIzmlDGXngUIB/iyVpdaobBWorEFVUlDpPLwrJryrYWgVGyA5hr08/AKtVqLQ6XLCDjJIMmKM5A/dhDJMkmMsGKcrMM5ReUec9rughbuBSA9URx+Moxa0eBwae36E6INR2g+TALQ5lSaYXsMXFolGEBgxdAgtTxDzgpoBBwLlOBo8DcV1XVQ4CGi5hFKxgGy+hLWsg5VcBSo7Dd0pUuOREb8ZcI0wQu1DaG9vR08yhI5kDNFEx0vTYEzLhGnQOpjyQp2iGD4EQRCEZqMW96I6BcWGsm2gWAEqRcBOw5sqwp9eAdamoObn4PyFBn82BDgy2jU8BsmoPQ4iHypBP3wIWuIYtJ4h6CPt0IYi0MJxIE7rEMf+4ICotWCoMu1FaHHE0CG0NBxfg6egcCDQXNlFtkRrEgzs7AqKhQIK2XU4xTRpyyQ0vNRSpMk0J1XrhTKjQNsQOqPs7RFBpK0HsWRbEPy0jT1AwkYQ+0OmuwiCIAhNARs5OKNJZYOWVaC0BDWfgvuEDX8mA1VagPucD3XdgpbjN/+EvKtpPlgoCQQTkk+6fBjnAf3BJNDXBfMtJozhTiAyAIT7aN0NTaa7CC2OGDqEloIrO09BYaNGKu9gNeugmEvBK6zDKRcDo4dte9BcEhg8DsrFKc74LYk0kwMDv+HQSSBgQwatfSsOM8zBTk1YkTjQdhhtUQs9SQvdCSswgPCUF/byEARBEIT9h2QSt1g1ahRmoLJjQHEBzpdoTLtMxzYK8DNlOBMWjAyd7vPUFSqv0EDGKVWF5ocdNiK0jujwEh6sEyS7doahrCS0rgjM1+kw32BR2VGAPUBig4CZrMpAgtAiiKFDOJBwrQ6yofjVDCilSgX5QgnreRsbmQIquQ34lWwQVNRzKkFwUEWCAE9fqc5IcWVqSkvAaeNIWtCNquHDMElIiAcBT3lqSygSQSjegURbF/raw4jH44FBhDPCcGyQzRgfgiAIgrDjBFNRPBJoOFtbCSqVh1rbgMpMwR9bhH+hBH+CzuGgom4R/qIBtUFjku1BuT5U0YDmyhh10FGGD41T4ZJswjINx+3QehT0Hnr24SS0oxaMey3oJ3qgtZ+A1kfr7gQdi5PcEyZBhrO7cD2RuiIcLMTQIRwYOBsKp3hlj42i7aNcrqBcLCBfLCOTy6BSyCJXtFGkfVUpwFCl2icF4ZXhgKcc8CsUTSIZDSHS1oe2eBjJmIVYLIZINBZkdgmCnNLChg9BEARB2B4kkiuP/rcBNxfE1lDLBfjznPlkA+61NWCsDGSXoZay8KcU1CopqoLwGmg9NrQRD/pgDFrbAPSTMeinO6D19kAbTlI5Z32hfc7uwtN7g8CmItAIzY8YOoSmJvDa8KpxNvJlD6ViFvlCGdmSg2KxADu/gWKpFGxXA4h6tU8KwtbhTtJVGrRwF6LREGIRE5F4ErG2LiTDJqLJLiRiISTCRpDultPgclYXQRAEQbgj7LkRpG3NQpU5A8oavEsFqNQq/LEc/CulwNjhTWahzVs0IMn4ImwTU0EfqkA7EgX6O2Cci8A4GYcW6we6e2CcTkBLdAWGj6rRw6x9UBCaDzF0CE1DUFHpHzZu8BQTx/VQqrjIFivBdJTlrI1Keh52IYuK48JzqSN3S1zJg88Lwk5B1Q8wzCC2h2VaUB3H0Z6IopvjerRFaDuOWNgIsrkYBnt6aJLJRRAEQSBoAGG5hF+8uA5UuUJLFmptFWp+FsiMQRXnUflkHP6CA3/NAdY06GVROIWdxQ8p6N0u9C6SUaLxIIOL9QEDWt8I9MMjtB4Aop3QImHACpEQI5lchOZCDB1Cw8MVlKtpkP7V9VFyPKTzFaysZzC/lkMqtQ4rN0WVWWJqCPuPivUg0jOKkZ44ers60ZGMIBY2YZkGDI2EVU5hWztXEARBaBVqxg3PBccFQyUHf30e3sUZqMUX4XxuHfZfRmE4YtAQ9h/zb6ZhvisJbeReGOePQusfhhbpAKwoYNTS14o0IzQ4YugQGhqellJ2PGRKLtL5MrKZDHKZNNazBXj5Nfh2Eb7vQfNJcBCERkDTg6CmBi1avBedbUm0dbSjrb0DbckEOmIm4iH29NBERBAEQWgBlFepBgzltK+LS/Aur8OnRc1Nwf2aCbXmQ5U9Ok6jgpKRQdh/tKgfZHTRujWYb6hAO3oY+vk+GPd0QTs0AMQOV9PXcjBTkWaEBkUMHULDwRWSDRypgoOltI1seh3FDC3FPCqlHPxKGY7rkuDgUAWWmBtCo6JBGaHAk0MPRYPUtbFoDIlkG+Ldh9HXZgVTXTi7i8TzEARBOGAon+SUUjX9a+YqvG9k4V/MwpskOWaqAix4UOUS1IYBODIGCA2KpaC1u9CiEaghDdqRMIzhNpjn22G+PQm0nQISR6GZieBFjyA0EmLoEPYdroE8LcV2PRTLNtK5IpbTNvLrMyiUHNjlArxKEZ5rw/cdaL5MURGaC8WDv27C5LgeoTDMWAeSEQOxzn50dbShOxlBIhZBOGQGaW7F8CEIgtBk8IsXklFQLsJfz0CtzsGfn4T92Tz0wir8cQdq0YXKeFAFEnzKohQKzYWKUB2Pk4ySNKH303LKhBbug/43YtCHj1DZMPTuTiAaI5lnc3qLIOwfYugQ9gWudJwOllPBFmwfxWIRuXwe6XQG6Y0NrGYqULl56PCrqb0F4QDC8Tza2trQ3ZZAe0cn2tuTJB9wIFMz8PSwDF3qvyAIQqPCscF8TgWbh6psQM3l4E+vwL+wBu/GPPyFWTiPhaF7pPCJtC0cUIx3FqEfHoJ+egjGPX3Qj/RCG22DFuoErCSgcyBTEWaEvUcMHcKewpUtiLthe8iXHWQyGaRyDrKZdWTTGyjl00AlWz1ZEFoEzQjDinWgvbMT8fY+dCZDaG9LIBmPIR42EDLF4CEIgtAw1NLBKptkltQavPEVIDcN58kc1MVV+C9U4E+Lx4bQWmjDCvo9YRj3dcH8jjYgMQr9+AC0rh5o4Vo8D5neIuwhYugQdh2uYFzLlO/Ddv0gqOh8qoiFtRxKS1dglzw4dhEaHOiizAktixZMcdH0GMKcpaXrMLr7BjHSE0NvewSRYFoLGzyqqWoFQRCEPSTI7EbCjOtBlfJQq1NQyxfgPzcB+7cUlWXhLBrQcwY0VzppoTVRhg8/4cAaIqnGbIf1EQ36609CH7wPWvdwkMYWlqSpFfYGMXQIuwrXLsdTKNkeNjJZTM2vYWVxBnZ2BT4f9ElgCGqgVENBqEIDP//PRg9ajHAMse4RHB/tD9LVJmNhhC0q1yVriyAIwu5D8olyoZwiUErBuz4P7/Gvw/2jDPxLdNj1oWw+h7ZrthBBaGlYONG5IZAcw0lZTB36OQPmB7thvPURGOfY4NFB5VE6V9LUCruHGDqEXcH1q8aNdMHBWiaPjdVVpNeWUS5k4NrFIGOKIAhbQCMBwYogEosi0TmIts5edHd2oKs9iraIgbBMaxEEQdgFFJRbBCprUBuz8Men4X59Fd6XM1CTJMcs+lBF6XwFYStoMfqn34R2NAHrXR0wH+2DfnIYWvdhINQtaWqFXUEMHcKOwgFG0yUXy5kK1jcyyG+sIZfNwClswCmTYMBZU+R1hyDUT827w4okEEskkEy2Idneie6ubvS1hyRNrSAIwk6wmRY2OwH/0jS8F9bhja3Dn0tBXXbhLzhAUSeBR/pbQagLnq0SpdVhE/oZE8bZDhiPdkB/sA8ap6lNHoFmWHSStC1hZxBDh3BXcOVh4wbH3iiUbKxnS1hdWcR6poBCPg+3mIFnl6Eru/oBQRDuCo7joRskIIQiCEfbkGzrQGdfP/o6k+hIRBENmbDYTVTkBEEQhK0RZE+pBHE21PoS1PIE7C8sQr2wBnW9An/JhSq6QE7SZQrCjpBwofeQrHKWltMJaL0jMN91GNqho9C6uqBFYqSlSrYW4e4QQ4ewLbjWeL5C2fFRLFeQyeawupbBwvoGCqvTUBxcVDonQdgT/LbD6OvuQX9PJ7o629CWjCMe4mwtGnSJ5SEIgvDKKBdwiySzZKBW1+DfnIN3ZQz+pZuo/GkY2oZJgrL0oIKw22jtgPUhklkePAf97BHox/uh9XZVs7VwelpB2AZi6BDqxqcaU3Y8ZAtVD461VAqp5Tlk1tLQvByfUT1REIQ9w9eisOLtSHb3oqt3AAMdUXQmo0hErSA9rUxrEQRBqKE8wLOhCimoxVmojTF4T83D+WIK3uUCMM4BBQRB2Gv04y70ezpgvrsH5tuPQBs9Dy0xzEeqJwhCHYihQ6gLzwdKjofrC3nMzS+jkCLBIL8Ct1yAaYhLpyDsN8owoVlRRCJRxPuO4eTIAAa74kiEjcC7QxAEoaVhI4edhUqNwXv2K7B/LQ81n4O3rGgxYci7GkHYX0hU0U9UYP1ADNbPvA768HcDRrR6QBDqQAwdwh3hNLC2q5At2lhcz2NsMY3S4lX4dokOulDB4stUFUFoCKgdUlvUdI7lYcEMxdHZfxhDQ4MY6E6iLRaBaWgSw0MQhNZhMwZHbh3+9Bi8r1+D+2cL8MccqHXOruIBLp3nSscoCA1BSMG4PwbrIycR+qnvov1Okm3Eq0OoDzF0CK8KGziKth+kiOUMKqtry1hPpVDKZqHKGVKnfLGtCkKDQ6ICrEgMsbYOtHd1o7+7Gx3dPWiPWYhaOgyxeAiCcFBRHpRbAIrz8C8uw7swCe+pJXhP56GmK1AFUZwEoVHRT4UQ+olhhP637waiA6S1mrUjgrA1xNAhfBtcIxxPBSliV1MbSG1sILOxhmJmHY5dhuFJBhVBaDoMKzB4JBJJJDt70NbZi/7udnQnI4iGZNqZIAgHCBZk3DxUdgH+1DW4X1uH++wG1I0U1GQFalUMHILQ6OgnNIR+tAehf/h+IHmcCjj1rCBsHTF0CC/BWVRs10O+5GAtXcL80jJS66so5zfgVXIkNDjQdREOBKGp0XQYoTCsZD+6e7ox2NuF3q52JKNhhKxqHA/x8RAEoSlhDw67CGyswZ+cgX9hDN6LY3AeIxln2YNWoC7Qq50rCEJDo494sL4/gdA/fR+03vsAI1w7IghbQwwdQpBFxfF8FEs21jM5zK2kMT2/BpWegObzpFVBEA4inmEh0taL/sHDGO7vRm9HAtFoGJahi8FDEIQmgYQYjsHhlaA28vAXZuC/cBnu58fhfTEHf1GUI0FoRrRuF+bbowj/q3dDP/0IEOKApIKwdcTQ0eJwHI6S7WMlU8bi4iKWF+eQ3VgD7ELtDEEQDjqaFUakrQeD/f0YGBpGbwdnaTGDoKWCIAiNC4mwHBC9nIFaH4P7uWl4j1+G95UC/PGDPyWPBfhX6qVfrVwQmg39WBLh//gozHe/GVpcMq8I9SGGjhbG9hTWMmWMT88htTKPfHoNTqVEXQhVCakWgtA6BFlaDJimhUisDcm+YYwOH8Lh3rYgfoeIFYIgNB4kp9h5+Is34D/+JOzfSsMey0Ff9wB+VyMOqYLQ9OhHIgj929Ow3v9+aIkkldQhkbAuE5wuUkyrIoaOFoOfdtn1kc6Xsbi8hoXJaygUikGQUc+1JU2sILQy1PZ13YARiiIWS6CndxCDo6Po74gjGpLpLIIgNAAch8PJQi1Nwv38GNzPzEJd24A/68Ive9A4RWyTS7b886WvFQRAH9YR/pftMD/0s9DauqhhbD1WoCrOQc3OAtE49IFhwErS5yVzSyshho4WgR+y4ypkCmWsbmSxvLyK1Moi8huLdFCqgCAIt6EZCMXa0dY3hP7eLvT19qIzEUEsJClpBUHYB5RLgkyOlJcFuE/NwH96DO4XVuA9UwFytXOEV0QMJ0Kzoh/2EP6nFZg/+vPQOg8FssmWKc7B/fTn4K8XoZ84Dv3MKLT+YWhmnK4jyRVaATF0tACcTSVf8bCcsbG2soT11UXkUmtwiiwZSPhxQRBeGaWb0KwoYvEEOvsG0dfdhZ7OdnQkotUpLSI5C4KwFzgFqNQi/BuTcK5Pwf38KnApBTXnQ2XlDe1BRIwzAqN1uTA+mEfkF34e+uBIkCp/yzg5uJ/8Dbh/PQnl9sN4Sx/M9x2ma56DFu2la0XoJKllBxkxdBxg/Fq62GyhjNnVHKZXsyiuTsHPr0N5Tu0sQRCEO0GCQDiMWLIHPT39GBroRX9PB2KREEyeziJygiAIOw6Jp54NVczBn5iB98QVeF+9CfuZPPwZHXqF+h6RYAXhYGMq+EM+kp/6cRhnTtWXeUX58L74Udi/fAXuF8LQz3iwfhLQTz8M/fi90AYOQ4slqICNpSLIHETE0HEA4QfqegqliovVjRwmZxcwPTMPo7xGD1yicwmCcHfEOwdw6OhpHDvcj/aYhZBlSPwOQRB2CJJiOF2sU4JKL8C7fBGV374B+/fTMJyDKbLyXyX9pyC8ClED8c99B/SH3ggt2lUr3Bre43+Cyn98Ae6fVqoFOmC8rgjzu0Zgvud10M+fhpbsrnp3yHSWA4fxC0RtWzgg2K6PxYyNsfl1jI/fxOrUFRheEZqSaSqCINw9HLw4l81iPWej4hsIWRYsy5DYHYIg3CWk8vsOVGkVauIZuH/8OMq/eR3eV3PQ8wdXCZGec2uIQahFMTWEvl+HNnQUWritVrg11Foa/pMp+JfytQL6f8WE92QZankRWmIJWp8LWG3QTJnKctAQj44DhE9PMldycWM+heXFOWTXl2EXMoBblkwqgiDsINSf6DoMM4xQpA2d3Z04PDKKwb5utEUN6NLfCIJQL+zFUSGFZPwGnD++Du/5efiXi/CXHaBIxz3pVwShJYkAsd+LwHjHh6F1nqSCrfcF3uWrKP/S1+H87k3ot2m8qpv6nBMWzEfaEH7fAIzXvwNachAwwrUzhGZHPDoOABxstFB2sbiWxY2xa1icnUYutQy3mKWDjhg5BEHYeZSC8ly4dhnlUiGIBVS0XZI/DIRCVuDdIX2PIAh3hL1N3QL82Ul4X38K7p88A+dP1uFfLUAtkyJSpn5EHcy+RDwUhN3gTvWq+eod/Vo9AuO+M9B6OwM5Y6to4H5kEmpmHli7LXBxhe7Euk/HKtTf5OBcSkPvqEBrM6BZIfpO/h5poc2MGDqaGPbFKbs+NrJFzC+tYHJ2FkuzE6jk0lAuNVTqykTPEARhd/Hhuw5KpRKKhQLKFRsO56k3LJi6Xo3dIf2QIAi3w0KMX4YqzELduAbnLy/B+eMb8L66Bn+KOo0yn1M99aAiXePdcyel/U7HDyJ3+nub737QL7ZjMN8xAn2kC9BDtfI7o+k8RWUG/vVFqMmXG0g0RfKJS9fOUj2Z9uBdT1EZLQkqSHjQQpGqd4cIMU2LGDqaFJ8EhHzZw0oqh9n5ecxOTyK1ugi/0gKSgSAIDQfHAPIqRRQKeeSKDsoO4EFHyDRgGrpMZxEE4VtQf6HKGajF63CffAHOX12E/ScL8L5JHUemjvSRQsvwagaLO40sjTLytKLBZcfgG9cBmO/thz7aQxuxavlWoL7Gn1yB9+wq1PhrxCqkB6SVFdRCGqq0DLi54Hu19hA0/r5AhpEn2GyIoaPJCF6AsJGjVMHUUhoTk9NYmp1EKbsWTFMRBEHYT3g6S6WYRXZtHamSD8PQEbZMmEY1dofYOwShheE4HJwydiMF//pVuF/4LCq/MgvnCyVgDtAlDofwKuxVzdgtg0Qj1+yGN8Lwj2t3Yb6rA8aRQSDUXi3fCtTnqJl1+C+swr9ZrP6xr0XOgDvlwLuSBtZWoXfloYU7aalNZREhpqmQYKRNBD8px/ORLTl48eoEVqavweY4HIIgCA2KaUYxOHoCx04cR39XEhFLFzlBEFoVJw+1OAHn0y/A+S834F23q+UiiQqC8Gro9P/RCiK/dB7mu94OJE9u3eDg2/CeeB6V33gclU/OwyjUkb2JvkLrMmH9dA+sn3kH9JFj0EJJKpQ0tM2CPKkmgQOObhQcXJvL4qmLY1iZvg6nXKgdFQRBaEw8r4ylxRlcuHYTF6bWsZaz4XpK9BpBaBmotfsuVHEO/tjn4Xzy03A+dgXehFM1cEhnIOwht1Y3qXpVGv4+0A/0XZIbKhkol3QfDmC8VTQd+hHAfKgCc6hUK9wi9L0q7VF/tUbLZ+Ff+CKQGyPBps7rCPuGTF1pAhxSChY3ChibXsTM1BjSy3PwKjlqfX7tDEEQhMbF91yUS0XkcvkgYKlrxhC2DFiGZGYRhAMNu407eWDteTj/8zlU/vga3L/egLpGGgRnUxGEPebWWnd7DWSFvxVrZcP/zfQDPeVBH03AODIMracP0G/LoPJa+Gn4M8vwnsgAK1vP2BLAlaLow10pwJvIQuVT0JIutM5uaHUERRX2BzF0NDC+z7E4bMysZDE5M4fluSkU0itQdoHaPLc8QRCEJkBxKloHTqWAUjEfBCx1XQ+macGyLIndIQgHDZ5r61fgr5Fy8bVLcH7zebh/MQfvqQLUDDX2sjgUC42HDEMNjKfBOBSFfv4Q9MN91WwoW4EfqluEmlyD+411YGl7+pPKkBwzZ0NN54HcBvQOWltJaGGrGrtDak9DIoaOBmQzFke6YGNufhHj0/NYXZyFk1uDplxRCARBaDq429KUD9+poJRNoVAswQUJB2YYhsHBSjXJzCIIBwGSU2Cn4S9PwXv8MuyPXYT7+ytQs1Se16BJwFGhCWH1WGru/qH5PAVFh/FgP7QjA9VMKFuCnppXgT+5Du+rS1BL1A9tA/5+raxBLXhQ81kgtwxVpLJuOhYJkUZt0YYYcBsNeSINhk89adnxsZop48bUEm5cv470wk34xRQd3Z4VUhAEodHIp1cxNTWJa+PTmF5KIZ2vBLGIBEFoYjhtbHYV3vULcD/7VVQ+/hTsT3NWOGnbwv6wUzXvoBs5mqKFunnAyQaGi7owQtDiUWjdOpR293+pP6nD/m0bzn99Cu5nvgF/5iopb6Sn1RM7RNgTxNDRQLAnR9l2MZ8q4rnxFYxfeZGUgTX4rqSNFQTh4FHJrWNl6gquXX4BlyYWkSk5cD1fTLqC0GwEU1U8KBL2vee/jMovfwXF/2sKzl/bMET2f0Wkn9sbdtNAcZCeYTMYcnynCGWnAQ5IWsfd14wI9OMmzL+RhxcinWoHjB0o+fBeKMH+xavwPveX8Geehips0M+S+ImNhExdaRA4y2+m6GBiZh43r11CZv46NeiSNBhBEA4sQawh6uPccjEw6i7kDURMHWGLBBLTkGl6gtAMsJxSzMOfvAn/q59E8Ren4H3Zhp7SoTvSiF+N17ozrIbJnWt8Np/RQXhezfA3aJ0FGGc6oB8bhpbop4It/mI+z9+AWh2H/Skfurdz7/lVQYf3uA/vuQzg5aGNhKHF2ug7xZegEZCnsM9wx+K4CotpG9cm5zA5MY7c+nIwj12MHIIgHHiUoq7Og1spIj9/DdevXcL1qXmspItBxilBEBoY34ZKz8F96pso/7uvo/JvSdh/wYeWo2M8FV6acF1s3q5mV5pbjc3n1czVvRnqnLqZgH/FgFplT/c67rZmQAvFoUU7dt4A4dEv2VDwn8rC+f2rcD/5Ffp9z1L/J9kxGwExdOwj1akqHiZXi7g6MYuZyQlkUyvwXLt2hiAIQotAAoFfyWFjZQkzE+O4MTmP6bViELNIEIQGxCmQgH8Z3hNfrWZV+at5eJeovRZIZVKiqm8HuWvNjTy/3UXlLKj1MvUx9U1d4SejjBhUuIc2d+cpqbwH/8UcnD+cROUPvwF/9htAaQXwtxf8VNgZZOrKPsFB9/JlG3NL6xibmsHqwgzK2TUoz6Y2KF2lIAitie97sEtlFEoVlG0HOnxYoTBMQ5esLILQCPBbylIa3nPX4X7+Obj/8ybcx3LAKikezfxKWxBahM2RlJtrs42qxpkK9Nd1Qh89RT+e07puEeVCLeXg/P4UNHeXOip2xk+58Oez0FIbgbcHkpEgEKqkoN0fxNCxx3DTclwfmYKN+aV1XLtxAxnOqlLJU/X3xcghCIJAfaFHfWI5t4FcvgTfjCB0i7FDuklB2AeCgKMVqNIq/AtX4fzWs7TMwXvCBYrSKIWDxUGq0a/2tzTj36gfykM/3wn91FloRqhWemdYv1IbNrxPvQjkqWC3jLIcl2hRh/eNCvzVNegdCnpPGFqUU9Dy75W+ci+RqSt7DGcUWM1WcGNmBVeu30R6cRLKF9dsQRCE23GdCtJrC7h85QKuzqwGfWfF9QN9SxCEvURBOWX463Pwrn0JlV/9Epw/n4M/J1nh7hbpzvaXV7v/B+G5bP4NB6mO+Tc1+JcdqEqxVrJF9BDQEYPxHSUgsjd3xHssD+c3n4X72Feg1q6TUFPnbxbuGjF07DFLaRuXJ5cwPj6O8sYiDF0egSAIwqsRBCrNrmPy5mW8MLaE6fUyyq4YhwVhT/EqUBOTcH79yyj8gxdQ+fMi/LWDpD7tLbfeOXm/u7/Uc//lWe0//mwU/oQJVNgtow40HXpHGNZbLGjhWtkeYH+zhMrvXob7mb+GWnmaGr/E7NhLRMveA4Kgo46P8YUULr3wJFbHnoOfW4Ly5E2IIAjCHVE+VH4d6cnncePS87g+OY9syaW+VRQtQdhVlEcKxTq8Z74J+6Ofh/2r09BeJOGRdAxN7I3bRhTm5mRzxKn3+e3XSHUg65lPf1UlB5QWawVbhT5nRKB1HqEOzKyV7T5aSYP/lIHK/y+H0keegffVr0Nl16hSiMFjLxBDxy7DQUezxQrG51Ywdv0qUitLcMskIXicWUWEdEEQhC3hu9R35pBZncP05ASuTS5gMWPLVBZB2BU47bMDlRuH99TXYH/iGdh/vgA1VwnicYiRQ2hGNoeKux0yNj+/VUPCfhkcDuzQ6GSoH5qr7dQBx8hIHN1bQwdnoMrp8Cd9eN9YR+U/Pw33S0/AX54mXbBUO0vYLcTQsYuwkSNdsDE+v46JsTGsLc3Bc0hIEARBELaFZ5eRWV/C5AQbO5Yxv15C2fHE2CEIO4hybKjZm3D/7BlUfvsCnM8uQ01yCgFht9kvpbgV2Ly3O3WPedhp5KHnoNYl5eSrqVvr9YowLWj9PdCPOtBie9+fqZIH77EVOL97Ed7Xn4K/PElCjeiFu4kYOnYB7vQcTyGVq2Byfg3jE5PYWJ6Fa1fE1VoQBOEu8e0yCqlFzE6O4+b4FBbX0ihWHPjSvwrC3aE8qHIW/vQE7E8+gcp/uw7nT7NQE/xmUkTGvUB6seZit40JUh++HbWm4N1wasE9t36HNEuHNhiHcS99NrkPd9anX1vQ4H0uDef3LsL7ytPwl29W/w6RX3YFGbV2AcfzsZ6r4NrsGm6MT6C4Mk6yg0xVEQRB2Ak4vayhqE/NzWDp5jO4dmMMs8sbyJccuL70s4KwLZQLVdyAP34F7p89htL/eQPesyVoG6QcOCIuCsJ+cKsh5bVGt83zWmEE9K5HYH8mBmVv1Gcg0Kkvi8eh9SShhYxa4d6jcgru/3Th/OYFeF99DGqNjR0FOiBzAncaGbl2gdWsg0uTK5iZvAF7Y6a+RigIgiDUxfrcBK5ev4nrs+tIF0lZq5ULglAH5TWoa0/B/fhjsP/9DIyiD00akyBsCc3cfcX51bxHuJluNtXd9jBpCBT1TW4pCJQcuElsGZ2eUxwq3APF6Wb3GfsbPsofnYT3xU9BbVwAvDKVSqe7k4ihYwfhN4mLG2Vcu3QBqxMvws0sQ/NkTqsgCMJu4nsOsusLGJuYwKWJVWwUHLEvC0IdqOIy/MtfgP1H30Dlk1moFKlL0oYEYcuofZD3N40atxs3ttt06/ncfnYPmu9Cs/NAJUU/pI5fopHay5lXIl20adUK9w+9bMJ/wUDxP6RR/l8fh3f9Yv1pc4XXRAwdOwC3sWLFxdxyCpcuvYDVpRk4xQxHzeOj1ZMEQRCEXUJBOWXYG/NYmbyAyxeex1Iqi4oEKRWE14Aah1uBPzsO+79+A+VfmIL7hxVgjsrlHU1DIN3X3rAj93kfHtar+TJs16ujns9t9zt2AkUdlPKLgL1ON4EDkm715tOvNixo3VH4SfqUuc9TRXwNWsaAuqbB/WIKlX/zNNyvX4TKcPpZ6YR3AjF03CUsRBcqDhZWUpgYG8fK/DTsUoEaoFRQQRCEvULjua1OCeXMChZmp3Hz+hjmVjaC/lmCQAvCbXCbKOfhT1+F83tPwfnENRK0c/AnSSx09lOFEW5FnsTe0Kz3uVXrh6I+yk/78GeKgbF2y280+IYZBoxzJowR2o01gGzAxo6SDpVy4X52Ac7HX4D3jRdpf1GMHTuAGDruAm4eBdvDAgnTk1OTWJqfpvZWFqFaEARhn+D+t1IuYW5mAmMTk5in/jlf8fbjZZsgNCZsFLTT8Gc5o8rTcH73OvzrWaC0z283BUGoi5Yd1yo61KIB77IbpMJ+dd+W29FI8zWgHwvDGDShRRtIDeaHmXHh/tUs7E+8CPeJS1DFldoBYbuIoWObBC9D2MixmsHk1DSW5yfhVDjNkSAIgrCfsLHDqRSwNDeOm5MzmF1Jo1B2Jf2sIPAbwnI68ORwP/c4Kv9jAv51kl3KYuQQhGajVT06NJf+8rRG/ZgNOOWqUrZVOE6H1UFLPDB6NBpq2YPz6RXYn7gE74UXoQppQGYJbBsxdGwDbk8Vz8P0cho3r13D6uwEvEqldlQQBEFoCOwK1mZv4Nq167gxx9NYxLNDaGWo9ttZ+BPPwvn9r6Lyi9PAOAnQIkM3PNJvCcJtcGyOSgbK4bSs9XRiGhDqgorEgD3IlLMdtA0f3qdWUfk3z8J/8WuBcboai0SoFzF01Elg5HA83JxPY+zaVaTX5uHx/DBBEASh4dA8F/n1RUyM38SlqRTy4tkhtCo8XeXml+F84kk4n1wPXL+F5mDzzb30XK3H7V4bUgdqsHHDzQFOpj5Dh0Z31IrDuNeDOuzA1xv0juYVvGdyKP27F+E98UWonAQo3Q5i6KgDlo35jeDNxRwmrlxFZm0Jni05jwVBEBoXzshSQmljAXNT1/DcZAbreSdIBy4ILYFygfIK1Nxn4PDc7z/PwJ+icpGZm47blV6h+bnTM719pJI6UIP7NTsNVDbq9nbQzDiMe0gJPkyfMxp02h4/eA64+o0CKv/hKvxnvw6Vm6dymWZYD2Lo2CIsE2dLNqYWVzExdgXZ1AJcuwglFU4QBKGxoX7ap/66mFrC3PhlXJtZw0qmDNuV/ls44Lg21NoCvCe/iPJHL8P5VBb+GAk0ZVGXBGG3qMd4cbshQ9giWR3esxF4N0tQZTZ0bPVO0tMxItC626DFQ7WyBoWN0Skf3jfysH/tCrwvPQe1PkNKqVM9LtwRMXRsAW46+ZKD+eUUpqcmkV6ehu+WakcEQRCEhodd8pwS7NQMpienMDG9gNVUDhVHjB3CQYTqu1eGP78A5zMXYH/0ApxPlODf0EkpENFPEDbZSUl+08Bxp2uKmfHuUSUD/s0o1EweqLj1PUjNghbuBsxE4z8M+rtUFnD/Kgv7k1fhPn4Ban2BCkV22Qoy2t0BbjelILvKBqanp7GxPEPCMqcyEgRBEJoNXXkopeYwO3EDUzOzWEvn4Hg7KeoKQgPgVeAvzsP90gXYv3YBzu+TIjBjAbaIfUJ9OuFBZzt67q2fufVettp93XcbASv75RXq71gvq+Puc5yOcA80K0k7zdEnqrwO9wvpqrHjyQtQxVUurR4UXhUZ8V4Drj6O62N2NY/JiSmsz0+T7MAxOQRBEIRmJaRKsHMrmJsew8TkFNayJXgSs0M4KPhu8MbP/dwLsD/2Ipwn12sHhIPApnLJPdZ2e619V1CbkFvv9a3bB/Ve8t91+992e33bbv3bMdjQkVsKDLt1E+6FbrVD15ooKPOKgvvpFCq/eQn+tacA1knFs+M1EUPHq8Bezq7rY2o5jRvXLmJ9aQqeK0YOQRCEg0KlkMX89DiuXrmKlY0iPPHsEJoeBbWxAPv3n4H9K1fgfzMPQ0l2lWbjVmPG7WyWvZIiKuwerXCvb61vvH17/Wu4e0B6mn99FSpfv8KvRfugWe30NzXXk9WyCv5jaZR//gV4F74GFNN1/+2thBg6XgXb9TC7ksHEjcvIrS3CcyS7iiAIwkFCKQW7XMDq4gyuXr2KhVQBZceTnl5oQqjWemWo7HU4v/0VuL9/A/6VAikCUpubkc2nJoaMvYHv851ayk63pO1cr976UO93NFt9UxUNzme64M8VoJw6vTr0CPSTOi1Nln6KH2pewX++CPv/fhHuE89Sv79GhWLseCXE0PEKcHC65fUcxq5fx8bKEtzANWinuzhBEARhv1G+j0opj5XFGdwYG8NyKoeyLQKD0GR4JajVKbh/8BQqfzQO72oOKEk9Fuqj1Qwrm38vS/h3+tt3+t682vVeSdvYLKtXEznwz9PXoNYtqNw64BRrhVtE06GfCkE/bdUKmgjq2lXGh/uVFOxfuwjv+ZtQpUztoHArYui4Be5AyraL5bUUJifHsbY0A6dCwoO4BAmCIBxYNo0dy/OT1PdP0RiwgVLFrVuoFIR9wS7Cn5qF8z+fg/2bE/AvFqEKIrcIwp1oxD7+lYwTB95gcbcU5wE3V9vZOlpvB7S+ztpek+EpqJQH97FVOL9/Ef6z12gsSLFAUztBYMTQcQu262NlI4ep6VksTI/DsdnIIaKuIAjCgYf6eqeQxeLMBI0B01hOZST1rNDgkHziFuHPzsD9qxdh//o1eE8VoRVIgFeiGgn1IxKv0Iyo+RWoLHV89cIpZsO9tZ0mJe3B/cspOJ97Bv78ZcCp3+BzkBFDRw2fhNxUzsbU/CrmFhZhV0q1I4IgCEKrYJdyWJydwuTUDFbTBbiSjUVoVLwK1Mo03Meehf3b/EavLNO0BUFoObynXKh5l7bqHK8j7dDa2oBoc3ecXsaB+/QYvK99E2r9Ot2GbdyLA4oYOmoUbR/X5tKYnl+GXUjXSgVBEIRWg40dS7OTuHFjDGs5W0I0CQ2IgirMwvnLZ1D5rWtwnqtzfrogNCHSFQuvhPdiCP6CQxv1ZcfUOkzo530YDzR3/6kXDbhfN1H+vXl43/w8VHmNGotYvZmWN3SwJ0eu7OLF8RWsTl+Bn5mD5rMlTBAEQWhVnHIBa4tTuHL5EpZSeTiuCA1Cg0ACrErNwf71p+H8xhTUizYMX1LICgeP2w0bMiFLeEW8CmBvAG5901e0sAm9qy2I1dHssLFDfSOEyi/l4X7u96EyM6Tk1pmJ5gDS0oYONnLkSw5uzq5gafo6KtlVaiw2HRGbsSAIQivDQagrpQJWF6Zx/dp1LKVyErND2GdINuHpKhvTcH7ncbh/MAn/Mgn2JZFZhMZjJ2qlGDaEreCR7qbsNFSdhg7oJhCKA+FkraCJYfGkoMG/4sL+lSW4X3wK/up81QjUwrS0oYOj6s8tpzE9PobSxjJ8VyxfgiAIQhXle6gUC1ian8Lk5CRWN7JB0GpB2Be8MvzlWTh/8Rwqn7wG52oGXsmFr6vbFqq7oiEKe8grGTWkCgp7hYYy4KQBN18r2SKaCVgxWhIHJryRKmjwvunD+Z3r8J+4DJXiaSytaww3foGobbcM/LjLjo+l9QzGxsaxsTgDJZ4cgiAIwreh4Lk2yiUSpDQDoVAE4bAFQ5cQV8JeQvKJVyShdQnexRn4pQr0URP6KVpOorYo6Cd8aIe5qoZIhqclZgQLohq0OC20RpSuRYu2uYTpMxFaR3hN4j4H5ot4UCaVuXS+WE2EOyA1RNhXEg6M10dgnB6ifm6AKuQWx2euuIU0/PlZeJfWoZUPwLjOqqyjQc1VgGIRWlcMWn8b9e1h+ntbr6VqqgXzp1ZcHwupEsYmprBw4zmqFPKGThAEQXhtYokODI0cwdGjo+jtaoepi3gv7CFeiQSYFFR5BSqYj14MyjR+i+nSMY6079vwV2n3q23wp0NU5tE5XvAyR9P4eHVb+Q7teywE0sl0DstBHPuDynyNtj3a5iyFk3GgzPWczgvExVdaswzFa1rxZ6lc2aQwlA2A14IgCLuI3+ki/FN9CP34m2CcfwNgRGpH7gD3XdkbcL/+RZT/xXX4F6nPZOPuAcL6gRFYf+91MN98nnbaqKS15JaWM3RwXI7FdAVXJ5cwMzEOlZ2BachALAiCINyZSDyBoeGjOHv2HLqSkVZ8QSI0MhxMXTmBIQO1RaNF+WUEGQm4jOds+xUqs6vnB+fwNpXzMTaEuDb8DRfekwmSk6iSKzru0Wfp2tXr8nn0WSoLDCe06Hwtg7/DgzsXgnetDdpcnH7UpphZW78kdvK6ts3Khc/fU90VBEGoB/NdPQj9/Ydhvu/hmkK/BbgvKs7CffxxlP7356BeoDLqxg4UvTqsHzuEyD95PbTeh6iPDtUOtAYtZ+jIllxcHF/AzOQY7PQiDawHrUYLgiAIu4WmaYjGkzg0fBT33HMPklEDulg7hIaCxLqXGRN4xetblqD41v1Nrw5e0+LTtu9Vg/Z7t5ZvrumAcgMjChs+Ng0risq1IGCqC39ZQaXZyYONIQW6TglwCtWAgcF2CZrDbiMO7K90wr2YgJ8x6LrcnmpZZHiTvy+YQc+GED04btBPllYnCMImxjuSsP7eg7C+51Fo4Z5a6RYoLcN98hlU/tk34D1LOuEBUwv9sAf9EQPhj4zA+sB7oLcfp86zdbJ0tYyhg/9KnrJy8eYsZqbGUdhYocGWR3BBEARB2DqaYSKc6ELfsQdxbrQTXYkQLEPULqGZqYmCLxlEGFoHm7Wyl22z4eGW7drnOFuRRovioL0OFbl8nJeagUS5tLtpLOFzSavwHXgcL2+DjlXYc4RkM/YwYQ+UYCnRddg4QkvOgfP1GNRSCKBTtNq1+HsDT5Ngm6fkbH4fLa4Nd12DtmFCc6SdCsJBxHirjtDfuQfm974NWny4VroF7DTcpy+h8k++BO9pngbIfdnBQWkKWhvdn/tisD58DNYP/g1oye5qxpkWoCUMHT79hWXbxeziKq5fu4ZMapnGQzFyCIIgCNtBgzJDMNuHcPTYcZwc6kJXMiwxOwRhOwSGEjZKVI0ewTavXzYNxw6m16iKB3/cgsqadIgNJdVjwTnB1JzaNi3BMfYuKWfg3SjBv5GH9wLtL5Lgz6lpBEE4MBhvriD0M6dhfvA7obWfqZVuAbcI79p12P/pL1D5gzw06ka0A6gZawkd+v0xhH7uEZjf+SC07i4qPPjGjgNv6OA/rkKD4WKqgOvXLiO1OA2nQrVYEARBELaLpsE3Qoh0j+D40WM4dqgLnXHOxiLGDkHYE15mIGFPETZwsHGE92veHOwZYueh5rLwplbgfHYB7mPr8CfKJABrMv1FEA4I2ukKrB87htCPvQP6yL1cUj1wJ3wH/vIY3E99AoV/XoKepn7hoGrGUR3W+7oR+vmHYZw/D/AUn61mqGlSDnx6WbbjZIs2bs6uYWmGKrLNkckPtG1HEARB2AM0UqYq5QJKng7dDCEWCSFkSswOQdgTuJ3xXHPdImk2TJtRaGYcmpWEFmqnpQNauBtatB9a3yD0YwMwBhOASYpNJgtVdKHZ0lYF4SCgSjq03naY9x6CfugQlWyxbbOirxUA+wrsP6tAK9LuQVUTSf9VG3looznovQloiQ7qDzk46cHtBw+87x7H0CqVykivzsMv5xEE2BIEQRCEHcD0Kigu3cTkxBjGFjaQL7uBJ6EgCA0CKzJGBFqkH8YbXo/Iz78J8f9rFNY9JA/q0loF4SCgFXVoGyWo3AYp9PXoeho0Mwotdog2D3iQTnZ0m9dh//oCnM9ehL80XfWCO8AceEMHexGbhoaIRQ2gViYIgiAIO4VGgkI+tYiZ6UlMLGbguL4YOwShESFFRkscgX7mTTDecwJemNrqgX19KwgthlMAKqn6Pff1MLTYQDD1tBV0RXXZhPPbc3D++jpUcbVWejA58IYO9mzkAHFhQ4frcTRuGdAEQRCEnUVzyiiuz2Fm4iquLeQCY4cgCA0IKzVDI7A++CAiP5yF3uHVDgiC0MwoJwdVWoMK0lHXgRECooegwaoVHHA4fNHVCtw/mIL7x5cAJ1M7cPA48IYOEj+DudMq3gMvHIfSWyd3sCAIgrBHKB++XUJufQmT1y5jciGFfNmBL8Z1QWgsNB1aNA599BjMt52DlojUDgiC0Mz4V3S4XyI9r1LndAw9DMT6gCEar2mzJSgpul/rcL9yEf74c4BXDOSYg8bB9+igRTdMmJEkNCsG7YBHlxUEQRD2CaXgVUrIrsxicnwCiytplEjgEluH8MpQxTiAgmVTwFNYom3Qz9xPyg0pRhF5DoLQ7KhlE+q6giqlayVbhPuDWAzGWxW0ttYZsFXagffsKpw/vww1Pw24du3IweHga/0a/ZE8dcUyYOlUkWvFgiAIwt3D0wHZa4FFA154+/altaYM0t/sVbC+NI3p6Smsrmdgu+IaL9yGV4YqLkFlbkBlJ6DyU1CFOYDKUF4DKhtBWlQ4RRI+S3R+hRoXCaGcOpXTpr7U4lqpbe0whhlkZ9BO+0C7tFFBOBB41F+WFmijvr5RCxsIvTEJrc2slbQAtg5/XMH5sxV4F75JYxDHNzlYwUk1EkAP/ChZqHgYX8riyvNPwc6tQR3wCLOCIAi7SpDWUQ/SqLpKp00dhmHQAKng+f5tHgwKBnwYrxLw7xVLbyt8tUHqtq/Z/Oc1efkZtT21aQK//fNareTWcj63atjZZDN82WZZsKd8WCELh4+ewYnjx9HfnQziRQkCPBv+6gz8iReBtRtBatTAdbqWHhUWLUYM4G0+xm8bkzqQoIVTqeomtblqeZBR5GVLrYxroaHoelQrudptlgVVMCjgDVrdsv3SukZw7JV4tfImg2XB4gwq//434Hy8QM+D0ywKgtDMmG9vQ+Sj90E/8f7X6MNegUoZ7tf+EuV/eBH+lSL1Dwekn9sCWqcH66fTsH78R+m+PQgt0lHfvWtgWsLQUXZ8zKzm8eIzT6KcXYXvObUjgiAIQr0oUr7MSAJt8ShU+wjCsTYYpgnfV7A9NnbUTiQ0r4JQeQWWvVErIfmBDQV0DpsLbjUZ8Gjkv2R0qEKXDK57aylnCfeozGfdbRPa58/fOqDx8PZtZfRhj66mgrcWtSN8jksXM29zX6+Vu0E5n6sF+fV5y9v8LGF4BhQJBf5LqSoVQk4Bhu/ACkVxaPQkTp87i4H2UGAcEloYqvgqNwb3j59C5T9fhX95a/KI+Z0bMN+cAyImlBWlehSjdZwOJAArCS2UoHZJ26H2qrGEjSE9LrRBB1pChxYYU0iRDwwlHHCvZjAxLCja114ykNAS1FFauCxY836tsQXV95ZzmhnfhSrOo/IfPgbn4zmo8RZ6kysIBxTzbXFEfu0s9NMfqvVTW8Sx4V18EoV/+lmoJ4rQCi0SmHQTulXhf2HC/NHvgXH8vqqx/QDQEoYO2/WxmCrguae+iXx6TQwdgiAI20CFIoglutDTN4i+vn70tIURjYZh8LTAmkBxu2GhWuAGSsUmfJyNFTytZRPe9OgfLt+Ejypfwd00dATfwedwWfUzmwTTZNj4EexVz+PjQVntvOqKPuttGkCq1+XjfF7ttADe5mvyrJPNz/H/fC4bWapnb/4eLTi3eh6jYNg5GE6etjVE23swODiA0e4wQmZNYRRaEpWfhv/cF1H5xGU4f+pCW9maF4EWp4oYpdrNbSBoB2xsuGXZND68ZLCgkuEi9FMFaB1Ub7U4dJMEd42+jzMMBEYP3mZPEos+Qtv0Wa3bJyG3Am3UhmZGqaxqEKl+ho0ltK1HaOHy2hKc861tzTChuCz4LfybOL0//6bq9ubv23d8kgWLs6j83/8DzifK8Cfp7xMEoakx3p5E9KP3Qj/xvdX+Z6tQf6DWr6DyHz8O9w9L1B8cDEW/HvRjCtbPnof1fY/S/Tte7dObnJYwdDgk1K5linj2qW8itboE3yPhop7KLwiC0OL4Zhidg8cwfGgQg70daEvEECGl3TC2lnf+ZQMN7WyaBW4dgYLN2/d5fdswxXubRS8doY3A/PDyU6vHX3Zu9ZzbTgvKNg0im/D3clm1uPYv7wdlLx146RwuZ4IJL2zYYcGJNg1SMKPRCNoiRpCnX2hFqCLYOXgXPgX7E5fgfLoINWlBs9lrYpeIedCSVA8t+m7NDAwMQWvdNIYEctDmdnVfJekzh2zo/Q70wDhBgq6hww+MFyE6hWOd8dSZ6vWC625uhw2Yb8pAG/ICzxMtMH6wMSVCS82jJNiO0DE2nNB2MD2Hy8P0s6LBduDUFRhIgo3ab+bfwvs7CLfP/BTsf/urcP7Ahj/deoqNIBw0zHf2IfKbb4E+/Abaq6PPUB5UYQbOf/ld2L+zAf968yv5dUNjhfU9MVg/dT/Mt9P9iw1R4Q73u3tMSxg6+O3bRt7G4xfGsDF7FapSqI6fgiAIwmuiSNnxSCHpGBzFqeNHMNTbgWTUgmUcrE70FQfCWuG3H6OS2459+zlUVivkO8VjDgfGlqGnBWGFupyCuv40Kr/9FJzPZqEmjd01cmwTxTE9oh60iB9M06JaG1RgpetUx2uGkuBfWgeVmY9Xy2ACxpk8tG6PBGba53T+WtXgoQJjCBtF2MDBU2V4m40oNe8Q3mdjSJI2h8swRpzasRCCaTc8PSfWRdfugNbF03VidCLfv+BHbA/XhT87i8rPfQzu1/JQmRZUbAThIMGz+d5/FNFf/SC0joFa4Rbh+bSVNdj//U9gf2wW/pVveaG2EvqoonvYC/OHHob5hkerfW0T0xKGDn7blit7+PK1DWRuPg6/lKah8cD/2YIgCHeNYkUjMYh77rsXpw61I8Fvau9CtxCEliJ4S5iCf+NFuH/4ZVQ+UYKa06C9LMCM8BJtDrRjRZgnbNJYeOpM1dsjiD3S2Qv9ZA+MM/3Qzx0iRaa3ds4272XFhXdxHqUf+QP4N9drhYIgNCNazId+Txjmj9yH0N//fmiWWTuyRVgddnKwP/pXtFyHf5GnnrYm+nEd5gePwvrI22GcPUE3t/GM8lulJUZaFsotekZRi/9cdlsWI4cgCMIdIQXCDMfRM3AYxweSiEc4FkftmCAId6aSh5ocg/tnz8L5eAlY0MXI8VpkLagX2uH8cS+cP0jA+USI7puC87E0nF+9Aee/fBOV///X4H79Cfgrk4BboA9tT6YLprp55WBLEITmhVuwNqhgvqcT1ncPQdtOLCyWbTheUXs0COAcTPlrUfxxH+5frsD9zAUawzjlbPOm324NQwctBknnsZAWBIKTKdKCIAh3RhkRWMkejA71IB42JWOIINSB8lx48zNwPvsE7F9dh79okGIubWi7qKIG7wrdwj9bh/0fn4f31a9DbYyB0/VuC3ZVZ0MJrwVBaE50BZ9nv53sgP7gKWhDJ4OXNNtCM2Hc70O7pwJ0tXbiCm8+D/tLN6CWnqd+skglzWn4aZnXCjw3OkGCOrsmiUOHIAjCnTFNA8lEFN1t0aAPFQRhi3hlqJsXYP/24yj9+1VSyKlM9Okdw3tGofLfp2H/2QvwVyYC2a5u2MDh0INp4reVgtDSGAr+4TxC744i9DP3w3zHg9AiPbWD9UIyDhtIetqhd8aghZp3usZOoOWpT30hj8qvUR+7zN5zpdqR5qLpDB08lHGqwbLj1zWu8YvIeNiAwXO2RGAXBEG4I5xRJRoyaflW+lhBEO4ABx9NX4Hz1Wfgfm4G2jpn4KkdE3aGCt3SFz34X52Ef+MSlLcdIZyESKdYNXgIgtA0qJAHNVKG+QEb0Z/rQfgfvw7md9wPrb2fFL67MFBoOrRwGzQrTjJPaxs6AoU768B7chH+xaegcjyFpfn6yqYzdNiuj9WsjaV0JTB4bBUW0Xl+OWcKqEYNFwRBEF4LnvIXMjWYW0whKwgCySWFGXjPPQPnq+Pwx0rQRI/eHfKA+0yB7vMCkJuvFdYBC+2eTF0RhEaE00z7PC1F9+EbpMe1+TC+swjrhz2EfqID4Z89jdDPvAHW97wTxusfgtYzQFptqPbp7UJfaiWgrFg1U1SLo8oa/CuA8zsz8K9PAZVc7Ujz0FRZV1xPYS1XwdhSjhqAhYeOJBELb83ixn9lvuLiq196DOtrqzSuycAmHDyUbpCYzVkxqLMOcgPqtB009KCMnZmCfVro39qat/if2s4t8CU4YBuz2VPwmjd5CWyNwT4NRrzD+0ER7dN/uueIA1UTE0u2Y/joSdx37kzNq6N2QBCEb8d3AXsD3uN/BfsPr8B5rAg1bUFzW/zN4C6iIqT8vKsN0X/9Ohive1+tdGuoYg7uF/4AlZ+bhj+1zTgfwl2hTA9awoUWIuEhiKtAC/2vFMsutHHrwvIMSyu1gYikGvqX94Pdl8Myz0sCiRfIJFUhhtderYw+SmuWj4Iz6R+fqoGWvltlWdgybdRncjrr4JmSjMHGBU5HzWmpR3xaqDgUD7IuGR1RGI8o6AO0H+uB1kFLXwfVnU7A5HTTXEfuHlWYReWXvwbnN69BjXOw4haHm1inQvhfjsD84JuhD52jRxWpHWx8msbQwT8yW7QxsZDC1allRJOdeOd9g2iLbj3vuUeK2Oe/8CWsLC9SH9ea+ZGF5sfXOOqSAV3XaaFN6oQ4SCQvPue7NqLQDTrOFnA6j4NP69SCTDqZpyIYtG/obOSgfR4XqHEF1+Cy6le8DO4iuJfYdKDyPDZiKNAKDskLfm3fcelfOolfjrn0j6sc6OUcfTcLFXQOL3QssIfQhkYSBf3i6kWFhoQNHSPHTuK+s2cQEUOHILw6PF2lsE6C8Yuo/LdPw/009bpLojDtBfp5C6H/ZRShv/szNJhtXdlRhQzcv/4YKv9oFf60yIS7hbJIOe1wAIs1JlZmWTghhZaelRf3YB4vQe9WtBumMlpMkgyURaeGgkWR4svKb6AEg9b8jOlSdNXgesHOyyC5ombAYJTieU4uyR0si/A0MvotfpnkER86HdPYQEnHfNeDl6LfcTlB+3wNFljoGBtGaF85JN9s0G/xZCDcFhGS+5J0L1mW4GfJz+50hRRnD7rJaaRJfjXj9Ijbg7XxMK0epvPiPUB0AAj3QrOSVBfo3B0yarwSqrQE+5e/Duc3LsMf56xOAmN+oATrxx+B+Za3QuseqrW9xqdpDB3szTG3msa1sQksL8wg2TWIdz16P9oS0doZW+Ovvv4CVucmoJrQ/UZoPfidRFUoqGYL4qVs9cCw4ghHLITD1UxCEcOAadA50XaYkTgsiwQ/2jfpAyZPPeB1bakaO6qGEZMvTd8TGDron1dSZAPDBBspaDsY96mAjYY8dcylfd52qH2yAYTLeLtCBxzHBoopOHYZDgkQXFZ26Zjtw624MCtLgbGDr8dGEL44v10RGgc2dIweO4l7z51BxNp5Q8erDT47/DWCsLtQ36WK6/BvvgDnd7+E8m+T8pTSqT+TmrwXaJ0RmO85jsjvfYhkb5YJt3bfVSEN9zO/gso/ycKf5hFO2BFYoWUPDZZdSDbxOzyEvoNk7i5STq0E6altVJ4gpZWeVYcF434X+iAptAYrubSwIhsYNyJUFq7uG6zc0jm0HcRO4MEoWNPyMqic26Nyqf1Vn6liNw02bgRGDtr2KsHC5SyDcOBgeEVScEtQyw7cJ+g7XSrjjDxOvrqU6di6B/crHdTW+aJ0LZJnFH0c9u4p3U2LTs+f6oAWoufBb+SoLuiHbegPlKEN8LOnOhBKwniIZNETYWjRDtqnxaQl3EX1IEmPO0nPnerATgsed0AV52H/56/D+dhV+BP8sIWApAfrb/Uj9FMPw3jk9cEzagaaxtCRLrq4NrmAmzeuA4VlJNs78ba3vhXtbclA+dsqX3hhFksTl+DmVmolgtA4cHP0fB+macLzPPgkEGjxPkQSXehKmOiImwhFk4hFIsEbdjZycAwFjj3DHhm6xl4aVU+PwMuDrhmMES+1kVf22tiSXHhbT/Gt3doWrXjLp3/Y+BEYMGjhv4f3bV4cPwgkXK64qJRyyBUr2CjY2CjacIobiOVng0u5rhv8HRIAc//g5xZPtOPoiTO49/zpHTV0BPWcjWckh3Kd4cveeu3qftXw9m019rbdV2OLpwnC3eMW4V27DPt3v4Dyb6xAT1Nbkbe+e4bWGYbx7iOI/u73kQLVTgVbUzxVPgXvL34J5X/mw5+pFQp1w314UN11flFhIPyeFKy32tCS/UB8GOjsJ2U2Cq2tpuCatGaDFBsv2BhiWrTNRoxNwwWvafWyXvwVtm8teiX4hwW8tEFsbtfWtZcsVSNI1bMDDnt/0HbNAMLtO3g5msnAv1GGn12GKsxATabhfTOEyrOknIM/S/KXohHr1q9rEfj5B3bdICCRgp70EXqkBPPtdD+6DgGxw9D6uqANx6B38lQTUpJNqgOhMDQzTI+cDVpUB6pSK/2/+XDv9JB3HpUbQ+U/fQPOb41BTVVqpQI/CuMRD9ZPHYP1oXdA6zhbLWxwmsLQwW+I2cgxNjaG7No8dOqUYvF2PPodb0Ffd3ug5G2Vp68tYOrGRRQ3lmolgrBfaHC1BPUcOkKWToqkDisUgh7tRKStGz3JENpiIcSiEYRCVlDPA08MtoyzMYOq/beUQd6uXrO2qq73gaBD2ZQhgn+q81+5p+EpLixTVKexsAGElpoHSKlio1AoYqPgoJhagF3MwrZt2G7VSMLGD5PfsDR+l3Ug8DQLkc4hHDlxDq870Y2wWY33sh34ibmej2LJQTabDgJK83PO215gBGPRlqdWBbWX3wSRxMTTqjgIqk5SYyBAEQYpMJvt4Fb4t7FxbxO+kmVWz6u2CBX8dvZmYk+n2wnmct/yx/l6GIpdpm95W8hH+aO1FlaFNjfb4Sa8Vf15Ly/T6O9g4+Ot38Nb3/Z53q+t2XjJXlhCA0PKkPf8NTi/9xScP5iEv+qKkWOPqXp0HEPk4zWPjq0aOnJrcP/0X6PyL8LwZ7f2mZaGU3l2kfLaTWuL+kYzQkpqAlokDq0/AusDIWi9g9AHe6GRbM6ZKwJjhmFRJ029ssEGjM2FO9PNdhL0eLft7yU85tTWm0uwzwaQzcWjtu5BlWnbq3qFqGIBKpWhNr8K5Cfgv1iE+zyNJksOHedIuQX4Dsk406Tcl43mNoDQj/fCDozBMvQIP3saHwMDRZQeJS19Bqy3OtCOJ4HoILTkAPSeLlKG6ZzgPKoHplmdtsKuxIExa7MObK73+rm/AvSc1erjqPynJ6hPX4aak37hVrQ4yWtvTML6yfMwP/ReaBw/pRGe22vQ8IYOVojmNyq4eukilueoI3HK1DZ0hGNJPPToW3C4j5RCUhC3ypWpZdy8/CLSa4u1EkHYOwLFKRRFKJIM3pDriQFEI6EgI1CSlkQ0hHAkCiscDYI/sgLHyt7tit1Bg3shnvbCWZXY48Mp51Eul1EsOyhUvGDJl0ihyK2iYrso2TZ8uwDdac683s2AR8p+pHsEoyfO46GjSYSpn91OLaTHilzZxepGHqsrS1hfmEKl5tnj0EHu47kH53nXwfX5H/pMoOjTwuvNQSrwUgrK+KQqvBUYNL5VFBAYBW8rq3o91XZq3LYb4BkJ+Eb8ZVHX2VBh3mZQYTgzTRDf5pYfEJS9tM9/DH939fe/ZCjhMlpR837Zb+frBL+T+olYsgNDpMRZbGSqHRcaCK8Elb4E+3deROVXZoEx6Y/2A60zCuO9JxH7vR+kRsVtdmutRdF44v7RP0XlX3XAnyNlXHhFtF4H+hFS8PtIYT9hwDhFSmuyEwj3QIvQEu2Gxt7VJ0mJjSVIoeUXOKTc3mIoPpCwFwhPg3HzgJ2Bv1yGv8B9QgaorECV12jZgPsVug/rRagZklum6XPFb40rjYx+lPStYZ5+wlOKIkCnCeNBF3pXjOTYdnr+tLAHldUGvZ2WERqnOqhu8JQGjrXBHhs83ahpUPRIC/Cf+jTKv3IB3mcL9Nzo7xFehtZpwHxPL8L/4Y3QBx+its59Z+NKKA1t6OBfxgrO5ckFTF1nL4yVmkCpw4gk8MAbvgNHBrsQ32LmFWZqcQ1XLjyP1aWFWokg7DzcrLhhbSo7Og0UkVgSsXgM0USSlg7E2ZBB62jYQpQ9OkJ6YNgQpaYKx+WxPZ+UYkVKsYdi2UalmEWx4iJfqqBcyKKcz9K2Aze3TPesqjTzvbtV6RS2x0uGjpPngwxX2zV0ZEsuppcymJtfQHZ1BsXM6i1GgMbE18JQQcCzW8YW9sjQNw0d3xo22XDB49K3YCMH18Hq9ua5vH/73x2UBRvBbkBgCqF9LZRArGsIp48NYbAjLCl+Gw3lQ2Wuwfvm11D+f6bh/IULg/QeYe/RuqIw/8ZpRD/+w9VGtUXU2irsf/F/wP7DBFSqmRSy3YF7qqr3nB/cR+thGk8HOqAfSUA/G4U22An9UJIWUnRjHTUlNxF4dTRTFoZdI3BXrZCyzHE9coHxQ9lp+FeoLE3r8Rz8qwWoxWyw7U3TR1y6x3TT9yqez7eeMcPPuWq51zocGCc86L30LDk+Bi36eRqfTlC7CFfjaejJGLQjJAfQmp971aDFU5DYs4fKgvGyiUcpz4W/MAHnf/w17D+fhX/Tg1Y54Ma6baKfCiP0zw/D+uDfDLx3gpg6DUrDGjr4R3EWh5m1Iq5cuYyNpWn4drEqKPKbP2pk5x9+E04e7kZbdOsD1Mp6Gs+/8DwW5+foj6dGLgg7CXX0HDxUM0xq9yFEIjHEwzoiiU4kO7rRkUwgGQ8jHIkgRIrLprcGK+ZNPDzsOtwfBAFQvVqwU8dFsVRBtlBCKldGaWUiMIaUiwW4djWaOp+vcQAyYVtsGjqOsKHjaDKIB1NvHWWvjYnZRYxNLSC1ukRCwwY9zIYcchoORfffjPdg6OgJnD3aj64ECRb0DIQGgDM4FFbhPfF5uJ+8Cvsx6nNmrGDWlbD36MfCsH7sGMK/8JFayVZQ9MzWUXzXL8Gfpgdnt+YIrAwaJ+O0WDpUKATVSfV4lGTqUCfC3xOGcZyUmL4BUoDbgQTH1tgMFkrnHHSPjbuC6lRg+KC+Ioj1UeBgg/BXN6AWF+E/uwr7BQ5wmgbmbSBF5/KUGJv7Frq3d9uXUGekwj70CE/9ZL2J5FJaFI0hKqFBH3HB00+qsTJi0Id0mK9XMEernjocEFTriwbxb3iKEgeG1QIvHfptQSwV1rsOSpuhm033XmXXYX/8cTj/4wr8m/S8bOnQX5UOwHgbyYj/5o3QT7wBWqSLqkNjyicNa+hgJYXTyT57bR7z09fhF1PQOTgQoehmuqEoTt/3Jpwf7UVXfOuWpHSugKeev4i5mSkY7HImCHcLGyl0Eg7Y3dxKIByLIZJoQ6y9Bx1d3RjpiqAjZh746Sf7BfdgJVKoFzYq2FhbQja1imyhiELJCRRr3/Phs7BBQgd1eLVPCXeC41Tcauio19OIg43OruZx4ZnHsbEqMZG2BSkTerQDx06fx+nRfnQmItKP7Dc8h7tI/cqLX4f9n5+A+2USkNdY6Bf2C/OdGsL/4RCMB/4/tZItQOOBP7mCwht+FWqDFFGeY9cqkBLMWVwR0eAlDJhnSSHuSgCd3TDu7YH1gW5ScO+BFiLlpYHf1DYvVNd86kdK81CT1+A+tgLvhSw4PTVW0/Cu0sPhgKic8KOyxf7eoGvG6LmyMZx0JBWhbznkwBry4Fsc8DNGSxxaLAr9SIieMdX5aB+0+GH63DDVBdpuRa8cNkZxxp38EvxLLyL/oWegrXj0fGrHhVdEcValEQ/Rf9QF87veB23oFDQrVjvaWDSsoaNsu5hdSuGFZ59FKZ+iuvgtn1A2dNhmAsfOvQH3HetFb5LTTdUO3oFMycWzl8YwO3mTtKNUrVQQtg+nSDPbD6MjEUJbVy+6OjvQ3RZFe9Tctru/sD3YQJove1jPO1jPlZFLLSG1kUcux3NlMzBcMW5uFRdhRLtHcOLseTwwWp+hg6cQlWwfT1+8iaWpa6gUMrUjQt3QeBdK9uLsPffi6OE+tEUt6VP2DRKXKmlSkJ9H+V99Ad7nHKh07ZCwbxjvMhH5T0dISf/btZItwKnNx2ZReONv0zOkcaGFDB1auwfjnAP99aT8Dg3DfFsnKb+HgMQRaFF2Q5dpKHsGq2BunuSTZaqHnMllCs7n07Q9B/vLLtRVC7p3B88ZGhC8Thuht9EzHeJMJu3QO5LQz5owztN4EeuGCndTeQc09tTgbYOnmoiHoLJJNsleg3ftKTh/dAXlj8WhF0jWaZ3uYPuwDfSMgcj/8UaY73wD9J5+Kmg86aQhDR38i9ayJTx+aQbZqefhu5yo+ls/k0PXVbQ4Dp97PR443oeB9tCW33LlKx5evDqB6YkbcEj5EYR6cTnythWFlRxAV1c3BroS6OjsQjJmIhoKIRwyYBp6EJBwqwY4YWfgXkKRwMqBTR3Ph227yJWcwJNrbSOH1OoiimskTChfUtjeAV+3EOsZwbHT9wWGjnpiRNiewsJGGReefwbZ1QV4Trl2RNgOmm4i2XsIJ0+exuhQfxC4WNgHKml4V67A/vVvovLJRWhpahOSYWXfMd8dQfiXT5Ly/mO1ki3gFuHfuInCd/wRVMY50IaOoIpqHkKv34D5hhi0syegnzoJ/UgPKcF9QFuSlF+enhAOvMgaUVk50LBXQRDY1IYq54FMDqq0TH3NCvybN+BdnYbzBRP+fIzO82C9MQ/zAXpKAx30/Dh16yA9wwSME6EgMG8QM4UDiEZoP0raKHtqsGcOTzV6aWlFIwe1cfak4ex9xRVSCKfgz9L9/doy7M9U4I6VoC2FpU/fKnybQvT/P44i9GPvoz6FKmUDeoA1nKGDf0y66GB8dgVXXngGqpKhwtt/ogYPBgaOnMa91GEP1JFituR4uHxjCpNjN1BMU0UXhC3ASh/PU4yFDFhtfejt6UZvVwfaEzHEIyYsi9O/VgMVNnqgxVaBuw32LGAvD8f1Ai8xTl+bSmewlCkjv76IcqkIp1wk2cGmHkV8FW/FN9jQMYxjp+6venRssY/l3rpY8XBlIY8bl56Ek1kjwUFipdwthhVGZ/8wjhw9hiNDfXUF4RZ2ACcH78IVOJ98Fs7vz8FfdKD50tc3AuZ72xD5r/dAP/mBWskW4Od59TKKb/8LqAwpmQfM0KEiPlSnD73bgN6XhPnuGMz7DkEfGYXWTYpxoo2UYFaAOeiySQvXZanP+wvVQTZ6sAc7BzXNl2nZgOKXBeNLQM4O4mfoQzFovVFocQ4cGqfBgbZJBkWslrr1pRgaPI2Fnmlg1DjAz5aFPU7/u7n4Dt3GcmDMDFL8zlaAFHvNrMHPrUJbysD9chQqR7JfMQu1bFN/rkGVFMkq4uVSL/oJqpb//B6YH3wjtE7aabC61nCGjgoHIF3J4sqNSaxNvBC8GX81ug8dxflzZ3GovzvIVrEV+PrXx6YxPnYd2fXlWqkgvApGOEj1GmRHaetGTzKEts5udLcnAhfyIECjyAZNAxs9iraHjYKDbDqFVKaATCaLQj4Dp5iDX87SWQdL4N0uLxk6Tt+PB0bqMHTQ7WMvmufGVzB9/Tn4xQx0Fj72APbOaUAnxR3DiLSje/AIjp04imP9bVt+JsJdQkqHv3QJzl8+Cftjk1BPyn1vJMzv6kLkvz8M/ei7aiVbwE7Du/wsCu98DMgcrDn5+lFS2M5a0E4nYJzsgj5wBMZD3dB6BmvTFqK1M4WGJ4ghUSLlJRX0Q0GmG85w8jIDVQsRGDLYEGTTJgd5pXvDi0Py21oZatGDSrlQThaavUHrDbjP6VCzLu3noMo5IF2GdyVOfYAYNXaK0E/HYf3s62G87juojrbVShuDhjJ08C9Zzdu4ObWEiRvX4WTnAtfyV6Ot/0hg6Bge6EY0tLW3W5yxYWxiGjdvXKtmARAtVbgFbgzcJLhWhBJdSCQ70dbRgfbObrTTujMRQiJswAwypQQfEZoQ7mvKro9s0UU6V0Q6m0NmI4VCagn5Qh6+U6JBtBoXqFX7CM8IId4zguOn7w0MHTx1ZSvwi9FcoYznrk5gfvwy3EqJ2lPDDDNNjUIIFvVLfcOjOHfiCAY6whKcdLdhwTo3DveLX4X9yatwHnOgrUkMg0bC/Jv9iPzaG6EPv6lWcmdUZQ3ehW8i/95vQM/wW/TagSaFs6fo/TrdgwSMtyZhPNID48QAtJE+IHYYGisfwbQUQWgGSGZ4ybvFAdwylJsLDBqkHMJfrMCfoGOVHJVnAZvK5qhsjD62SB9nbw6PznULcMeiwHpI4m7sIsbrHVg/fRzWh94KrfM8Cc6N43HaUIYOmxSPscUMboxNYWNuHLpfqB15ZThQ3rlzZ3F0qHfLbrz8RndiZhHXrl3D6uIsCYm1A0JLwwFuNV5IadBJGAiHw+gZOYPBPvbeiCMeDQVeQ6JUHCy49+M+gdOg5ooVrK5vYGFpCYX0Kkr5DDyXjR10kr83HgmNhGeEEe8dwcnT9+I+Ep63buhQyOZLePHSVcxP3YRj1x8A9qB7ZtwVuoFQohuDR8/j/hP9SEat1/R8FO4Cns+dX4P/wmOwP3oF7meLUOuNNwe51THfN4TI/3gr9EMP1kruDAd/9J7/CrLf/RyMjA+tyQwdipq8xpkPLNqImsCoidCjnTDeNgr9wSPQBwbpeDu7gXGHWvuUIDQCVG+D8b22Dqac+PQ/rTnTDE919diwwbE08lCpAi1Z2p6jdrsaeLd4L2pwv8heGS7JHBVorge/SNfKkhxfbBwlu2XotmF9Xxyhn7kfxr3vpj6ps3Zg/2koQ0cqV8bFa2OYmRiDX75zlH6jbQjnzp/DiWGORL81S7VPSs34agnXb0xgdfoGdLb4Ca2NpsM1Y7DCEbQnkujuG8TIyGEMdEQQEtfwloJ7wwoNmNNrZSzOTCC1toJCsVjtj4KAYQ3TXe46yrCQ7BvB8TP3497DiS0b+XbC0CHcAc2g/iqJY/c8iNOjNP7FxLNjx+H2Xs7Ce/rLKP7iBfiP56FJ8qCGxHz/MCIffScp9+dqJXdGlRbgPft5ZN9/EUZWa654K6TH+TEai44omIcSMM8MIPRzg9CH3gyESMFooLepQqtTk5kC2YmWwEvDobULuC4UywduAcrJQWWpv32eqm9xHSo/DVWYgTebgf+kCf/Zjup1hIZFH6G++PsOUV/0DuhH7+WS6oF9pmEMHfwrLkwsY+LGZWRX56uN4Q64sQGcO3+eBL0BdMbNLYU/4e+ZTZVx7cYEFqauBXO2hFZFC5Q5M9GHRPcA+nu6MNidQE9bGNGQBZ0UB1EdWg/uI4I0tSUbq5kyllJZpNaWkUqtQacBOHClbAFeMnScvR/3Domho9HgTCyRtm6cPnseR4f60BYP144IO0IpB//qi6j868fhfmMDaoPnhteOCQ2F+T1HEP3190LrPV4ruTOqOAfv6c8g+4FxGFnVPB4dpDsYj5agP9AN4+2HYN57DFrnSWjdfXSA+oAg8KQg7DckSLGHhuJpJ8XAkAEnE8TGgZ2C4gxWT+vwJxz46RwUx8zZyMP9fBiGzYZHapDKhfLoOpx4U+JpND4G/f9wFOF/dgLm+3+Qdtj7cf+1qIYwdPAvWMvbePaFC1idn4Jfee0pK5v41KmfOnsvTp84Ekwv2OrtXExXcP3mBGYnrsLnwDRCS1Gt8hpC4Qg6h09jsL8fXR0JJGNhxMJmNXuKWDhaHjZ22K5CseIgXyxhLV3AwvIa0mtLcArr0NwK9NeIIdTsiKGj0SFh0DDR1taFs+fvwfDhgaD/EnYANwf/8k2U/8+vwfvqCtSGSx3CvotKwqtgfu8JRH/zfaTwH6qVbIH8DClaf47MB6dg5PTG9+iIqSC7gfWBGPQHz0A/ehT6oX5o7RycMoEgOKUg7DXBS2medkJ9pOMA5RJUKQWUFoDKGi3r8Fdz8J404V3XoTySm/wyfLsAb5Y045QBrULXoM8r14Nab4K2KLwqWpcG8zvbEfmV76fto4Cx//3Svhs6+NvLjodLU+uYvPY8SpnVqhVwixw9fR6nT51EX1f7lg0dazkHN8YnMHXzCpwiZ1kQWgWNGp0VTaCtoxMDfb3oGxhEeyKKSMgMAoyKgUO4HZ/6KNfzUeZsLfkyltZSWFucRTa1iorj0oBdgnEAo1z5JDgn+0Zx8tx9uGcoXpehI8OGjotXsTAtho7dhmMKdQ2fwYkTxzHa34YIz9kXtg+7UC9dhfvZJ1D83+ehpahtiydHQ2N+8DSiv/UBaG3dtZI7Qc80NwH3yT9F9m8twsiRstWAypUfUtC6aUlGYJzuQuj7B2G8+XiQHlaLd9AfHqUOgKepiOAi7AbUTgIVkQ0RHm2ywdembRrTHVpnKvBXaJuzm5SWoSbz8G74UItOEDAUbr7qzVFw4E+b8FfNwDDCwcnZMKLKNFa5Ytg4UHBQ5CMmwv/1KMw3fw/1Xb2seNUO7g/7bujgLCgr1Fieu3QdmcVxeHV6WAwdO4uzp0/iUG/nluMtpYsuxsYnMH7jKsr5dK1UOMiw908kHEG8vQtdPX3o7+tBf08HkmFT4nQJW4Z7y0zJxdraGpbX1gMvj1x6DXa5DJ0GdG2P0qjuBZ4eRlv/KE6fuxfnh+LQt9hQOA4SGzqev3gFi9M34bJAJOwusV4cGj6KU8eGMNiVCNJeC9vAt+Ev3IT3tW/C+eQl2J82qF1LvINGRmtzYP7gGUR/+UepHSRqpXeAlC2Vo+f8zT9E9gfTjefRYSpog2XgMPW7DyZhjA7BOHMc5ttHSXEYpj9ahBZhp6kZNTh+hl+hJlIhIYDqoMvpW4tApQTvBp1WKlAZ6Wm5PPzZCryr9BmejlJegz9Tgj9hSMDmVodjIP8gEPn/fhDGkfOAlaTC/euz9tXQwd+cLzu4MZvCzcvPoZLnPNH1zX/vHj6N82dO4cggGzq2diPzFQ9jk3O4fv0qShvLMmYcZHQTWiiOaFsnejo70dffj76eTnTGOFOBPHhhe7CBlg0eK+kCVlfXsbKeRmVjnuSDHHxOS0udW7OnpfWNENoHjuDMuftwZpANHbUDd4Cn/LCh47mLV7Asho69QTcQaevBIBs7jh5Gf0es6evf3qOgUnNwv/gEnE9chPv5PAnzMhWo0dHP5RD6qdMI/dzfJYF6i2l/lQeVuQ7v8U8g+8MlGHk2dNSO7SfUZBX9CfohDeZ7fRj3H4PxyAj0I8ehxYcBM147URB2gCAgaBnKKZJQUzVqqDzJMDM2VLlAZRxPI0PrDFSuQH1ijBQoPo/6xnwR/oIPf4LKBOFWaNj0Dikk/vM9MN/2FmhdI9S37d9Yuq+GDsfzgzeiz168gdWZ6zTQOHUbHWIDJ3Hv2VM4Ndy95TeOnEry+nwWl66PozR/EZYovAcPqgvs0m1E2xHuP41zI10Y6EogEakaOEQHEO4W7jhZqS/ZHpY2ypiamkJqZQ7l/AY8p0L9EQnPwVlNih5GR/8RnLr3PpwZYMW5Vn4HxNCxP2i6gWhbFw4fOYkHzhxBOGRueUwUqJ26RThf/ALsX3sR3udIuC+IV0wzYL47i9D/egbm+/4+9VlbnA/OQQ7TV+B+4+PI/WgFRj60vx4dOtU/kktUkmSTExasd3Yh/BNnoB86H3hrBSliGySDgXBwUDy9ZGMM/sIY1MostYllqKkCnD/qgs8ZpnyblEQbnPbVrdD5q2EYrgTpF14bpSl4lovIT1A/9rffAeO+ewFOdb1P7GvPyXPeF1M5LCyvUsPxt6V8cnyPiusH3iFbhWMxWCFSeEMRmKa4pR44qCIZoSiSfcM4du5+vOchUtYOd6IjHoJlipFD2Bm4GnFfkgibON4fxyP3n8bZB9+IriP3wYx3w1HyNljYO1gYLWXWMDd2CeOzSyhVSJlrYjvbnsE3ySvDX/4Kyr96Ae5nSfgvilLZNGgmCdZ1BrzjeANezSW/AfC7XGhnFSJ/O4rER88g8vM/BP3Eu4HEMGBE6Qypj8LOo2kG1PIKvE9No/wv11D4OR/lfxWD93wFapyWSQV/yoKaCcNYJn1JjBzCFtCUBtOmenNpAerGNajMSnWc3Sf2rffkedwc2G96cR1WJUU3Znt+g15+A36J43ps/SZyUD3OrMFrz5MoYwcJJ9SJaO8RDJ+6D+fOncfZkV7EI2bwrMXAIewGXK84FXEiygaPBO4/NYoTZx8IptWpcJxOaG4hdTvNhse0OmJKCzsEO2iWS0XcvHEVMys5FCocQK52UHgF2MhRgFp7Hu5fPQV/Ig3FsXPlnjUNSo+QUMfu8/X0VCT38fSV/Y6pRD9Z69AQ/oF2RP7FGVgfeQ/0U++G1sapYq3a2CGCi7BLGFHoxx6G+UNvRfgfnkX4+5MwH9oATA4+SsdfWqgO8loQ6sC/EIP3zDT8hVkof/88e/dNAs+WPCyvbSC/Ngud8yxvV7Kw88H8MuVv/fOsmIRMDVFLDxQU4QCgGzAS3Tg0ehxnTp3C6SOHcbi3HclYaMuxBQThbuBpArGwgf7OGE6N9uHe00dx6vQ5RHuOBHFimg1F7YaDZXP7qddIyJlXeAqL6It7j+97yKVTmJyeCzwmS45YnF4VnpO+PAX3L76JyidywAzVda74QtOg6SHqp9jroY7nxsFIV3R4X+sgGdKqdnZ7CLt2q14P1gcUQv/4PEIffkcwl13nwH0RzlIg3oDCHsCGtFgX9KNnYb7jzQj9xFth/Z3zMN9uQHXtebMQDhiqYMD+UhHuU9NAfq5Wuvfsi6GDY3OsZotYXkvBL95d1hNNOXBcJ5i+Ug9hk5US9upo7retLQ9pYgYpke1dvThy/BTOHh/G0UM96O2IBUqnzFEX9hKubWFTR1cijJH+dpw+fgSnTp5E/6ERRJMkORgWKaJN8mqE541T91hvG2LjBnsReGLm2B/o5ivXRmppBrOzc1jbyAVjrnAbvgO1vAD3sWfh/PYi/Kepsmd1kilqx4XmgONyGOHazhZhb460gn8hDt3Z42ferqCdD8F83yFYP/swrA+/EfoDD0DrPgaE2qrKpyDsFVzfrCS0nlEY9z8I8z3fidBP0/qd/dCPmdASYigXto9/XYP/7CzU9DUSCku10r1lz3tUHk9yZQ+rqTQyG/VnWXklyraPol1fY+T0e9EQ/fni19uU+GxqNiMIxbvR1XcYR46dwLkTRzHSm0QyWp2qIgj7BVe/sGWguy2GM0f6cOrkcQyOHkeiaxB6OFGbU974dVQjDWB7TUn61X2FPWqK61iZn8LCwgI2ssXAw0aooRyotRW4j19D5feuw/06Kbs5rTEybwj1wVM8OFhnPQZZnirNnk70zNmeuyckXWgccuMtcYQ+PILwR94A4zvfCZ3GBS3aToMGe3GI3CLsB1TvuP6FO6D13wvjfW9D+CcfROhDAzAetaANeVAR0tWkegp1opV0qItpeM+OA8X5fdG599zQwbLWRq6CTGodXiG1I380u+YWyvUZOjjTSsSkB7DN2CDC/uKzkaN9EH2jJ3Hy7FmcOn4UXQlLDBxCwxGxdBzu78LpUydx7Mw96B46AT3aQxJvSMwBwq5Sya1jfnYa03PLwXRRsesTfBPKKXgvXILzR1fgfFHeWDY1L3l01DP2Ux3ggKR7If/xz4ooaA/6MD+URPgfnEH4Z98M800PQQvTOCAeHEJDoUOLDsJ898MI/f1HEPpfjsL8gAmcrkBZ1F5ExBbqxLuqw/1qFv7iDep3OVbH3goie97DOq6PjdQqcqlluOV8rfTuKDsKRbu+AStksEeHAcOQrCtNB8dCGDiFk2fvwQNnRnFsoA0x9s4RhAaFDau9SQvnRrrxuvvPYvjsvTATPfBgNO5UFh6LNhehacmkM5iYW8b4chE2ZyirlbcsPgnsK8/Df/op+M8twvCkgjc1GilmgTdEHXCkZBK4Fe7eo/iOhBT04x4i/9sowv/o3TDf/l5onedQDaAqCA2K1QZt6HUw3/M+hP/hWxD7x2H4fQ6UIS+HhfrwcgrOhQKcLyxA2ezgsLd1aM+1w/VsGUsrKRQKhR0LBMrCW7lOAc4kxSMUCsE3mi9IYGuiUQcbhhbvQc+x1+GN9xzF2cNt6IiZElBWaAq4lrKBtS8ZxsPHu3Hfgw9i4PBxWPF2KL3xDK66r9FCQ0S9owR1xDxNwnHqS/st7A6GslFJL2Ju4iomlnPBy4aWfSwkYPmLF2F/8gKcP0vBn5Ggj00PR0yuO3inR3XBhbabHVSMhPkjGozv6kb0V98M8+0/AL3//kCBFC8OoSlgA2KkH/rht8B4988g8YtHob0hAhUXmVvYOrpnQFuxoS7MQs3dBNy9zcCyp70tR+KfW82gkE1Bc0s75gHl2wV4pSwJ1VsftFg5NkJRqER/rURoaEJxRHtGMHryHtx7ahQDXQnEQrW0sbVTBKHR4WnkbGRNRCwcHejA6TOncPjYOcS7DpGs3lhKl9IV6RD1x+jgXpgXCQnRKKggM1khtYCJiTEsbRQDY0fLwW/w8xNw/+RpuP8zBf8aiT+OjB5NDytj9Xp08BtF3yHZYZemLcV8GG8MI/wPhhH+R49Af+g7oLWTrGlGq4YZQWgKqH8MYne0Qe85BvNdfwORn3oQoR9IQjvrwdfFu0PYAiQLqjUd3tM2/IuXgEqh2gfvEXtm6OA3fKmCi9XFBdiFDLSdzF9ON80vZeHW4YLK4o1pWYgmEtUCoWExIkl09R/GyePHcPrIAAa7E0GgR0moIjQrXHcTYQOHejtx4sgwjh07ju7BEarsJFQ0SsXmn6EpMSQeBEiocGmcTC/PYHJyEuuZfOAJ2TK4FajVRbh/+izsP16Ed8kLUt8JzY02WIY+UgE6agVbhYPgezYLprWCncE3SK4Nk2z5jj5YH74P1gfeCPMN90KL9ddvjBGEhoGkADMCrfcErPc+jNBPvgHWDw/BeEhRnRdjh7AFyhr8CQ/On8zDX1mgvpf67T1iTwwdbH7g9K/TK1nkU0vwnXL1wA6haMBy7TJ9R32vEHnefFtUBp9GxddDCCc60HtohBTBozh5uAd9baHguYmRQzgIcGyZga4Yjo8M4sSJU+gbOgIr0UNCRb3B9QThDvgevFIOi7PjmJ1bQDpXhNsKbjek1KqNdXjfuAj712/Ae96ByknbOgiwoUM7YkMLDB1bfab8erEao8PfqRdumoKK+9Af0GB+YADWTz0A67sehX7kPBDurp0kCE2ObkIbOgzjkYcR+luPIvRDx6E/GIXW40GZLTCWCHeFyio4XyjDu3IRKp+mgr0xku2JoYO9OfIlG7PzS3Ds4o7/cRzLz3YVSk5912WFORlhQ4cIPY0Fx+MIQU/2oXf4BM6cPI4TQz1B2lhdLBzCAcPUNXTEQzg21Id773+I6vxpRNp6oFmcgna/ofa2jTbHIk89UwmFvYGfSSWfwezMDOaW1pEtkdJfO3YwIQW0koZ38zqcP3wB3hN5aAVfRvwDghYmITZm0Jo94WqFd4LtHIoUsyD6/w4FI43p0M6HEf6ZfkR+8VFY73sDtP5R+nEROii1TThA8NSrcBf0Uw8h9P3vQuTvHIP5bio7TG0qLGO+8Bp41BduGPC+fBlqaYGU973x6th1QwdX+4rjYy1dQHl1BioIQrKzjYGFN55zbNdp6OD4Dpx5RdwDGgwjBC3eh8PHz+PMqeMY7G1H2NqzWVaCsC+w4fVQRwQPnB7GkWMnkWzvhh5khdqf/okDkRq0bKflsY2DHezE1tGY5DJZTC2sYmGtGpz0wOJVSKAah//MN+E9z4KVVMgDBfWZMKmPrGtaCHdMHi0u9W13WR8M+nxYg3EihshPn0DoB78b+vADQKi9doIgHFA4OcDhUVg/+HaE//VpRL7PgzHk7IFWKTQ1LmB/iobmmzNQpVStcHfZfUMHjQOlUhFry/OwS+nAkr7TuJqPCl233jnHhmEiFE2gEumGkgBR+w6n2fT0CKJdIzh3/l48eKwryFBhGdJzCq2BTlW9K2Hh3LFDOHvPfegcOQcn0g7X2/l+844YPjTTDwzC9cCGZ58USsdTO2zSFnYKzSsivzKJmckJTK3kD6b+rxyo1Utw/+IZ2L+agT8Rp0Gmdkw4ECjNgmKviXqzrvikkPEccY7Rsc26zy8ntbNlhP5+BOFffADW978XWvsJ6jejdFRengktQPBS8jD0kQ/A+qn3wPzBDuB0Gb6+D/KK0BxQl+vNu3A/twT/xhrUHsTq2HUN0qGBJFOwsbqRoz/IrVo+dhpfg0uX5qkr9WVe0REJh2FYJABJuq99x4wm0XNoFKfPnMSpw51oj1rVeBy144LQCrBhIR4xMdzfhbMnj2Hk6FlYHYf2vI/ilqfTd2rb9HirfkpMHY0JZ2IpIbMyg9nxq1hcywbxOg7M01Ie/NlJ2L9zBc7vLsOfpL/MlZHkoKFxzAA9RMKcxXvVwq2gfGjKpo84tYL6sR5QCP/EKEI/8R0wHn0UWmcv/Q6ebij1TGgVqK5z2wt1Qj/2KEI/8haEP3wUxgOGZGQRXhW9TF3w7CLUyixgZ2qlu8euS87FsoPVjTyy6WwwuOwKSgVvPMuOjzoSrwRpE0OmAcuyti3MCzuDGYmjZ2AYx44ewehAJ9qiVt1vkgXhoMCxaGIRC4PdSZw6cghHjp5EtL0HOmdl2TPY1LE9QyN/ZnMRGhQaN51yAeurSxgnoWM9Z9eVuaxhITlDlZbhPfU83Mdm4F2uAHsX4F3YQzT2xGVFqy6PXKrjygUHsfe3I5NSF6yft2D9yHGY3/UI9NP3Q2tnIwcbWwShBeGXMNEu6Cfug/X+hxD60CgMaiOC8Epo7Eg3nYU/MQ+1sUYluyt37Kqhg50rspks1pbm4ZeztdLdwIPvVuCS0MaBSbfq1MHGDfYYiIb0wOgh7A88fahvcBhHj4xieKAb7VFTwqYILQ83AY4hNNgZw8nRQYwePY5ERw9006rLc20/4F/Hv7Gxf6XAz6hULGJ+bhZj8+vIlZwgeHjTwkYOOwt18wk4j12Hd5XkjpLUwoNKMOU4MHTUF6NDZTR4cwa89NYNJEGfFjdg3JuE9eFTpNC9nhS7e4BwT1XRE4SWhiSWcDf0U+dgvu9hhH7gBPQzUaiwCPPCt+PPkOZ+eQFqfpZ2digo9Kuwq70ze1hspNaRXZmFuYuvVDTfh2YXoUrputLlsXHDNPQgxaN4dOw9GgkHViSG3kFOH3scI4M9aI+xd03tBEFocbgpcCDevo4oTh8/gpGjx9HW0Q0jFNmzuELbaY/cDQfeAaJjNjz8ZruYXsHk5CTmVzZQKDv0/JrwwfHb+XIGavoKnD97Cu6X01DLUgEPNByENJi6Uoehg7ulVRP+lTjUUnhrfVSI6lYXyYn3dMD6idMIffhN0I+do865gzpIMXIIQgC3BTZ2nDwP8wcfgfnhUWinYlBREeqFl6NSIfjPZuBfmKNxe6NWujvsWg/NDoGr2TLWsgUSeLc/D3JrKJJxXDiODc/3tyxbswBvGhopEuxBIA1x76B7TR2iScpa98AITp8+jcMDXYhxijhBEL4NnsbFKWhPnziKYydPo733MAkUCTqyi0I29YkafW/dwUhpYc86h7p9UTMbH366pnLgrY3hxvgUFlYzKNvelj0jGwP6sXYB/tw43E9/EaX/RjLBTRrXHRnXDzKaVovRUadHBzg8R8GAYW/hc6aCNuTBfEsU4Q+fRujvvI32jwOWBB0VhG+H5AaSTYxjJxH5e29G5MdGoB0PQzVCtnyhofCeDMH9XAb+4k3a2z2BY9ekZE5Zt76+jkyaM62w2WN34TdQtsexOvhmbf2GcUBSLdoOnwZLtbsOLkINFyH4kR50kLBw3733YKArgbAp914Q7kQ8bOD46GEcP30eHf3HoUw2duwOLMLruhZkgqmLoPul3lTslk1HcXUK09PTWFjNotJMaWc53sLcDJxPPY/KfypAT5Ny2kQ/X9gu1DlpBtg7dOtQB1VLL7sVtBEH1g/EEPnnZxH6iTcCkT4qFHlFEF4TIwx0nkDoZ96G8I+eDFIwC8Lt+OMb8L48QWN4mfZ2x9ixK701/9R00UUmk4ZdzFHB7vz4W+EsYRVXwaZlq1/HYfZ0w4AZaYcKxelu7I0reKsTi8cwfHgI504dR3d7NJg+JAjCnWHjQyRkYKQviXMnhtF35DQ8qx2sk+5K3A6+5O5330KDwLGuUktTmJkaw/LaRnNMYaHf6M/Owv3zF+H8xgzUMimxkt2wJVCaCaXTUo9HLtdp34XiFLOvBV2SPTlCP9YP62+9GfrZN0GLd1cPCIJwZ3h6bfthaj+PIvTj56A/mIRfp4eocLDx51w4T21A5caob96dtxO7omH6vkIqW0Q2U4BTsWulu4tHg1fZ9VDxtj51hccrfmMZDpvVbAYyfWXXicTbcOjwME4eG8ZAVxIhg+Oj1A4KgnBHOCMLe3YM9SZw5vhhDB47h3CsA5xqsVEI7CN74Mkn7DA0jjrlIlYXZzE1NYmVTKWxjR38Zr44A/evXoT9u+PwxyvAbs+UFRoGjV9OBdNW6hFlSUb0SS59LUOHVZ2uEvq73bA++EboZx6CluinrxE3NUGoCz0EfXQY5gfuR+jHz8B4fUJSzwov4RddePMp+FM3ALe0K8aOHTd0sEzEU0jSG2mUCln4ux6fowobVxzXg+3SILZFuYz1a4OUhqhlwNS3l0ZR2DoWZ1c5NIzRkWEMdLcjYoknhyBshyD9bMjEoW42dlB7Gj6GSKIT2g6mn+X+kF++1Bu/iLtf7o+3lbpR2HfYM6hczGN5aRljs6tIF9y6gnzvGVS/gjSyF5+F8+Vr8C5ng9gLQgsRZF3hl1R1yBLcL7GRg40dr0SULnfChPVD/bC+n9PH3gst0UffI+kyBWFbWBHoJKeY77sXoR86Bf1cmJSv2jGhtamQbDFXhvf0PFRxg/rnnXfH3HlDB/1XKFWQTa3ALWdJWN7dtDEv4Xs0bpXh2k4gqG0VVhgiloGQodUt0AtbI0jjG46hZ+AwRkdH0d/bGWSSEARh+3B3xe1ouDuCY8eOoPfQCMKJTurUjLr6wFdD01Rg6Kg3Rgd/NSvGdfjWCQ1IsVjA7PQUJhdTjZd2lpVVJw/v6ouw//wSvIspko9k/G4lFD1uZVQNHXXF6Ng0dLzSSzjSv7RjFswP9CP0kYehH309lVGfKq/BBOHuMGPUnkZhfc/9CP/AcegnIlCR2jGhZdFs6rvnFNwvZaEWlmlc3/m3FTuubfKbvPV0Dvn0Kly7VCvdA9wKSWYp+JV8VdLeIqwsREM6LEMPhHphhyEBxAhF0TUwgpMnT2CwtyvwoBEE4e7hLou90UZ6Ezh27Cj6DpEgEeuAvwOCeRDDiDpI9nqrBzZ2s06slBgzmxqniPLGLMbGbmJuZQPFCr9EqB3bV+hHkGzhz4zB+YPnYP9RBv5NqqviQNRS+BbVA87umqD+aTuGDnWbQG3S9Y4YMN7Xh/BHHoJ+6lEgnKzv2oIgvDpGFPrwEVg/+WaYP3IYOB6CijTEoCLsIyqj4H6zBO/iLFRh54OS7mgPzkIQTx25vpBHqVypDih7hK4pEsg9VBwnmFO81dvEMnzI5BSKSmz2u4BuhhDvOYzT5+7BUG8noiExcgjCTsNpskd64zh54gQGRs8Exo67Rsl0vlaGPfF0UgjLKxO4efU6VtYzNL43QJRPz4ZanoHzG5+C+xtZaOMGdFeU0VZD6y3DfFMaxkkWjLf+/BW7Rnskn7r8uW+h9fkI/3A3oj/3EPQTbw7eQAcCoiAIOwdPYxk6hvDPvQnRH+uDdkyXmB2tjktd7YYLNfc8UMnsuO1gR6UDdlfeyFWQXV6CuwvuJ3eCM6/kyl7gVbJVSwcPYxwQ0+Q0szKm7Sh6KIq2viGcPn0GhzqjgdeMIAi7A3tf9LVZOHmkH0NHT8NgY4e8jRTuGoVCag6TE+NYXE0FLzP2DbcIb3wMld99AqWPlaGyO/vmR2geAjOsYVWXej06FE9bucVod5L0r58dgvmBR6D13C/9piDsJjzdLHkC5g+8AeEf6od5plYutCyq7MP97Dr8hRXAebkR+m7Zsd6cxY2S7WEuVYJfWob2WhGtdwmeQ5wtu0EGlq3Cxg3L1KAS/fCtOJdUDwjbxvN9KDOOtp5hHDlyHMN9SYQsMSQJwm5jmTp62mI4MXoIh46cfmkay3ZjdnCTrbfd8lf51Ad4rrvt7xUaCw4qXg1Ouob5jTIcfquw1/g2vBuzcP/4ItxPzEBbpd/QAA4mwv6gGYoWi9+o0F49hg6X6o1dXQzaPQSEfnIE1ve+Afrxs9SJJmonCoKwO5BQYYShD52B+f6HYH1oCNp5F74u8kLL4mjwngnDH7sGVVitFe4MO2bo8DwVBCxbXs+QPFIgAXfvBSGespIveYHBY6uTV/itAHsaGNEOuhtWY6fSaxZIUIj3DOHQ8CiGB7oRD5uBwiQIwu7C7YyDK/d1xHHiyGH0Dp+EGe+C2kZaRDZwBDE66g1exH2/W0LIyUDbh3FA2B3sch4rS/OYml3EapB2tnZgL1AeVGYG/gvPwfvyVfg3ilS3aseEloSnVmmcCUXjpY4+iqeu+DY004Z+RCH0M52wvvchGKfPQYt31nctQRC2CbWzUDv0U+dgfvc5WN/TDX1AOvWWhURFtWHC+fQyvJtrgLdzXh07ZuiouD4y+RJyGyvB27ytTh3ZSXzfQ7mUheuSULTV76e2ZhkawqEQdIlGuiNEO/px6PAIhgd70BEPiZFDEPYQltPDloGBzhiOHx1F79ARhBNd1NvXaeyg67AHd93dovKhexWEvRxdQgwdBwVduahkV7G6MI2ZhWWki9V4WLsOK6alRXjPPg/vi1fhX94AHBGIW50gSx4bOupNL2srKFq0PgvW93Yh8pOvg3HyHBBjI4fEEBOEvUODFu2Gfu4szPfcA/PRDihTNIZWxns8DzW+SH10mvZ2ZpzfEUMHyzrliotMJgMvuwgOxbAvRnHPhSosw3G3nmKWf2Y1xaweuH2LsWP78B03w1EcOnQIRwa70ZOw6leSBEG4a7j/DVF/NtITwYmjo+gZHIEZIyGCBPkt9410jc1FEBjdt1HOrGBuZgJTi+solN1qTKzdgo0c5Q34156F88dX4Hw2D39BchIKDNU7NnIEBtytd1KqQv+YEej3D8L6yAPQht9KnWUbFUpHJwh7jqZDiw7COP06mO8/DxwPQ4WlLbYsxSLU4jywsUKd9c68KNsRQwe/1SmV8sinlqHs+tK77iQaCUVWJQ/H8epyq2VBPhYygoCkwvbg281KVPfQCZwc7kV/eyjIBCEIwv4RpJ7tSeDI6AjaB0bhhxJw2eNui2y3Be/PCCDsBcqtoLSxhMnrlzC3mg1ic+3KkM9Cjl2AP/sC7I9ehP3pAryF+qdgCQcVltfYA6M+uU2L0qfu6YL5ngehn+LsKlQgRg5B2D90C9rAIMz3P4LoP+oHRk0oq3ZMaCncdR3OE3l4l9M7Nn1lRzR7h+NzFO1g6sp+GTluJV924dJvqodExIBh6iSgy4C3HYxQDO1D53DqxHF0tSdgSoYVQWgIONhykHr22BF0jZyFim797eX2enO1Za8RoTnxXRfF9ApuXr+BhbUsSo6348YtVSnCG7uO8r97Ds6nCtAWSWCRaiVswpqQHqaurE7jV6wb2shD0I+9WQKPCkKjQO1Y7+iB9X3fhcjf7YB2rwc/7NYOCq2C4ZBsupaGSi1BOdla6d2xI9poqWwjnc6ikN2ZH3U3cBDSbMmt660lEwsbCJNyLlMt6kc3TMST7ThxbBR9nfEgw4ogCI0Bd2lh08BQZxRnRgfQc/gMPLM6jeW1CHRKLUjiWBds46jTziw0HSowdqytreH6zCoWU8WdTTvr5OBfvw77V56E9xkSeiTDinAbPomvSguRAFKfoUMzwtDCHdQpttOOyCqC0DAYFrTOQ7C+6yGEf6gN+n0efGmirQXJjmqmAu/qBtRyqlpwl+xIFcoUKkhnsvCdQq1k/2AhO1v26vboiIboVkTa4ZucYlbYMqQIxRJtODw8ipH+NrqPRhDzRBCExiGYnhfWMdQVx6nRw2gbPAIVboP/GsYOz0zANdvos/W1Z+55xaGjFaCHbOewvjCJybklLKfLQfa1u8YtwLsyAecPL8D+y3kSdlwqkwol3AZ1S0F62XoDiLJxg71A6v2cIAi7DDVqTjs7eh7mu87BvLcbWrh2SGgZ1CItNzO05jgddz/237Whgw0KqWwR6VwBunJqpftLvuwF02nquT0cuE+LdMA3Y7US4c7oCEXb0TMwjCMjQ2iLmvWnohQEYU9gA2Q8YmCkL4Hjx4bR0dUNMxSqHf12XCMOz0rW9upELB0tgQEHXmEVK3NTmJ5bxFq2HKR33zZeGf7qTbjffA7OZyegZkmmkKokvAIaGyp46gpnXhEE4YBAOkSkF/rJh2C97QTMhy2oiExhaSVUUYM/m4Y3M0+C6N3H6bhrQ0eu7GEjnUGpsP/TVhiWr+1yqZZidusSkkUKukVCv2FKsLNXgu+kr3GAoDi0UBxmOIFQvAOdAyM4NDKKno64eHIIQoPDbTQRNnFqsA3HhgfR3t4J3XwVRUHXA48P0TOF18KADyezhKWZCUzOLyNbtLdn51I+VHoG/tPPwv3aFXiTOehqR5xOhQOIxlNWjAhtiKFDEA4UnIklcQzGd56H+SO90M67VWOHqBgtgzdXhHthGaq4WivZPnclRbAss5K1kU+vQivzXJpGQEErrsC1+c1SrWgLBK7dIR3hVs7hzDdBN0h4CEEzQzCsMMxQGKFwBFY4BjPRBav3GBIDx9E5dBKDx8/h2LEjGOxuEyOHIDQJ3FTjYQPHRkcwNHIM8fZukiteyY27/vgcATQwiENHq+GjmF3D3PQYpuZXYQcvGmqHtgKnka1swHvxcTifvAn/8y70jVf3NhKETVklWAuCcODQ+4/BeueDCP9oDGqwAmWIYNEyTFLf/oQNtX79rgXKuzJ0OJ6PVL6CQsVtGMFWIylbL2XgOHbdLrTtUSNIM3vwIfVFq2aY4fhx/OwMwyCZIQK0DUEbeBCRw69Dz8mHcezeR3Hvw2/GI296C976xkfw1tedxZsePItHHjiN150exWhfO+Itcc8E4WCRiJo4NnoYI0dPINrWU7WA3IJO/QMbMOsdJLjbvavpC0Jz4tkoppYxfuUiZleygbFjS7CRw87An/wsnF+7AfevHag1eUsvvDaKDRw8bUVibQjCwcSMQx86AfORR2GNtsO3WMMTWgVVTkMtXSShssJ71cJtYPwCUduuC/5Kzm6yMD2O3PoifNfe3tu/nYYEc80y0N13CG3JRBB7Y6t4no9sdoOWDN3YHYwgv8fY1Dkozg1vhaGZYRhWFFYkBisaQzQWR6S9F5HuUSQGTqL70BEcGjmG0aPHcfz4cZw6ehgnD/fg5FAnRvrbMdjVhu6OBDra4kjGI0hGLcTDZhB0NEz3ltPIijOHIDQf3Gwt04AVisDTQ8iVbHiVbwWUZg+unt5eHOqK1tXGK7aDtVQWa0tztRKhZVAKvmcjl88hkuhEJBymMeI1PIOUB5VPwXvhKZR+8TL8r5WhUnS2L4OK8NpovVGY7z0J/eQANInTIQgHDxY8jAi0RBTG6DLsLxWg5XxoYu1oDSoGUIjD/M5D1VTg2zRqb9/Q4QNLGRvzc7MoZjdIMGmUYDHcMMLo6DlEynkCkTpSnXJ2gUKpgmwuD7dSqpU2IhrK4R4oKwk9nIQVa0M40Y5Ysh3xZAei3cNo7xlEZ08funsH0NdfXQYGBnBocJAWWg/0YqivE4d62tDflUR3RxKdyRiSsQgSEQuxsEn3zkTIIkWIlCE2aBg6Lxp0XtigFCy1nyQIQtPB7djiNh4Kw9NCSOeo3/MqgcJqxrvRTX3IoU4SNOpo5xXbxfqGGDpaFY6NVamUYRsJhCNRRMNWYOx4JVSep6tcgvP/PA/vsSywRhKsJ4OKcGest3gw33UK+uFB6sgktpogHEg4XodFMkh7DOrGCjBfBorN+yJa2Dqarui5+zC/Kw4tdoh0e57OWr98sC1DBxvTPN/H/PI6lhZmYRdz9NWNUvH4JoQCRb+LlPd6pqLopMi7voZSxUYxn4fHXip7oMn77ObNjZl/OxsP6HdoQQo0Uj6iPdAi7QjF2hFNdCDZ3on2zm4keofR3d2Lnt4e9Pb2oq+PlmC7h9Z96O/pQn93B/po6e1qQ09XO7ra29DZ0RZ4Z3TEw2iLmUiEjcA7gz1fAiMGf7/ImYLQMhjU4MNs1IxEUPJMFAsF+J4DM9aJrp5eMXQIdeMrn8ZRF75mIRqNIB6xbovjpKDKGXgvXIfz8Rfh/uUysEYyhMivwhYJ/VAZ5qPnoXUNkawk01cE4WDCepEBLdROjb4EtboOf71M40dwRDjIaD5UzINxJgrt0CipxFEqqz/ixvYMHfzGxvExNTuH9OoiPLvcQMoxz+GykOgZCAwdnE5xqz+NBTHDMKGoURXKDkrFfHC1u0FxLAy9ek0OmsWRwjXDoE0ThmkFC6woDFIq2DMjEm9DLNmBtnZeupEYOILO3gH09vajv78/8MoYHOzHUH83DvV2YLCnHf3dbejrTKKHvTJo6UqE0REz0Ral+0B/Pxt72LOFjRn8Zo0NGoE3Ru03CoLQunDfzf1CJGQiHI0jVyjBKVPfF2lDV3cvhrZh6FjdyGBdDB0tC1cXt1JEmeoCj3GJWAxhql/VFwc0pjo5+Fevw/2jC3D/YBZqxau+QRGELWL9qA393vuhJQ5vS/gVBKFJ4HHDsKAPkMJrLMJfSUMte9CcOgQToengmSNKadB7SVe+b4T6+uS2vPe2ZehgB4R82cHY5BxKuQ36MU7tSCPAviUWYl2D6OpMIEmK/svfJL02PFWD3W0RSqBYKAZvNn1w4E4O3fnqkhgbNDgwFmcv0AwzMGTwollRqEg7jEgSViSOEBszoglE422IJ9sDg0aidwSJ/mPoGBhG3+AwDh0ewfDICI4cGcKJQx04PtCG0b4kBrri6GmPoT0RrcXKqHpjcKwMy/iWEeNbU0uqAqcgCMKd4H4jETHBswwK7NFmxtHV3Y3BjvoMHfwm//9l7z+gJMvS+7Dz/2x4kz6z0leWr2pT7bsHGD+YgRn4AUACGAIESYHS4YrmSJSOtLs60u6R2bOrs9JKohUJcAgQIAxhZoDBzHSPad/V5X1WpfcmMsNHPHf33hcvu6u6y2RkRkTGi/h+0zERcV9WZth7v/u9a9Y2t5FaXfRKSDviHyc45RxMy3KT+bFoGLrK20enDLZ2A+bvvQ/zd2fBFptl2uujidb/cV+D3fwMqQ3tZ3icc/wspMigV0IIaVmiTxMIQx7IQ0pvgk3nwDZFbUs1bqsSp+NllV9G8lBfHIaU7IRYmqJae0p0WLaDze0spm/dgckDmeYabyrBgIZAsg89HTEkQqobwO+W+MmgprhTO/R4l/u78lIMpmHwJ158YNJEJDlsLQorOgglnESA/7tIvBvRZA/iPUNIDBxBT/8Q+gaGMTg4hKFhcRnGML8e5ZfxwW5M9Ecw3hPCYEcA3TENcf64Q2LuvCJXlaghhJC9ELWMqCsj0ai7mDHTxALEYfQlqtvms1A2sbS+jfQ6JToIYJSKKJdKbtI/EY9Czs/A+cGrML4xBfu6Bansj7Pxu2mFqaVuHO2nFMjHnoIU6fdKCCEtTZxQ1uOQWBbO8jrMGwZkh0ZztTIpYEM+sg7l+T5IXYOQ1Kh3ZPckJuahVClfMnB1agV3L78D0120s+pfUVeGDfQOH8PpE0cxMtBZ1c4rO8TLYlgOMvkyUnkTG1tpbKVzyJZsWDZzR1GIaTGRgOyOqggGQ9CDEWju6ArJvbgjLMS2reLiLeSp8IdSGWlRGXEhHpk7nLfyHyGEHCjRIohkRSpv8TpMxkCyugz6ZqaAS7dmMX/9Xa+EtDcJciDqrit1ZqIPQ1f+EPa/WIH9pg2piXZYEVGMaI+bK5ohDxP+7QiUH/t5Hvye9koIIS1P7NS1eQfGv34L5f/uGpChnlNLUxnsAQPh/+YJ6D/2BUj9I7ywuvd8T4mOVLaA1967hfzyTTDL8Eqbh8OfUkffKE6cOIGxob6qdl75KJHUMPmlbFruRdwWL5lYwE8kMlSRvBAJDVkkNMQiomLaCH9h+bWXv/CuK3fEfUIIaWZieqJpV0bqiaRuNSjRQT5KLLAd5u3kSTODwa/NQ75ogW3x8gPeYUX8dUps+FPod3qhfuknIXUc80oIIW3BKsC+eAnGv3oV5d9Zg5zWeUVOvauWxN9WpjoI/tcBaL/8FciHz/Cy6tbpqDoDIDr6+UIJhdQSmN2cc2vFVA/LtvljtWGLiH0fRDIjpMtIRnT0JcMY6opguDuKQ/y6l9/vjIeQiAQRDWmVkR3eop/uiA53BIdIfHyY9CCEkGYnkrUiwVFtkkMQqfN9VrukhYi1rYKlIrruLCP2ezNgb9vAJm8Ta5zk2MtHjj6mPqZG+IdL8+4QQtqGGoZ8dBTqj5+A+nSQ36feVcvijbRkyrAupOAspwCz5B3Yvaqj2JLpIJXlf6i0xR9A8+4FJxIyhsX2negghBCye6LKFes4ESJoloPkcgmDb2QR+wGgFHhhDZvlnRCXQt02oTEoJ4qQurr57ZBXSAhpJ1K0E8rJE9B+ZADo4V3Z6jfjID5inZPhzK6Clba9kt2rKtEhYpNC2cJ6puSetWtmItAWa2xYlOgghJCGcXida1pU7xIJsi0hvmzi0Ht5dL9ehlKHtcvpk9ZGeMQqdchQf16DPDYOKRDzDhBC2oocgNzbD/XzxyA9EQALe+WkJUkLEWB2Ecis8nvVtfpVJTrE6IhCsYRMOu2uU9HMDNNGyRDTV8TGsIQQQhqm2TPhpO6YLCG8DQx9L4ehv9iGWmjPz8TjRpqIV6XWr0xLvtLihQwpYBNJKJ/7KUi9x90h7ISQNiTWAwjFIR0+A/2FAbAErxskijtamTO5Amdhg9+wvZLdqSrRYZgOCvksrMwyb0mbe2iyY8swrMoUFkIIIYQ0TlTJYfzKAvpub0Ju43b4cc9c9N9rPe2mqsDOL4ISlGejCP3nJ6E8dwZSWCQ5av3KEUJ8Q1YhJ3qg/c0zUIeigEL1QSuz3gjDvlQGM1Jeye7suj0UjbVYnyNXNGEYzbfTykdJ5jZYaQuOWLiEch0fEC+Fe+H/J2b1iGHmYnqPSAgVyja28yZSOQNFw6aXjRCyJ0ycbSFtSSw+GkAJwzdW0XMtjcBGcy5a3spare12VB6svhyC/ptjUH7oWUjhBC9oyXQOIWTXeJyhBCAPnIL288NQjtGaPa2MFQwguw6UN72S3dl9ooO3nMWyiXyhCNsyvdLmpTADllGEYTT/Y60VEdyIrXXFFKOd5EXZctykRbZkY7tgYTNnYnWriKWNNOaXNzA5v4bLd1bw3s0FvHNtFu9dm8LNmUWkixaNPieEVE3UQTtb05L2ItJbmm3j0FQaA98pIXLHgVL9IumEo1RhBYvaUD/pQP/FISiffg5yZ797JpdeIUIIJN6N1ZNQf+gJSCd7gQglQFuVw/vzdmoLbHOTNwy7P4Gy60+ECF5LxSKK+SyY3fwjOmRJjFCwkOMddruFeuyVZIZYbHUnieG4SYytgoWNrIHVtIHFrTLm1rKYW1rH3MIyZuaXcHd2AbemF3DjzgKuT87gxq3buHXrJr/cwuTtyuXO5CQWF5eRK5R5CEFBBCGkejv1E2kvYhCPblromstj+LUsYpcZ1C1eSDmvPWn7bxD/6LCQBeV5B/pX+qF+4TTkvsM8uKMtZQkh95BkyBNjUD81APkJHQhWt4YD8Yk8DyemSnCmM4C9+zMoEtvlqqJl08HkzCJu885xdnPJK21uLNyL0YljePbkKOIhf+w9tPNuiLdFdBjEtRihce8oDWNnRxlDjFopw+DBpUh6lC2bl9v8mv9siX8iSvzDYJb4v+M/7/47Xm4yMLsMyS5Cdu4f7eJIKuI9Qzh6/BSOD3choFFmlBBSnYWNHF6/eBflxYteCWkHGo8ROheLGPvBJvq/n4PM2xqyf+JVbMvTDjz8YIcMhP5RF9QfewXy2FlA7/QOEkLIPRwDzu33YPz22/yyCLao0unaFqS8GIb2t05C++VPQwr1eaWPtutER75k4trtWdy+fQt2fsMrbW5M1tA1MIYTp5/ARH8M8gF+6t0X2XulK7cru8G4F/EWuIkNL6lhVxIapmnBMsvu7jG5so1MiV+XLBR5QFkybf4+pKCUNiGZRXdtWDFyhcGqnECzLUi2yGp6f3QXlGAYg6NHcerkKfQmdKokCCFVo0RH+xEjKDsWyxh5fRvD39mCUqZhHLUiWvDdtsX3/uy9Lb/v2nL+gKWQBOXlCAL/7ctQnnkKCPZUDhBCyMfw/k9uDtafvYXy/34Z5psWlDZrhqppK/xKPgtovzYO/W98HlLiqFf6aLtOdGylM7h29Sru3r3DX81d/ZOmIEV60TNyAi+dHkYirDYs2bHzEonkhbgtrh0vGeEmMSwHhsPcbXAdowTHLKJQMpAu2kiXbOSLJoqFArTsLP9HlalC4lfuvF3u/7u3+aVS5LnvTlUSnd04fvw4jh+d4K8TBRSEkOrNu4mOOzAWL3klpNUlnS2MXV/B8LdyUC/Rlp8HRbTae48AmkgIUE4pCP2vz0J+8lNApJsXUkxCCHkExwBbeRvGH7yKwj/OQCn5YyQ/2T15woD2C/3Q/s7nII89x0se3y7sOtExs5TCzRtXsbow7ZX4hKIjlOjB0PhRHBsdQDKiQa1RtkO8cuLijsTgFzEvXUwpEdN8xPQRsUuNe5/fFlNKUNjk38PCB1NNxBSUUtmGY+ahWjkw2/5gmorYDcVxHEhOufJH6szWkjh69ChOHh1FdzLilRJCSHVm17P43vk7POC47JWQVhZTMxi9uI5D380hfE2GVDzYKY+itaQusX9JSQfK8zq0v3UY6hd/HFKsh0e31GEhhDwOAyssw3r9dRj/3bdhv5GsNAikdQQY1M90IfCPn4Pyqc/yBuPx8cauEx3nJ1dw99Z13lef90r8QuJtpI5grBM9o8dxYqQbnbEgNEVxF097GPdF4S+NuBavkHiZxMUSyQnTcbdiFQuBiikkJcOEUcyCFVMwRbLCAixLjNrgP+84MB1exhxI5Txgl90Ehs1/p0hmiKQGcyx3vQyxLd+B4C9EqHscZ04ew8RwDwIqrc1BCNmbmbUMXn1/EsraVa+EtCJ3G1nJwMi1dQx+P4P4NRtyltoOsnfu4qMvyQj8jSEoP/JZyL0nAYUWHyWE7JLoY929BvO3/wjF/6kM2eIdvQPqWjU78bL48aSA8lIQgX98FOpP/rVdJcF3legQi2C+ee4qZqfvwBELXPqRpEJN9GK4twu9vb1IJBMIBQPQVIW/0eKtrozKcGybXyzY1s4Cn447vaRU5mXlHBx+EaM0xDoZYuSGuzCoKY4VIBkZOGKxDIeHgCKBIZIZ/Pe6/5MYJDFCQxxvKvyxBmMYnTiFkxND6EtGHpkAIoSQR5lezeA7525D27jmlZBWw5szqLwdPDS5jdHvpZC4WYaa9g4SslfjCrRf6kfgPzoLefBZ/iET06AoICGE7B5LL8N+67so/N/eAq7qwAGPMiS1pZyxof3dXuh/5z/ldwK8iXh0G7GrREemaOHtN3+ApYV50S32Sv1JlnXEOnuQ6O5FLJ5AKBBw1+0Qz0okNcxy2Z1eItbMECM2iu6IDRvFogGrmIFstlg0JylQesbx1MnjGB/oQDSgeAcIIaR6YkTHa+9PQqYRHa2JBxVamaFrqoAjf7WOjltFqHnazq9RRKzSil1/qVuC8iOHoP3q09A+9zSgJbwjhBBSBYv34ZZuo/zPvwbzX/Mac1kGbEqYPo5f2hapz4D25QQC//N/DEms38T7sY+yq0THzHoJly+8hdTKQhOOSNgbRwlCDkYRDOhQ+DtrMwllw3K3bIVZhMJ2v0evf0lgqo6eiWfw1FExmiMETbwYhBCyR0upPN6+Mo3c3GU47pQ80kpkmSG5ZuDk76yj+4pI/j82hGhK4nPpz0e+P80WzPLQC3KEX74Qhf4bz0H9zHOQwr3eUUIIqRKzwbJrsF//YxT+HzNglxxIBRrV0UrkJ5MIf/3zkAeedtfifJTHvvMiDZLKmzBM/kFpobBAtktAfgOl1BLym0v8ehEstwrF2GqTJAcny5ACIfR2dyIeDlCSgxCybwlelxwf6YMSG4LNZHexZtIaRAyQYJsYz95A97UtyFZzv7fi0T3oEfo5ybHfx91USQ5+sRUep37aQeBvHYP6idOQQmIbWUII2SOJ923CMchneZ0yzK+DlORoOVYR2LoGsdPO4zzy3RfxqWk72CqY7roUpLXIsoJEtANDHSGEdKoICCH7F9QVDPYmcPjECQS6xuDIAXcBZuJvEhwky9sYPr+N3n8vQzZ4m9Hk2QLRqb+3Yy8e7s7Fr1rpdISkM2hjDvTfPALl+acgRft4YSs9Q0JI4/E6RA5CThyHcrwTTlITSye2BKodPQUT9uVlsLJIdDy6RX90ooP/Tyy6WcpswiwVKFhtMZoeQM/gGBLRQM223CWEtDeF1yXRoIaJQ0kMjh5GOBqHLFMi1e+iRhH9V3Lo+Z6JwFTzJzl27DxM0cLtXNpNs75VUlyH9tOHIZ95CVJyCFAD3hFCCNkHWQGCvVB/7BDkcV6vKH5Ob3+oNZ7F/rFtCeafy2DpDOBYXumDPTL6dPgrmi/bcAopSHaZMkkthCkBqLFuDPV3QdcevdUuIYRUQ1EkdEY1HB3qRv+hQQQice8I8SMdlpvk6HujiMikA6nknwZj55H6OUDc72NvtneLicjzkAr1R7uhfeUFyD0TgBrhhRSIEEJqgdclcgDyiePQXglAGX38FIdmRcmNj2NlBvuODZZbB5yyV/pgj050OECuZFe2TmU27wxTI9QKGK8A1GAUia5+9CaCUOh9JYTUkKhRxCix/oSO0ZFhdPcPQQvF+AEa2eEr/I1UFQd9d3MYeCOP+E0LSt47Rhqm2ha6mVt0xj9PGAKULySgffUE5LMngVCU6gZCSO1Fx6C+2A/lSNAraD6PS2RQD+0BxMYoVg4orQD2HhMd4oW3HQe5QhmlkgHHpmkrrYLJGkKROPq7OxDQZBrNQQipC1WRMNjbgeGRcSR6RyDrYe8I8QNVrMth5TH22gYSkyUoRTq35AdN/S71WFA/F0DgV8agfOJpSFqER/IUhBBCak9Sw5BGjkMaOgQ0aa6Dar+9cCCxIlBadbcTdhMfD/HwFDpvKR3HRjmfgmnk4TDaJ79VSIEoQoludCRiNEqHEFJXuipjoCeJodExBLtHeAVEZ279QIGNWDmDIzemkVjMQSlTDNAordwqaz/MEPj5ISgvPA0pSNvIEkLqSxoYhXymD9Lh9og9dpPo9v0pC0cM5LDBMhtgZp4/oYfHJ48Y0cFg2TbMYgYKM/kP0pmcViBG6QQ1MX9eRzykUiaREFJXoo6JBlWM9iVwbHQAmqa1XYLVf8+XIVbOYuLuPHq+BqiLvK0wKUFVL+LTcW+E1arRlh1wIL/8BJRnPgEpMs6fuOIdIYSQ+pDiMchHRaIjCVtu/b7sbqINv0dgzJLgLAdgfVcGWzNEgXfk4x4auYiFSA3TQSZvwhF3SEuQlSBC8V7EO7oR0inIIITUn9jUKSaSHf1dOPHEWQSiMUhttBMLE3u1+4QsOejIZzF8IY2e35egrMmQTP4GUhhQU/e+nOJ2LQPPpnureKghDUgI/qcj0D73LKSucV6meQcJIaR+JDUA5UwC2mfDUMdMr5T4meRIkEsy2HIBrJADnIe/rw9PdDiVrWUzBZsSHS1E0VTEY2EkYyHaUpYQ0jDutrPhAEaHhzA4MoFQmyU7/CKSNtF3uYDe10sIzEqQLP8lOfzQstXzMTbV81f5h6cP0L4Sh/5zT0I+PMrviLV6KP4ghDSArELq6oQ83AcpHvIKyaOadT80+ZLDH2chC5TFFrMP31XnEYkOB+VyCUYxA/aIRT6Iv6ihGOKxaGXaCsUZhJAGUhQZiWgI46Oj6BkYhR6Og1FF1DS0koyea0X0vVlA5I7tBhLNoNqgqxmDtHb9lEtdDOoXJWi/eNrd6lHi33lKchBCGofXN3oS0qE+yGcCcGgwu+tRtbAvamgxUrac45dtMLvkFX7cQxMdtm2jVMhDKqUAhxYhaxXhRA8SiQ6ENDqTSghpLNF4qoqMvs44Rscn0Nk/DCUYA6MFSg8Y74xKJnpuFnHo9SwSt0pQSs2TLvBzt3jnsfvhDFnN6RLkYyHovzIM+ekXIUW73bOrhBDSSJIagXy4E+pnI3DErDk/Nyp15puXhjeqbMmBs1oACmLqyoNb2YdGl6Yt1ucwvHkvbdlEtx5J4R2MKDrjIXcYOSGEHASx7ex4XxyHDx9Bx8A47xCFeStDddJBUWEjYW7h5J/PoPtGBopBbX6tPOiVFGU7l1pqqndN5QHmUADqS0egPPNTkEL9vIDW5SCEHABe90iJXkijE5Ci/D6FG66HtU++YEuw3+2Ac1EGS9kPfeAPTXSULYaNvOmjZ0wexwl3IxmPIRqgcVuEkIM32BXBkbFhJPrGeZvVpJvctzhFshC3Mjj6/gpCWQMStfl1J2LsnUutiLetmWJ3eUiC+vN90H79NKT4If7gqGdBCDk4kp6EPHgY+ufSQKg55mUedHPbErVyeQMws/zGg1/NByY6xI8alo2MOxSEtIrOrm5EIxF36DghhBy0gKZgoCuOI2OjiAwc4y0SDWtvJBkOYpkiRt/ZRuc3eMd0i4c9TZDoaIKHsG8igHzU86jlcxS/q5kCVqnfgfrz3dC+chLy2BH+QaOTK4SQAybrkDt5vfTJIUiB5og1mjHR4Lf2l5VWwIxtfuPBy2w8sMdr2QylsgmjlOf3WiHkaHcSbCmA7mQM4ZAGiaatEEKagKiKokEVw71xnJoYRDSe4H0i6hQ1hCQhmjIxeC6Pvm+VoS9528g2gVZooR6XfNjvc7z33zfN6yUzsP4itF8JQvvZU5CPnwKCMe8gIYQcILEWWCgG+cRZSL38tta6/dv9PDO/tb9soQC2mQezHzw444GJDrE+R6lYhJRf90qIr8ky1HACiXgcAU3z3YeYENK6xHpBYheosb44RsYmEIl1QFZoZEddSRLC27a7jWz/GzmEZhxItByXrzTlW6VJUD+pQfvyKShnTkGK9vDPGiUuCSHNQdIDkEfHoTzB+0ItnINtp36efVmFM2MBZtkrud8DEx1lk6FQLEIub3slxK/cs0qSjEg8gWgkDJXOlhJCmowsS4iGdBweH0f/4ChC0SQvVMDE9mGkatJj1kMIyAZ659Lov5BG7O6Dg4OD0M5J+N1+0pvxNRKPnQUkyIcD0L98FPKx54HIIH+wFG8QQpqIqkDqSUI+zWOMuNqSuf12i5qc6SDYMo9jDDEL5eMenOiwHOTLTtu9WK1I9BPEbgbxaASRkApFofEchJDmI5IdHbEgxg+Po2dwBFo4Dqetu75796gEkcIsdGfWcWh6BcnlbFMtPtrOMcejPun3HmvK1yjAH+O4Cu3neqH80CchdQ3xL7TuHSSEkCYhKZC0GKTBAbAEr6NacPpKtVFTS7wC5S1+SXl37vexRIeIj8qmg4Lh8MDzgXkQ4ieyCinYiXDPGEKBIBRa+ZwQ0qTEmh39HREcO3oMA6PHoEaS3hFSCxIPaTqsNMa+k0bXmxbUtYNr40VwtZsAq/XC0Ad70PPcaa2b/TVQRhiCvxCG/n95HvLwEd55CHlHCCGkiYg+UCAA7YtB6M/xfm7ngxewbCet0CtkpTX38iAfi3IcxlCyHJQMG5bdHNvvkL0TiY2wLqMrokFTJfc7TgghzUrUUT1xHYdHDmGAd5qYTsmOWgmyMsb/ahuJtxmUjYNLcohmaOfyODs/0+oJD/E8P/oc/fCc5YkctJ8OQP3FZyElT/MCGslBCGlWvKaVVCA8COid/DbVVy3BygFmhjeaH09cfSzSsR0Gw7Dd7WVl2hLM98Rw8GBARVdMhSpOlxJCSJMTdVVvMozx4UPoGRrnAUkYNmO0Zsc+yJKE8bfT6HrLhL7OIFnegQbaeff28i4+KBHQKnael99aaIeHiNLpPig//BTksaf5FzfKCyjOIIQ0M971DfQC0QSYroFO6fufc0mDfYG/r47hlXzoY4kO02awy1nIpRQ/SEGl30l6CIHkgLurgQh0CSHED4Kaiv6uGI6MD6Nj8DhkMbJDnIkhe3J4wcLwN7MIrng7rByA3bZAD4s8WqEFu/c5+DXBITgBQHk5CvXHTkJ++mkgJHZYoRiDENLkeDUlBbqgfiII6Si/Q+f0fc+ZU+BM24BV8Eo+9LFEh2UzWOU8pHKa36NEh99pehCxzj7oqkwxCCHEN0R9FQmoGOqJY+LwYcR6R4FgHA7t5LAnI386ifBMGZLV/O16KzdV9776vn2e/IHLZyTovzAM7fOnIR8a5mX0vSSE+AGvwNQwlOcSkMdFxtYrJr7Fig5YrghmZr2SD318RIeYusIDIYuGCPueeAeDmoz+hN7SgSMhpDWJZEdYVzDRF8LI2CjCHb2AFqQUfJVOXZhFfKbo3SP7Eta8G7t3b/vr+8+uyiAPWgh+pQPal05BHhnmHYWgd5AQQnxA4t3f8JC7WYO7CnoLaOu4SKzNYecBazeJDttxL4wmLfkeYxI0TUVPvPrAjBBCmoFIdgQ1BSeHEjg82INYJOzuDkYeTeYN/6A5h0/8xRUc/Voa0ioturZfUncEKDx43s9HQ+V7P6L33vZ1SM0fvNTFoP1qCepXPgl57BSgxb2DhBDiI9FRyMkOKKHWCChaI12zR44FycgDJr98xH2JDhE8itEcRcOBaVGmw++UWA+C3WMIaJToIIT4WySgYGJ0CKMTxxHr6uetels3648kSQw9mQyG/9hE8jUZ8tbBjM1tpXyUnAiCbT18VMxHn+vOp7OlPqVhGdKxTqif/xlIvacBNeIdIIQQf5HUONTPMSif+3jnuN08rK32Txtu8gdbACz+Xn5k55X7Ex38f4blwLBtOLQOre+FAyoSkQDkj43bIYQQfxF5jXhYx+jgAIZHDyMY6/GOkHvJjCGWNzD07RySF0xoKV54QM15K3XynbIltqWrOvBrmWRPkHcIng5D/40jkJ9+ElIowt9gCi4IIT7F6y+pow9yZ79X0L4e1lb7pQ0X+QvmlCvbzLL7t5T72IgOp1wAxK4rzgEty05qREJIVxALKvxWS51TIoS0KUWW0BELYmSwH4OjY9CiYn4tdbZ2iH5nqOjg8DdT6D5XRGDDOZBtZFuNpPIXtlR5IduxNXUUB/JZFdpfOwT1s09DSnbxLyOt4EcI8Tcp1A8WGeB1XMukpNuSGMThlE2gnOc3HpHocESiwywARgGyTYkOX9NCCITjCIdCNMKbENIyNEVGVyKCseFB9A1PQI90gkkKWJsv3CHDQcTK49D6CgbeSCO0ZkI2KXirBdbGU3lZyIbyrAP15wag/uhTkA+N8g+b2OaZAgtCiL9JySTkwzHIo4ZXQnxZsxd5DLigwJ4SiYz738uPjOhgsMW0FVtkQyhA8jM5EOUdgA4EgmGvhBBCWoPYLrunI4ojh8fQeWgcSjDuJjvalcTb66BVQu/KBkYuLyKwbUGi2aekFob59+3nOqB/+QzvDJwBlIB3gBBC/E1KBKEe55dT1OcVxKvgx1dCKqhg0zrsGwrYR2akfGxEh2kzMQ2V+JyuiqkrkntNCCGtRiQ7BjpCOHp4HIk+kexI8Aa6Pes7jZnoXk/j0Ls5RL8dgmTx16EJo5V2CSVb4nmKr5LG/3sxAeWV5yGPnKZtZAkhrUXReTCRBAJdXkF783UE5YgtZktiaopXUHFfosN2GMoWgykyHsS3LNuGqsgI6qo7zJsQQlqNaJB1RcJIVxDHj44i2jMEqy13gWDoymQw+E4OHa8yyJnmrfP9FkTt5fGKf+PrYHGHxp/HMQnazz0B5dQTvCPQzQtb4pkRQkiFpPK6LsaDiYRXQHxLrM1hFR+d6HBEosOkrWX9TtKC7tayWiQJlXcECCGkVSm8jhvujuDkWB/6+3hnTGmf7bTF4qNdGyUM/1kBXd83oeR4fe+z8xTN3ELt5aVshdNEUkSsy2Ej9N8fh/rKc5ASvbyQFh8lhLQYWYUUD0EaDMGO8w4ydZl8zAKcIr8qePcr7kt0iPyGYdqwaO6KrzFo0LUggrru7lJACCGtStRwIU3Bod5OjI6MoqOnH1IbrMAsORJiyzaGX02j83IJ2hZr+nU5HpQEaNbEQLu2nFLCgvI8g/7VQ1Be+QSkzt62Sh4SQtqJDKlHg/qECmXAvdv0HtZmtkKSfV/EtrJ2kV8eleiwHRj8IqawEP8Suy0GdRkBVQLlOQghrU7kNaLhIAb7ezE6OoZIspeX+SBi2SOxw0rYymNkdhm9VzIIpHgD74Nm20/N0X5ezt3822Z8u5jEH1WfBuXlQ1C+8Cyk5HhlDjshhLQiN3jQIQ1EoMTEfD2v/AA9rm142EP0U/taF2KPWbtcSXbc4/5Eh2XCMT8+v4X4i6oyhAMyAlrrBvqEEHIvMXotGQtheHAAw4ePIhTvhORug9laRJIjxNvpQ8trGLy8hlCqDNlqxm5z+9pNwNmUQWm3DPnZPiifPAtp+ClvJEfbh8+EkJbF6zcl5C5IytwdpQ6+vqMad48MBpY1wQqPGtFhlKCWt6BZOa+E+JFYgDQcUBBQKdFBCGkfsiQhEQni2Pgw+sdOuFtst1KyQ2wjG7AN9Kxu4/DrGwi/FYCcp3qe7J8UYdBeSUD/xeNQPvMUJL1DlFYOEkJIi5LEqLVgDFKMxwoNbk5rdYpi5/e0c43tZGTYczxKWje8kor7Ex02cxckJf6myTJCqgKNFiIlhLQZMbIjGtJw/PAwukaOQ43wDluLrNmhyRa61jMYfiOL0KtBwPYOEN870MiLfz3k5y1oXx2D+tknILk7rBBCSBuQNMjdASifKsIOOmANDBf2+qc+2l7s/J627sFv6mDXo3Dm7l84+75ER9kS63N4d4hvGdFhKOEEbS1LCGlLItnRGdXw5JFD6B4+CkT6ePDi7/pQ5hFM12QJQ39VRPJNG5LdGskbUnFg76bGIH/agP6bp6G+/AykSL93gBBC2oCsQ+oIQ3mKd4ADYueV5k8XPKy9aOtEh8D4e/ioNTqKYmtZGtHhe8FwFJrGv7gUBxNC2pCo+lSR7IgFcXSkHwODY5BCvbAbeaqmhpisIjltY/D7OXRdKELNeAdIyziQyItHgFJCh/rKMR7kPwepa5CX0Q4rhJA2IiuQ9BDkeIxXiPWb6tqIOn6/Ec69j9GX2QCxIKn1iERHyaCtZVtBPKghoNKe94SQ9iam7/V1hDE61IeugRGwcA9sx19tnFiXI6pmMXxhA91Xc9C3eENO5yNazkGk4KQOFeqXOqB96RlIg2P8CxMRpZWDhBDSFnidJxYiDXTxmyLRUfs6UPxGP9Ss9z5GPzzej3ETHfevM3p/osN03HU6iL9Fgyp01ZcfUUIIqamQpmCgK4qxkQF09o3wVk/1TZ5A7LASsQsYuruKvhspBLfuX2SLkL1gIvLrlaB+Kgbtq2egPHMMUlSczbwvJCSEkLbAZB0I9NRlW3rRG2tkzNHWvT/HBjOy3p2KjyQ6GGyauuJ7kYBYiJQCFkIIEVP4YkEVo71RHBvrQ6SjB4rKg5omDwckxhA0yuhf3MTIn2cQXLEg+XTA5aOiilq9C9VGLo2IdB733A4i2nKTHF0OlE8Gof36GL9+EQiJBXtpFCghpD1JItER7IUsSzWPDBpdz9fr7x1Ee1U1ZgFW2rtTcV9vuGzbsCjR4W+SjKAuQ6UdVwghxLWT7Dg8kMTEqWcQjnVBVpp721ndttC1VMTInxYROa9Ayfk3ef2o1qhWEUe1LV4jWsjHPbeDaKWdoAP1k0Dgq4egfOoFSIHW2ZWIEEL2RNZ4XcjjAog1iqg+fBBfvCoi0fGwER0OY3D4cbFgKfEnsauAGeyFpgfdXQcIIYR8KKApODHUiaGJEwglOiEpzXkWW1EYOpZKGP1mGrFLFiTeNrcSP55OEY+5FU4DyUkFyvPj/HIWUnjQKyWEkDYmaYCW4NetMRq+FdqqPXFsSA9LdIi1ObT8ChTz/kU8iH+IuWVSpBOqHoBMZ2gIIeQ+ol4MBxRMDPeif/QEtHgf7PsHNh44WZHQfbuAke+kkbxagmzywhaLWpqxdXrcSywes+9b1YgD/ZdGoP2I2GHlRGUBPkIIaXdi55VYGNrPrkPqFo2uv7VvD9Dh/92/ltkHEZ4pFiE1M5A+8gPEPyQRxAcD7voc4jYhhJD7iWRHMhrAxHA/BobGocb6YKE5RnbIko2u4joGZ1fQNZWBlm3dIZb3JhaaobV62GNoiRyTwiD1WtB+qQPazzwF+egx8A8+P0BxAiGEuHWhrkJ+gt8Sm08RfxLTUljJu1Nxf6IDNn+HW6JZb0sitxHRFZq2Qgghj6DyOrI3EcDoUD96B8egRHrA5INfsyNm5nDoVgrdN3MIpFpnvsqDoop7W6lmiDpaNvJR+DPrcaD+iAbtl09AeeIoD+STlYCBEEKIy91xJdHB68zmXr+rGu1Wy7OiBHNKrLPyoQ8SHWK3FUmmkQB+JtYKDusyKM9BCCGPJhLC/ckwJkb60XVoFLIeObDOrsz/ctAp4dDdFHp+YCB0g7fF+eZZP2S/r4sfmqSHPcaHlfsmMRLkkcHRELS/cQTK2bOQYpTkIISQjxHT/wPdvEG+v6PsZwfZTh3E32ZpDdabHd69ig9HdDgMjPGHJS7En3jsEtBkyOJdpTiGEEIeKaTLGOyM4ORID5IdHe6Czo1uAcU2srpp4FBqA8N/VETkkgQ5+0HTfKB2mhFqTj7OF6+Jwh9ndwjas4ehvvwFSPFhHvXRuhyEEPIxYkSH1sWvW2dERy1VGxsdSBtZ4O/d7YR3p+LDRIflwLLsSrKD+JL4UGkKD5LFl5UQQshjicVJB3uTOH7macQ6ByArjT2bo5sOumfKOPxPCwhN80a57B1oAq0eDbR8tNMtQf3xXuj/2Yv8gz7SUmcqCSGktnjfKZjkV+2X6NhNW+jXEx5uj1g8QVus3yEp/ELnbvxMFQuR8mt6FwkhZHeCmoLh7ijGj55EtLOfxzmNOeutmjKSUzZGv7GNyKwF2aQTDY3U0u3kiA3157ug//UTkHvG+ZOlEyCEEPJQokFQQm1ZVz6uLaxVW3kQEc4H76YpMh2cWOeB+I8jqTDUBCQ94q61QgghZHdEfj+kKRgf7Mbg6ATCnQNgSgCOU79dT2Q46CqtYXRpFh23C5ANHgJQnqMu7o1qxEvc6i+z1GlB+4kE9J8/AfnMSUDjwTshhJBH4C2FDxIdO+1XI9uxWv2tg8gwfPBuuouR8uuDeBCkBiQFjhqFLAIaOnNDCCFVEcmOZCSA0cE+dycWLdEHW9G9o7UltpFNFrcxcHMT3Rdy0PK2d4TU0k48c2+Q1g5xjnwsDvUzp6A8dQZSrJeXUGRHCCGPxIMAKaSDxRwwvXm3dt+pzfdSq9/bFu42eeH31uO+RIc4e8VqlrchjSVBkZXK1BWafkQIIVUTO1Z1xQIYHuhDz8AwtMj9q3fXgsTb2GihiEO3t9DzpoHAtfokU9rNgwK4RkczBx49qRLkIQ3KF49AOfM0pMQQ/1DTwnqEEPJYvEcsdSiQx4qQ4q2zvfu97u0d7ran6PeswAeJDsNisGwbzPH7U2pPIrchSwyKIrm3CSGEVE8s6HyoQ8fhQz3o6R2Eouo1a+hF1aybFgYmM+h9zUL4Jm+Cm/fEka88LoBrRGRzoE2vxv/+gAL1Z3ug//LTkCcO8aCAkmiEELIrvAKXOhVox0uQk6ZX2N5aISNQSXTwZyJGdNCGKz7Gv6CKLkGWaZUVQgjZD12VMdQTxYnDhxDvHYbI/++/feT1sw30LhQx/CcFxK9akIveoQao5uG3YhtS7+d0kOGTozhwhhyovxRB4B99AvLYYUALe0cJIfcyTerEkgcQZ4kVXm9KOr98MA6gZvzWxRaPtxVigQ/eSb+9AeTjxHsohl4TQgjZH5Hs6OlM4vCR44j0jIPJCpw9ZjvEbmaKIaNzkuHEv1hHZN6AVMdlOXYe5b3NQTVNg9/jgUY1g3t9fWtNGXUQ+NkwAr/2NKS+E4Aa9I4QQj5K02ibZfIgYkQ8r8ndDR1qX6MfZBtRLfFY/fR4H+XDlBVlOnxNfDlVHogr/Fp8TwkhhOydzCvScEDFYG8C4xPHoMcP8R7l3jqQmmSiM7OFw+8sIrxarvsOKztNQLs264143uJvNMvrq5xOQP+pk5DHnwb0CP8A1P5sJCGEtDxedzJZzAM8uDq0GdqVVoodPngnLTE2V7yx1En2JfG2KfwiRnTQW0gIIfun8Ao1FtJweLALIyMjCEd4J7JKKix0bmUwfH0N3dfTkO1WCiHaVzO0s47qQH4mCvULxyGffhYI9lXiOEIIIVVjbrdY9KYOroY/6Lal1SKUDxMdPPgSIwFoxw5/o7ePEEJqR5UldEZVTIz0obe3H3oouuvOpCQxxDMFDFxNo+/tArQNHkJQnqPhWvElZxoPyU9rUL8yAuXzT0BKjPMPHO2wQgghe+Z2onYu7WnnmbdKu/lBtCbmHjMx/5hWJPUtMdSa8hyEEFJbom7t6YhiaHQMHX3DkPXHL/Qo4qVQ0UT/jRz63igjeF2BZFMNfRD2+6o33bsmTjiKdTl+oRf6T56EcmSEl9G6A4QQsn/UTgut8irQGMcWIT6QYjSOu+sKfUcJIaSmxLaz/d0d6B0cRbBjgFe4j24+VeZg4EYGfa8VEL5Zx5VHyWPt9/RNs53+kYJA6BclaD99BvLEEf5hi3pHCCGE7B3vQInFSKkj1TIo0dEqxHeSv5vizGPlDiGEkFqKBFWMD3Ti8FAvVFWcVn8w2ZEwcLGI4b/IIjZlQHK8A+RA7KZF9M1YVpU/n24d6k/9BOTRZwA9SUE5IYTUgqSAKQHeiD+8fa+lamvuVpxzUe/nRIkOQgghZBfEYs/xkIpD/b3oGz8NWwt+rJOpMRN95WWMT00htpGHYrZiaOJfDwss/ZAqYGH+KJ+JQv+vnoR09AwQSriBOSGEkP1z2wF3tGb9WwQRGVQTHYif3e2javao497nUe9XmhIdLaTyBXVvEkIIqQOxE0syGsbw0BBCXaNgSpAHFZWKV2wjmyymMfLOJuKXLKg5Hm40OOJo9gDnoPn29Qk4UM7o0H9pCOqXnoYUS/IIjhYfJYSQmmG8NXds97qexG/fbXdt5+eq6d7Vuyu4n1dH/NtGtsOU6GgV/FPDHAaHXxr5ASKEkHajawp6OmLoHxiBFoxCkhWozEJiK49DFzLo/r4FZUEHjMY3sY8LcNqpfWil56qclKD9TA+0H38K8sAwL6CRHIQQUlsO/88UHSrvfu2JNnq3iQjRhjVjO1bvREotfRCFVUbfVvPyk2Yivgi24/CLuNNOoSwhhDSWGNUh1usY7ksiGotDlTVEtw30X8qj/zslaNNihxXvh5tMO7XwLfNcIwqUT/dC++lTkCdOAWqIF1KsRgghteTuPupY/EZ9Eh2i1q6mh9bMtfxee5qNfk4fJDpUSezWwf88tZ3+JD5x/OJ+SQkhhNSV2IWlL64j2dGBmKWi96KB/tdKCE8xSIwa0mbQEq2hLkE+FYfy/AuQxl6CpIgkByGEED/xumktwy9RzoeJDlUGc2x3+gPxr1b7IhFCSDMSO1xFgwpGBxI4erWEke9vIzpb8o6SZuD7dBN/AvIpHfp/chLK5yYgBSPeAUIIIbXHwMRwzDpslUanPw7GPVNXqHvsZ2JlDpNf3KkrhBBC6ovxYMhMo3f9VfRev4PQShHUjDaPh70VfnmLWIC356dsaP/gKNTPnIHc2cNLKVQmhJC6YRakOq/R0QjUUnzow0QHvSy+JoI3ZktwGKMlOgghpJ6YDVbYhnP9PUj/agba1RyUEmWZm8FOJPOwiMYPkY4TdlA+4WD9Vzux9dzTMLsHwFTdO0oIIaT2eOeJOQea6KhV9426gR+qJDp4yy8WV1MUubJOB/EfJpIcPEASiQ6viBBCSO2xUh7O3UmYv3sJ9tcLwIpYl8M7SA5UK7wNRqeMtefDmDrajykzjFRZgkl5NEIIqR/ReNgGv7a8O43npx64X9raD0Z0iIXVFFmhRIdPifSG7fBL/bd/JoSQNsUrVysPZ2YGxh9dgvl763DmeQ/UoHaz3mrVrDV188g/RmZcxvaRMBZPdmE5H8Hc/CLmljaQzpfcExmEEELqQJwozlmwl1Ww/Afd4305yBq73n/bL1HPB++kqvCHzP+jZtSn+BvHbAcWv9CYDkIIqQO7DLY1BeuNcyj9kxmwWV7Xmt6xJvOgIGQ3LUOzBi+1elzN+vwEJ8SQOalh+fk4NjsTkJ0yChuzmJmewtLKJgolk05kEEJIPTi8jVxhMM9H4azVZqrgbtqbvVbpj/vdtUnVVE88n2Zqpj54HcTUFTEyktpQn2I2JLMI2yyL+SteISGEkJpw1+VYgH39TdjvnAM2mzPDsRP8PKgVeFBgJH7u3vJmbT1q8biaumXkb0LxFMPa5zSsPRmEKVXCM0ViKG3OYnb6DuZWUjAsmsNCCCE1xxsIZpQhF1RIluIV7t1u25vHJSwe5nEtwUG1d+L57PU51YPbkooHpLnrc4h7TR0KkIeQmQXN3uJf0iz/9NteKSGEkFpg5Q3Y776L8tdmYP6FDsU+qPMlj1ZtcCWu/dDq7ydwuve5NivzhTwWvxDC0ngHinbIK/1QNrWC+anbmFtadZMdFKkRQkgt8VrVyvOr2vSh6t3eNHN71kw+iNRUWYLsiHE71Hz6E3/f+JfTsm3Q5BVCCKkVXp9aBTjvv4Xy707B+pYFrGpuletnrdxGfDQAbOrnyh+srUuYOz6Mpb5+5LUIf7wfT6LZpoHNVAp35lexmCrBpr3kCSGkdsROK7ytb9SOK41IVFBf8J5ER2UxUokWI/U50+JBOX2yCSFk/3jAw4oZOFcvoPxbN2F/Owss8HbS8m872Q4tvF+aQMYjMDMmYf3lEJaPJZGNRmDjwUOmGW/YzVIBqbVlTM4sYDNbhmlTY08IIbXB61Nji1+JXVfqrxa19+Pa81q3935scT5MdKg8eBOJDu8+8R+R4CiZDmxxw4+fRkIIaRoMrJCDc/0uzN95H+afp8HmHEg+nxnot6ahlZsyOwZknlIx/9kEMv0qbNU78DCOCSu/hdWFaUwvrGArW6JkByGE1IIYyVHecOvZ/dhNjXxvX3s/NXgja3/xt5o+RxB0II8UvTsV943oEM+ikS8aqS0xYSVvOLAp8CGEkH1hVhHO8hysvzgH87dXIa07kBidCmiUnVe6VV9xJ8JQOCZh6QshrI1GYagqb8F38Wx5EM5ya5i+extzy2vI5Mvu1vKEEEL2QSQ6SvtPdOymzbq3xm72Ns5PbbGcNKF+Ysu7V/FBosNdo0ML8pLHnVIgzUrEOoWyzYMeSlgRQsieicXIMktgN9+B/cYFsA0DsKhWbYSdYKqWr3azvXMiX1Y+7mD9SwrmRnthQN9dksPDeEBe3FzC3PQdLK2uVbad9Y4RQgjZA9HuF0Sio/5TV/xQX9ejLX6Qmv7+iAPldNm7U/FBokPXFJTDQ7DUmFdC/EbMWCmUTVhiUVkKewghpHrirE5hGfa5d1H+N5dhvRYFbD+cy/Cve1/derRczfbuGQkVSwODuNt5AgbTvdLqKIqM3OYy5qYmsbiygrJJu60RQsjeMDDDgn3VBsvvvRXa7b98WJvUDG3VzmNoVC+yts9ZBpMC3u2KDxIdMv9LTFH5X/ygiPiN2HUlvwHDoKGshBBSPR7sFJdhvX4Oxr+9A/M13jCWmyH0aJyDeLb1bq2aqTW0YjLWXopg+cUQinFRsvdXnDk2tjfXMD23jJn1Iq3XQQgheyFGceSzsL7TDbateYXV22/7eW8NLg8mIA8lvXsPVo/22tetiKxA0u8fsPFBVkO8WAFVdndeIf4kMQatvAWzXKZ1OgghpCoMrJyD/cZ1GL9/F+Z385A29h7w+M1Oi9GKLUdTRDX8QbAAQ+qHFay8FEJ6QIej7P/VtkwDW5urmJubxWKqkuyg1p8QQqog1j4qbsFZ1wGzOU74s/UcnIVt796DUV3/EZIKfGRmyn3vZlCToYpFSYlPMahOGcWyxYMdMX2FEELI4/FwwSjBOXcL5u/egvXtLWCRtdXio9Ty15HC4CRtZF6WsPhyFJvDYRjag7eR3QuzkEVqZQ7TcwvYzBRhUftPCCG75xhgpXU47tayzZE+YAZNR6yapIJpCe9OxX2JjpBIdNCIDt/LuYkOyvMRQshjicWNrDzY1hSM3zkH6xurwJzh+21kSfNwAkBhQsbCT8SweqgTRSXIS2sYazkWjFwKq3N3MDW3hHS+BIumrxJCyK4wN9GxAofxaxon4V9iQxX9EYmOoK7QiI4WkClaKJt0RocQQh7LLoFtz8G+8i2U/mQWzvr9K3YTsh+MR1li8dG1J5OY6xlGUexuV4fxM8wWyY5NzN65jrnlDeQKhrsTGyGEkMdweLtfWufXB993omp7HyQFkvaIqSsRXYGu3FdEfCiTK6Ns1n97JEII8TXHAssswnrvbRT+h1mwTV5vUo6Y1JAZV5A6HcH0i70oi6lQdfx8MR6kG/ltTN+8hoXldeTLNgXNhBDyKGKnNasIlFMiYywKKuV1sJsUNw032AdJAZSQd6fivqyGpkiQKc/he0p2Hk4xTTuvEELIQzGwzJq7+Kj5T6eBd1QoZclXQQbV8M3N6mLY+oSC2Z+IIKdrjXm/GEM+l8bdxXXMrmVRKNMcLEIIeSixEGmmAOcWrytN3lGu49pc1GbXmdg5VnnI9rKCrkhQJMol+Z1jlVA2TBi0TgchhDyQWHjMev0qjK/dhv16GchJkHxWZbZ7a93Mz9/ut7D1soylFyNIdUThNDC2ciwD6fUlzM4tYHEjB4tiAUIIeTCxPsd6Cdb3QpBLyoEtQk619P5ICQvyeBlSv+qVVNyX6FA1HUyLwJHvz4YQfzEdhrxpw6B1Oggh5OOMLVhiG9k/uAnze5tgm1458ZVmDQxFnJwZDGP5VAfWBpMwmO4daQyJvzJ2cRvbq3OYm5/HylaB1usghJAHEYmObB5sRoJkHVz6XPxlqqb3TkrakCdMyI9MdOi8MQ7E4LgrghO/EmdvCiUHJYsSHYQQ8iEeRthFOMvXYX79EqzvroCt0tB+vzm4UHQX+IMr9alYPd6Btb5uFNSwd6CxZGbBym9ic3kGU7ML2MpWtp2lQJoQQu5hlwEjDWaX+B2qIX0ryNu9DgVS/BFTVzRVgaarkPk18S+Hx+3Fsu3uvEJfWUIIEXhtaJXBtmZhv/427POzwEbx/kaQNK17kxvN2q6JHVasOLD2ShjLz0eQ71EP9sEyB+XsFlZnbuDO3BIy+RJsm06AEEKIi9eRrFwEy6RhG6UDb1wOJInP/2ijn3Z9/p4KpkT4Fb/c474YT5El6KpEW8z6nDuiw3BQNGwe1DRrSEgIIQ0kApr8Bpz3vwHj/1gAzkmQ8pp3kDSrnWjEDy2ZEwO2Pyth5vNJZDt0OM7Bx1KMf+6LhRxmb17F/NI6imVDrFdKCCGEtyxs1YR1oQx7kVeMNcwD71SzTV3d8n4/eL+/0S1VPf4ek1UwNfjoXVdEoiOk0hazfifbebDCKqxCGhZNzCWEtDtmg6UXYb/zA5T+yzU4l3iDWPTPyMV2rsX98tytHobtTwJ3PteFbDAIu4nGCjHHRqmYxZWZNcxvFFA0adtZQghxt5jfLgNzJpS0VtMGZ6czf/Dp7kcQWW+rsa1BvV4PSVYgqyFI/HKv+xMd/K8HNBkaJTp8Tbx9lmG4Z25MGqZKCGlnzIGzsQrrO9dQ/l+m4dzgnbw8b+x8VDU2daBE4KgSsp0RzE8MYT3WDUsWi6E117smkh1mahZ3pucwt5p2R3zSyA5CSFtjJlDOgBXSkOw2bGlFG9DgdqBuf07i7a4cAvvIhir3ZTRkfk+VJbejTPxLkiSULcfdP79sUiRDCGlfrLwB5/YVWN++Avv1LFiJBzNULZIayg/rWHk+jtXROExo/OPVnAGzbOaxtTKLubkFrGxkYNCC5YSQNsYKNpylAthszish9VTXllHS3Gkrknz/lOT7Uhpilo6sBSGpYTCRGSG+ZRtFlIs5GEbZKyGEkDZjFeDMX4X1+gVYby4DadphhdQOU4DisIK1F8JYeSaCQqcMiTV38sApbmNjZQ6zC4tY387BoWEdhJA2xbJFOFN5OHctr4T4EdMdSD38MigD8v3bud+f6BDHg1EgkACT7h/6QfxFMrIw8ykUiwUankoIaTO80nMMOGt3Yb12DuZfzsG+5R0ipBYUBrOfYe1TASy/GEGmiwdXPmhsxdpzRn4La4szmJ1dqOzEQmt5EULaUW4LbJ1fUq07leFxtXsja/+6/a2IDemIBeUM/wuPHtEBaJrqXiQxj4X4WrFsIVMw6YwNIaSN8PrOMcGyi7C/+x0Y/2oD9g/CkMu0wwqpER4eOWEHqS/JWHwpjq3uCG9n/RMziVEnpcwmFmdu4s7MEgplHidQsoMQ0m5yK0B22bvTmh43XaQ5J1pWR9EkKFEdUjTCn9D9M1LuT3RIEgKK7C5IqtAWs76XK9tI5XnA790nhJCWJ3ZYyaZg/cX3YfwfG2DXGGSbEvekdkROo9ilY+bkEDYTHTCZP5No5VIR03fuYHI5hyyPFyjXQQhpG4zBPp+HfS7vFRC/4lEeIBYh1aKPH9Ghq7J7kcX4RuJrrLgFM73kjuwghJDWx8C2tmG/dh7l/+8UnMsGIHZYIaRGxLocpS4Vkz87gK14BLYj1uXwZ4bAEdvO5rcxdXcaC2tp5ClWIIS0CXeh8uksnNnmrb8p97w7DAocOQKoUa/kQx87zaUpEnQxooMSHb4n2QaMYh7rWR7sE0JIKxOLQPLAxb5+HcX/7SqcS0WwLC+njSVIjThBhsJhGYs/GsHKsQjKmuLvNbD4g3d4nJDfmMXM7CxWN9MombRgLyGk1fGKOz8Le3sTTrF5K3Ffj0UVD75BqQRJViGJ0Rxa3Cv50MdeQ1WRoOli+EeI5my2gHKpjI3NFI9n6L0khLQqXr8ZW3Cmb8D67nmY398EipViQmqB6QzlUWDjExoWX4ijFFTAWuF8kEgQGllsrcxhYWEBaynadpYQ0uIcCyw/B1be5P2j5q3v9hvCHEgIpMmQxxOQj/IGMtqgR+AlOqTdJDo0WYIaiIAFE7SIZQswjSIymytu4EJvJyGkJVllOPNTsL5zGdY35yC1cUfNr9V8sz9uKypj62QQS88nkI6E+eNtrVGvdjGN1cVZzM0tYDOdh0UnugghLYmBWXmwmU2wjaJ/G81dOIhWShLLX4zEIQ1KkEJeYZ1JvbxF7tcANeKVfOhjiQ6xCKkeCEENRPm/bK2GvB05lolSbhvbRRs2ZToIIa2GOWCbK7D+6gbKv7ME8x0FitO+bZffnvnO423mx81UCdneCJaHBrCaGOBt6f2rureKMo8VlhdnMT2/hHTBpJMjhJDWIyq28ibMbzlwriuATX3dWmKmA/tuBvb7DCzlFdaZ+nwZ6ksWoOheyYc+nuiQJAQ1GWFdhqp87DDxGcdmKBYZNjIGnaEhhLQYXqeZaZhfPwfzt2bB3rGgmBS07EUjWoedd+bev+WHVik/qGLmix1YfjYKZrXugp1iimsun8fs4ipuL2VQsmxKdhBCWguzgcIi2GYaUt6CTHVcbYkZBIsZIMNfWKtB8VgiDCRjPMj4+EmIj2UyxCAOXZMQ0mU4Ds3T9DvGv9CmmcV2ag2GYdJ0JEJIaxDBSmkDbP7PYfzJNVg3cgCto7hntQxHPvq7dlqdnesGhT77JnZYKRyTMPcTMWwe0XnM1vrtp2yXYaRXsTB5E7eXsigYlOwghLQKXpnZNuwLaViTZTjZ1unnimq6aapq0Wg08MFIehekQJd3734PHLIhRnREAopvghHycOIMjWUaKOYzMOnsDCGkFYjpKqUUnJl3YfzWNdhXsmB5Ssw3i482M36MJZjKYPY5WPmSirUTERQjWvMEkfUkggSzhGJ6BdO3b2BhbdvddpZiB0KI74mFR80inNtbwJIJFFunpyueSdv22wPdlcsDPDjRocqIhgKQtLBXQnxLDNFRdch6DJKseIWEEOJXDKyUhn3nFsq/dxHmH5aAFV7VtfG6HKT2rJCCjaNxLB7vQjYagt1W7acDZhWQWZ/HzMwMVja2UDRad8oOIaRN2DZYOg3r5iqQMiC1wSjQVs9RS102pI4IwPu5D/LARIeuygiFQkD4wdkR4h+SLEMLhhDv7EFAUyHTArOEED8Tq6XPTsP++iUYX9uAc1uDVJRpBCKpGSssIz0WxtzZXqQCnbAkzTvSRhgDM4tYX57B3NwcNlJpmLTtLCHEx5hpwVlagX15Gyzb+lkOkeRo9dhIPmVDHuFxoBb0Su73wESHLIudV4JQoyLRQeGjn4n3MhRQ0RvX3QQW5TkIIb4l9r7fWIT9+lVYvz8HaabSARXTDJjqgMn8muo4sg8Oj5Wyh3UsfiqOlbNROGp7f6DsYg6rC9OYW1hCKmfQOl+EEP8yinCmbgP8P+T9W7fvthZ+1DOs97NvVEuhPKVDGuUNt/rg3dAemOgQTz7AO8WdEf6P2ruN9z1VUZEIR9Cf0KHK9GYSQvyLlTdhff8OzD9dgrMuQerhTViPBafb5BfeCUvwa5U3r6Kqe9SFkAdgCkP+uILlz4ew9EwEjNF0DcEo5jG9vIlrC9vIlmjFX0KID4n1OYppYOp9wDK8Qn/abRjzsGSD+Pf1TkQ0LNQK9gN6kv/BB08vlZhYrfIBMvkSbk3N48aFt3hj36i8DKm1WEcvjpx5Hk+Md9NoDkKIvzkG2PYm2OYKkF0HK2+DmTketGTdi3MXsN8PwFnlbZZd4BfTvTCHXzMTkridtuHcSgBlWrOI3K/0XBnzn41h/lgvMmqcB4LUaH5ADSDcOYCRw8dxerQH4YACOndCCPENI83jg8so/OLXwZYcHht45T4jeuT7qXp38+/3+zcaSf+vn4T+1VcgHxnnD/rjj/qhiY5C2cTMwjrefvs9yDyAlGjfPt9x1DB6Do3ihWeeRG/iwXOXCCHEP3hz5VhuwgNOuZLEEGfd3dv8krXgbNpgBX7bKvKyEr/wa36biWujALZVhnMxBJbn/87m9y2REBE/U4DEf681pYJNh4DtNlyXoc1N/0YUc88nkQ5FYLMHD4NtWzyAlPUwIl0DmDhyHMcGOxDUaXc+QogPiJ3aclOwvv8qcl+5DaUkV3rz5GNEne6Ll4a/hfKEgcB/8QrUH3sFUv8gL6wi0VE2bSyuZ/D62xd5QLjMA0nTO0L8Qov2YOjwMbx4ZhwBjc5eEkJaFW/GxLBUZlcuIhniJkDENW+7xEgQd3SHAZRMOKu8MTTE/dJ9iQ6R+LDnGdgcP77Ff9bM8X+e5eV5finDWZJgzwTBNjTIjkj+2xDLM7qNqGhKbfF7eYeQdoDxD/5WORqw/lQCd36qA6nhECz2wFm9RJIh6yFEOwbwxJkTGOxJIKRTQogQ0uSsIpybV2H89rdR+J83odrNm+gQ0cPDHpoor3d0UYu/0YjHCd70aJ83of/DT0N+6UVIsX7vwP0emugwbYb17TzefP8KiuszPF7093ymdsNkBcneIRw9dhInx3pptxVCSBvjzZzb1HkXcdtNjIhLJSnCdkaKlEywosmvC7whTANGhgdJOf4jeThzNuxbKpxlCTK/DzsHWyRQ3BEm/N9t8at5HXJW/BmRcLH5n6okX8SoSOYwMIPXxVs6/51UJx84HutaESB7XMWdzx/C2lgERlCcFBCfE/JgEpikYvDwcRw7chi9XQkENdr1iBDSrHi7W1yF/er7KP0P78J6owiZqvi6Ei9v3dsEjf/3FRX63/88lCefBgKd3oH7PTTRYfOALJ0r4tzl61ifvwPLKHtHiB8wPYLB0cM4ffwoBrpiFIQQQsh+iGSGmB7jjv7IgRnblUSIO+Kj6CZC2KID+5IOtmbx+/zn+M8zb/qM5PBry4Kd4vXzVd67Fiu+fyQZIhIvrMjL8ypg0KiCerOjDPkTMmZ+Io7F4R6UFf7eUWu5K3IgjKEjT2FibAh9yaC7gD0hhDQd3raytVsw//QNlP7ft4Fb/qzjd5M8EMf3k8PZ779vGPFAwwz6r3VA/80vQj5xAlB5XPUAD010iNJcsYTL129h7s4tGGUetBHfCMT7MX70GE5MDCMRoqGlhBBSN+7IEG9qjFOqJDcsfnHXDinw2/nKxSjA2crDuaqAZQ03OQIj644acYwcZFaAeUOFczkGaSXk/V7RRDtgZd6yi6kxrnua7Xtb8Ae25uRhCicYln9Bwe2joyjbIf7y7by+5HEcSYWaGMLY+GEcG+1FbyJArx4hpPnw9tg+dx7Gb72O8u8uQ6b1t3yPaTwmOmQi8n/vg/rFn4LUf0Rk372j93tkoqNgWLg6k8LU1Ysw8hu8kAdypPlJEjp7B3H02HGMjxyiMy2EEFJ3XlPqNqnexS3amSLjXcQUGZM30rYYzbEz7cXgh/i1GCmylQfbLAKZDFhpHazI297yOszf7oQzpcFx+L/lF8UbAWLzdln8WqmoQBYLrJFdsXUZK89HcO2rXSgEwpTk2AtZhZYcwvjhI3j6aD9COq0FRghpLqywCfPPvg/jn7wH5/uizW3Nul48Ky8KeSBxbN/PfOcXPOoPNUKABz3HSoj8b8egPP1lIDrCH1uV28sKZR6M3V0p4Mblc8hvrfDAjKav+AHTdAxPnMaJI4cx0BmlLeAIIeTA8abWbW13mlxxX9wW17zRdq9t3gO3wUxx7a0Z4iVDnEUZLFeCWCAVZgZiqzxxLRZLZdslOFc1OLcU/isKkMrbcJZMOMu84S9S8uOjjKSMlWeSmP2hTmyOa2ASvUZ7JakBxDsHMDZxFEdH+9xkB8UchJBm4dy+CuP/9waM374L8GaT7M3jEikNFeSP5biE6P/5LJRTn+L3e3nhgxueRyY6xIKky1tlXDr/DtIby7BNSnT4gRYK4/iZszgyNoZEmKatEEKI77mjQXZGgIgpMeJSmR4jFk9lKwzOmhgtwiO54grsG7zNvrYM65wNNq1Bop1gXHYE2HgxhNmXu7A2Foep0euyX6oeRrJHbDt7FCMDXQjqKiU7CCEHj1mw3/oTGP+fSzD/kLeXLarmSQhZhqTz36k6YLmHpRAOUFCCdDKIyNc+A/noWd7xTXgHPu6RpzFEQxUJKlDDHbwlE3NfqOXyg2CsC4lYDGEaRkoIIa1BjDpQeDusxYBANxAeBGITQOIUpP4nIT95BupnT0H9/FkoX3oZ2i+8Au3XeNlPxiAdN8AUMWqE5J5hWHkphK3RACyaql0TlllEZnMFs9NTWN1MwzCt5jnzRwhpW0wk/c8vwJkSW6G1rlrVtx/+Hu9Wk1bkkiJDjoaAUP9D1+bY8ZhEh4RIQIEW74ekhb1S0swcWUW8ewixWByaSompB7H5F/ftTdu7B0zlqANACPEzXtfzuh8qb6cDnZCi45CPPgf1k19A4JeehPbjUWCgves5JkswYhpWfjiM9cNRFPUAj+GojawJxmCWC9hYmcWdmQVsZgowLKdZY2RCSMvjtY/YNn7+OqzXsrBv0fTE3figRRRb4Zd4zJBv0iEOYQnqWR1SrIvHPrpX+GCPfOcl/ux03lmOR4L8mv8oxQRNTcwzNoNxHOpNIBZ+9BvfzhT+OX6p68PRLoejVAESclAc3qCavFMkOkaWzdytzR8xo5LsCq/keOMvhYegPPkp6D/+MvQfDgFtOpOR8SrejChYeyKO2cQwcnKMkhw1Jr6zpmFienYedxY2kcqW3e8zIYQ0nJjqaaRhv30H1kwOjti1zCcOutb0wysldUvQfk2FFA/yO4/uwz22hydGdSQjKgIa/4UUGDQ1WVYQ7RxBMhalnVYIIU1PJDVSOQOTS1ncmE9jbj2PTd5BKhi2e4zUQKAL0pFTkD99Cs6IArThjEYrqmDzbAS3fr4XxW7NTXyQ2pPgIGCksDA3hZmlDWwXTEpaEkIaT+xklr0D69UcpHneP7L9U+kfdE/bFzW2GnKn7UJ+/PzTRy5GumMrb+Lcu+9geWEWTGyNR5qOeBclRcPY6efw1LERJCJBd0QOIYQ0q6VUARcvXnJ39hJNkSJLkPlF4ZWXExuC1jmG7ngAXdEAklEd4WAA4RC/BHXomgz1np+X3ItIzovfXLlNBN44lDJwZi/D/Is/QPH/KUNKqW2zOKmV4DHM00Hc/fEurHUlYIshfaSuHElMoT2EscMTODLSj3hYp9NkhJDGEKM5Spuw7/wHFP+r23B+wO9v1z/DLzrTVM/VH1MZpBd6EfvzX4GU6OVB36Pf210lOsTwwx9cmMTc1G2guOmVkqaiaNDj3XjyqWdweCCJkF7dGOWdDwF9SQkh9SZane28gXffO4crF89he3PNO/IhpkUhBePudpUhTYHOL5qqQOUXTSxEJRIcioJwxyDCIR0BflwNhKAGEwgEgwjyfycuolzjnVtFriRGFPd2JTkifkdbJETECYrsLOyLf4DML29CXuaBQhskOpwuG9vPyZj/oSQWBvtgiHVMqJWrOzdpqYeQ7OrD2Ng4JsaGEA604VAiQkjjGWU4czMw/9m/h/GHabB5XmZSvd9I9Uz6yEcY1K/2I/if/12AtzOPC+J2legQ3ru1gqnb11FKiU8MaTZuUNE/irNPPYHeRMgN7HdLzI3PFk23UxAOiClKhBBSH6LFyfD65v33z+PyhXPYWFv2jlRPkmTosR4Eeb3lJj+0AK8LI9D0AAIaP6bKleQIrw9lXi5F+nm7GHZ3pBL1nUiiVJIh/Gc1flskS/jPqvx3uUkRfmkZ5Q04k99B9scvAYsWpA/XY25JrNtC+lkViy/HsDjegTyLeUdIo6h6EJ3dfThy7BhGBvl3j3+vaKQVIaSeWHoT9uvvovQPfgBnljd0xq66ueQjRFW911eunokO5UUdgX88AfWnfgXuIuyP+Uu7TnTcXUrh5vWrWF+YpoaqyTDICITjGDp8HE+dnEA0JPaw392bJN79jUwJV2ZSONQVxuH+eGXhWUIIqTFR35RNC1cmF/D6t/8cm+sr3pH6Y3ocTmwUaiiKsK4iFKgkOkRyV5xt3rktpsRIwQT0YBQRfj/I7wdEQkQkQVQFsiy7o0NEEmRnukzl8mGd25RNpJnlQd/7yH/+O2ALZaCVEx38DcifdTD/pSQWjnYhK9GucQdFC4TQ3T+EE2eeck/CiPXDdhmeEEJIdZgN+/YUjH/yDZj/yyLg083G6pko8DMpZkH9fBL6P3oByis/wgse31/ddaIjlc7hytXrmLp7GzL/IJHmwSQN4WQ/Tjz1DE4OxnkwzgMJ79jjiAX/rs5s4s9ev46jQ5349NNj6O2M0heMEFJzJcPGwnoa3/yr72B9YRJWueAdaS7FyBik6AA6ojq6YgF0RwPojIv1QXRoupgmo1Wmyigy9EDQTYSoMm9w+UWSVX6lgB9yE87iItpi/v8fJkXcv1K5UbndAFYezvxV5D/zF2ALxco+262Iv6BiXY6Fzycw+3IXtnpCcHiw27DXmdyPf/iVYBR9R87i9FgvuuPeLn6EEFJTDKy8BfObF1H4zW9BXm7PvmorJ0mUk3lof60H2m98EdKhl3jJ45/prhMdubKNq5NzmLx1C05u1SslzUBReSDeN4Qnn3sB/QndW4zv8SpnV218661ruHbuu5C1CJ5/4UV88oXTrTVkmxBy4ERSdWkzh6+/eQvLF/8StlnyjviZhM6Rk+jpiLujP+RAFHKkF6FoDBG9MkokEqyMHtHd9UXEVJoPp8WIkSHuOiGVX1Xf4MTKgc1dQvYzfwkstu6IDicAbHxJweRne5Di74vlPH5VdlJnsgI51IHxY6dwYrQfnfHgrkedEkLIrjgm2OZ5GH/0Ggp/fw1KqU33U6+hZkuaKM8x6L8+BvVXvwApdswrfbRdJzrKpoM7s4u4fesmMhtLXilpBnq0C4Pjx/HCExPuMOvdEh2PTL6MP/jTb2Jp+gbveJRx/MxZfOqzn8dQFw31JYTUhpvkSBXx3pW7uPzGn1dGcuyu6Wl6iqpDcdceEJkKMWpDgSQSGO5tUSRGdfAfDCSB7jMIxhKIBDVEgyriIQ0xcQmLa9WddigWkhZrhohkyL3TYfbN2IZ99wfIfuldSIvlllyjw04w5D5h48YXBrCZSMKUNR6oNVOY1sZkhccqnTh64jQmRgbQEdG9A4QQsn+suArrrddR/pfvwfw9G4rtz7p/v8kF8W8bFV018m8JyothaH/7JPRf/jQQ7PNKH23XiQ6LB6ozK2ncvD2N9blJyKzoHSEHraNvGEdPP40TQ51uYL1bYhHShdU0/uj3v4b01gaYY6Nj8DieePEz+PSTh2h4KSFk30QDs5rK49K1W7jw3pvIpRq3LkdTEfu9BxKQVf3DBU/5tVhEVdwWC0iLazHSI9wzipGxCRwf6kAsKhaXrkFdXN6AffMvkfnyDchLZsslOpxuC9lneJzyuQ4s9ogdVgKU5Gg2sopkdx8OHz6CseFDiIb0qmIWQgh5IGaDrV6A+QdvwPhnM7CvaryD6x1rIPEnH1SlPax8L8TvOYCnduBYzIL2C3EE/vYzUJ79LKBGvSOPtuvoSZydCoWCCEeivK2ioaDNQlJ0RKNR9CYjVQcMZcPEzOIqSoWcm+QQslurmJu8ipWtIpwWOeNKCDk46WwRN2/exI3L59o3ySE4JlDcgJNdgrG9iMLmPDJrc9hcnsHqwhQWZu9iZmoSd+/cxs0rF3Dure/jez94A+9cncPqdhGmtZ9V1XhdLv6+meY3LX5prbqdqRJyvUEsn+zGSn8PJTmalWPxGGMd8/PzmF/ZQL7cnnPoCSG1xXJZWG8uwvrOFtisfCBJDuFhrU4tW6N27ZmJNcXl4Si/dAJK0Ct9vCoSHXDnG8fCKrQqpkeQ+tLDMSSSHe4Q6GqIOLdQKODW9SswTR4Ae6zCNlJLd3Fzdh1Wqy5WRwhpCLEG0PWZdVy9fgsby3NeKXkcM7eB1ZnruHj+HN559128+945rKe2eZ28x2SHqPAdg//iDL/dep3L4oCCjVMxLA/3oIAIJTmamG0aSKU2ML2wgqVU3p3WRggh+8FW5mF9exnWm2WwjOKVklYiqTrkaDcQ7RF3vNLHqypjIdZ/iIaC0EMRfo8CiYPGZBWxZBcSyU4oSnXvh8kD5q3tDBbvXIJt8QD4Hvl8Hrdu3UauUKYghBBSNVFriETp7FrWXZdjYWWjcoBUxTYK2Jq9jHe+901cvjWLzUxpjyPtHP7LypVERyudD5IZrE6G1LMBLL8UQaZH40+P2qxmZ5SL2NxYw9T8MjazZTqpQgjZI1532EXY52/COb8GrDUmkf+oGmvnGNVqNaYHgXAPpEC3V7A7VSU6xP7noVgCcmIYbBd715I6C8QRSXQhGhXTVqpLdKTzBmZWc969+9mlDNIz5zA9v4pS+cPRHoQQshu2SKRmS/jWe3eRmr8KtcQDELIv3zs/havT6yjuZbg/c8CsElDK89uWKKiU+5wTZtj6PLD4Q2Fs9kThMIpL/EARuyPk1nndcBNXplaRKxp0UoUQUj1Rl2xNovhv5mBd4+1bgzyqx7VzbLe9Mqr5dkfqCvFLN6B3eCW7U1VUIBZJE6vFd8RDlVXkm5yiKLVdtb7JRMJBdMRC7ntSzbN0eECxul3C5Zltr+TjyqUi/uKP/y2Wllfc0R+EELIbosOylS3iO+/eQOrm92DzDg3ZP2XzKqbvTuLuSq76TqFjgWUNWFdVQGy5x1qgXeRPIfOijNmz3djsTsBmNFzZV5gDq5jF2t3zmJxdQjpXcmMTQgjZFdGu5TZhf+cNsJktsKI/64/W7aXWlvZzUSifCPMXrLoTGlWf/ogEZPTFecfaBwkE27bdZEcrsnhQF4wmEY1EEFCrey/yZQubK3PIzbztlXyc2IynVCrixvw21tNlUPxBCNmNTL6Ia7dncPfi92AUxOKXlCitCcfE6vISFpeWUTSqHNXBeECYMmF/Nw65qELyeaKDKRLKHSrmTw4gleiEIdFWpX4kFkE3izksTt3G4vIKssWyd4QQQh6Fd0qsHNjaTRh/ugZpxYTcBqHGbrtij2rhxe/YdZeuSUIF+bkU5FO9kJI9XsnuVZ3oENNXOmJhSNFD/F/vfjGQg2JZYphu65E1FfF4ApFIyN2SsBrbeRMbWxk4xS2v5OFuX3kPC/NzKJZb83UkhNROrmhhanYRl8+9iWJm84PdnEhtlLaXkF5f5K9zlVMKxQKkpTLYhuz7bWXFwI1yt4T5n4xhdSKGYlAHa4URKm2KOQ5y6U1MLaxjaSOHokGJUULIYzgmnI1NWN+dhPleEcjyrvuue+/+9bCW7qNP/VEvhfgdu24xxfQNjV92/Q/qQ3k6AHmoD1Ig4ZXsXtWJDneP/2AAHT0DkGUaKnogJMndbaUzGUOUB3nVTCMSQ543tnNYS4lF6R5ve2Wad1wWsLqVp+1mCSEPVShbuDs9i8sX3sfa0qxXSmqJGTmU8hnkSlUmnsXWsjYPBsW1j6txFmAoDzNs/pCG+ZcSyCcVOFVHMaTZ2LaJrY1VzC2uYHkzC2NfWykTQlodK6bhTN+B+e0ZsCUHrM2XE7y3G1jLJv6DcwiinT2IZIfMwGIm5GMDkLq6AKX60Zt7ChF0TcFQXwyKxv9gC6+B0azEtKFwog+dsQhCenVvodjucXN9Fam1Ja/k8eYWFjG7sIRStcOlCSFtQeyaML+6jUtXruLurateKakHsWZSqaqz3jzsEQu2mXkwW+yw5d9Mh5mUsfV0AAufjSIdDMOhRdFbhlRKYWN5FjM83thIF2hxUkLIg/F2jC0uwn79OuxzacglBomqiw/s9MqreUke9rOSxY+Y4ugB9fU1BjZRhnx0GFIszh9G9W3+nqIEVVHQnYxDCiXBZM0rJY0jo6tnANFIyB1hU41CyUR6bQ7FjRmv5PEyS7cxf/cmljZz7todhBByr+1sEVduTGJuftErIfVVRT0sftQd0ZGDg6JX4D9MlZA9FMbSkV6sxvv4s6CTLK3GzG9hfWkWswvLyBQMGkVKCPkI3vEtrsF+bxLm76wAdyO8baO24EGqeVUe9rMf1MDuFuAH8DoHAfUpCfKRbki8z7uXx7CnRIfoXEdDQXR2dEDTKNHRSOKjJgK8w70hhPXqpw5tpLaQyT54W9lHub2QwhtXF6pfBI8Q0tLEmdcL1+9g9tYllNLLXimpF9H+alWty8RbDceAZBWh+HhGQKFfw/LTCawcT8CyaSRHK5KYjXJmE0szk5heWHOnsFCqgxDyATEFc+Uy7KvXYN4+mAatVeukBz2v+9IKB5B4liQVanAAcniIBz9hr7Q6e4oWxNSJgCYjmYhDCwR5AQUdjaJoIcSHTiIWDUNRqs9s3Zjbwvxa9YkOZBeRmnofF27MuEOn6UQLIe1NnG3NFk28dWsD1y+9h0xq9UAawnaj8no/oFWT5GZgWRv2nAVz0+ZvnFfsI6UxCXM/EcXKcyGYqgi+6HPWqsQCxrl8Fjen53BnOYt82aZqhRDCKwdeF2zfhPEX0zD/qgi5fAAjDLiD+av797hqtJrn1YgqmakO7KQD+UQ3EOkE9jiDZI+JDh5sqTJiiQ5owSgkH+y+0goc8TqHYujt7YWuVb/Fr+iUZFanYWTXvJIq2AYy6wu4dvE9LKeKsBxaLIyQdiU6HmKHlZuz67jw+jextb4E22rz1cAaRJVlXv9XN6KDbUlwbumQ1gK8IfFPmMZ4k2eM21j+bBBrJyIoRPQPF0cjLYtZBsrbK7h7dxpLG1nkDUp2ENLeeDtmpGFfvQ7z3WU4cxaty1Gljzad+3n5GtEMS5oEtV+D8nIXpFgEe93pdc9DMWTeyU7GIwiFI5AUhTdC9ImrN0nREIzE0dsZd8/qVftBm1zKIrO1ISbCeiXVMctFrC3N4fzVSeQKZXrPCWlTRcPC/NIqLrz3Ftbmb8Myyt4RUm9iJJ+mVtF083qaFR2wDQapyAMFn1TbTGWw+mysf0HG0lNxZOMh2HsPWYiPSMyBzOOU9OocZmfnsLqZRtGkLe4JaVu2Bef6NRh/PA9HbCeboYz3fj3oFWymV1UKypAHopAPjwKBva3PIew5ahCDCRIhFdFEB5RA2C+xk2+JnIKq6kjEEkhGg1CqGM0h/q1hOrh+8xbS6bRXujdGuYTrl89jbmXT3U6SENJexLz5xeVVXL50AXO3LoDR6K6GUbQAND3gJrp3jdk8SCyDWSWvwB/ssIz0kSDmXuzCViIOkxY+by8iQWeksb40g/n5BWxsZd1ps4SQNuMYYNklGH9wCeafZcDuyJAMSnrvqGVy4qN9+YPs20udCpTnI0DsMCBXv63sjr0nOvhFbG0a7ehDMJKELNOHrp4c/lapWhDxeALRAP+SV5HosHnAsJU3sHb7HZQy617p3ji2icL6FC5eu4PVVBYWBR6EtA2xjezqZhaXL1/FtQvveKWkUbRwBwLRDqjV7LYlEh1WkV/2NpLvIDi6hHx/AEune7GmDsGUAt4R0lZ47CJ2YlmZn8b8/KK7u5ND284S0j6YBVbYhHP7PZR/dxWYsSHRLiv3qXWNeO/vO8hXWh5SoX05ASnQwR9I9Ztv7NhXdkJMX+mJ6YiENDBakLSuFDFtJZxAvKPTXQi2ijwHLMvB7HoeJr+ulclz38at23eQyhleCSGk1aWyJbx38Rpu3LrtlZCGCnVACXVCrWbXFZHocIqA7ZNEB2/bCiMqlj4dxfyLMTji8YthiaRtlfPbWJ6fxvTMPLJicVKvnBDSyvg33czBmZ+C8W8vgW0XqC14iFq+Kk2RRhIPItgBdD61rySHsO/sRE9MQ6zrEBDp90pIPYg52cmoht6Y7iaYdkvsjJAvm7g1u4GyyQPGGrpy5Qqu3byDbJGmsBDSykRssZ038YO3z+P29YsoZze8I6SRtGAMgXDM3WJ21xwLzMyDWVmvoHkxhbdXTzlY/pKOpbNRmIxOoJCKQiGLmaUlXJ7ZRrZg0cgOQlqdXYY9uQjjt66g9DtFyBkZUouvRr3XZ1frV+WjtWuja1vlOQfazwUhdY17JXu37yhCdMC74mF0xMRCIaRetGAI8XgU8XB1q87aPBjIZrOYv/wqrHJtz+jlUsu4MzWDu4spCjoIaVE728j+4PICpu7cQmF73d0CkjReUFcRCqhVJTqYU+YNQQ6SXfBKmpfVIWH9bBgrp+PIh4I8uGrtoJbsHrMtFNMpLMzdxq2lLWRLFq+bvIOEkJbDMqtg16/AeWsKckpqiykrtarS9vtK7fz7ncfT6Fde6uqENDoKSQt7JXu370SHePIdsSA6O7sghbvA5P0NMSEPFo0nkOzshl7NInScZVnIZjIobi3B4YFCLTlmCWvzd3Dn1nWsbRe9UkJIqxAJzK2cifcn13Hz8rvIplbcdXrIwQhqinuRqxnRUbThLDuw5/e2NVsjbRxPYHm8B+loHDYoliD3YAzMLKKcWsbc3SnMrmbc0aQiEUsIaTFGCvb5W7C+fhfOdROSj7ZF349a1WbNkjDZky4G6XAC0qEBoAY5hZqMC42HAxgc6MXw+FF0HRqFnuiDogchKap7Roa2Id0nPYp4Rzc6knGvYPcKRQMLqynvXu0VMxuYu3MVV65dd8/6UtBBSGsQ3+WtXBk3p5dx4cL7yC7fgmM0/6iAVibWZwpoSlXBBys4cBZkODNNOuqSPxknCKRPB7D4XBKp7jhMh3ZYIR8ntp2VjDyya/OYnp3D/Po2JTsIaTVWHs7qFVivX4X56jbYhj/bg73USu2Rznk4JjNI4xqU00nI/Z28ZP+vSE0SHQFdxVBfB86eOowzZ57C0JEz6B4YRqSjF1o4AUnVAYVfqllBk7jEIq9aog/xji7EgtWdkRNt/3Y2j9t35+qabEqtr+DSuTdxa24TxbJNw0kJ8TnxFc4WDEzOreL9C5eQuvMOHIsWHj5owYCCoF5ls10q84bAgJTe+/ZsdSOSHGGGwoSE2Z+MYf1UAIYYqUodV/JQPBB28thcvusmO5bW0yiIBUrpI0OIz/EvsdhlZWMGzjvvwXpnFvYS7exYD4+rLsXxg+ixsyCDcjrEL12QEkle0iSJDvEwxJSKZFjDeF8cr5waxLPPPodjT77sJj06+0egxXuhBEKQFI3/A/FnKemxG44SQkcigUSUv/HVDFfmxJ7z6dQ61qcueCX1k8kV8d13r2FpIwPTovn7hPiZYdq4s7CJi5cuYW3yXa+UHLSwt0ZHVcw0f0O3vTvNhWkMpUFg5adVrByNwgjQdBWyO4qRx/byDGbmZitxB211T4i/Mf4dLm3DPvc+jP9zG+x1FbLt3zah2l5urXvFj0pmPO5vieMHkTtWe2yoL4chn+7glXzEK92fmiQ6Pkp0yLuiGk4eiuCZEyN45uxZPPn0WRw+/hQSgyf4Y+8Dk2lf/N2Q9ATiiSTCoSC/U93XYD1Twtx6Y7YUdIwcstNv4/0rk9jKFOjsCiE+JToMN+YzuHD+fSxP1j9JSnYvFFAQ0qsL/JiZbdpEh63LyPSGMHOkD0U5BKc+IQlpUU45h9TyLKampjC/WaTRpIT4mVGCfeM9FP/pDKx3DLBceyW+a1193dtjfNDvbs7qMgApNMKDHbE+R23WFatbVCG2QFUVCZGghp5kGIf7Ezh1ZBgvPHkMLzz3NI499Rw6h48hGI7A0UKw+CtOneMPiZfC4h2OSDSIzlgQYR7cVpPmsGyGhbWMe1a2IfibZ5sl3L38Bm7evI1UOtukXyJCyIOI76vB65xLd9dx7q3XsDx1DbZFC482E02RofNLVawcvzTf1rJ2UMbqmQRufXEEeTlKSQ5SPR53WKU8UqvzuH3rOqZXsyiZDsWShPgK/8Ia23DuXkL5v7gM9lYRSFeKSW08qP+4U7bzMjfDy639nA3lbA+kQLdXsn91jyzEbAsxrUWchUpEQujtiGBkoAvHx4fw5KljOPXkWQy7a3qMIpzshhRMwpbDsFt8r+THkcT/5BCiyR7EIuGqg1uxMOjG8jwyy5NeSQPw6KKYTeHyxfdw4/Y0trIGBRyE+ID4mpYMC7fmNnDx3TewPHMb5SLvIJOmUYqMQwp3Q1WraAuYDVgFwG6uXbGsuISNZ0NY+uEYtg/pcBhNWSF7xByYvK7aWl3AnTuTWFxPo8jrMoo9CPED/kU1M2Art2C/+QaMd7eALd5utekM+IOotnZ6283Q65af5HHOwCFACXol+9ewUyjiBRQzL8S0lqCuoCsWwHBfJybGx3DyyGGcOH4cYxPH0D9yBMn+UYSSfUAg5v3LNiRGxOi6uz5HOKhXtT6H+KJsZsvYSm3Aya9XChtobXkBVy5dwK3JO8iXa7ulLSGktkR9UeTf09nlLZx7520sTl+nJEcTkqL9UENxqNW0BY4Btsw7fYteQRNwggzZMzJWXglh82gQjkI9UrJPzIHF66yNpRlMz8xgbSuLMq0VRkjzs8twVudhvXEF5p/xhirPv7dtvNxOPXq8vmhhVUA+5kAaOQlEevkLUbv0RMMSHQ8ipreIKRmDnUFMDPfj+MQ4Th6fwPHjRzF+5AT6hg4j0d0HLdoFSQ/xfyAervgYtH7yQ+JvshKNoysRQEiXq1qew3YY1je3sZU+uOHKi7OTuHL5AqYX190pOISQ5iPOeuaLJmYWN3D+4hXcvfouzHLJO0qaSTysuSMjq2kLYJfgTMqwbzTB1rISAwvYKJ8xsfpDOjaOhFDSazMHlxDmJjuyWF2YwuzsAtY2MygZtBsLIU2Lf2edjWVYb95A+Q/mYL6mQbZav3/XaLV4RetajfLYABEG9UcikIeHeX8/6h2ojQNNdNxLrOeRCKsY6gzixFAHzh4fxsvPnMaZZ15C77FnEesbRiCShMxfAHe7Wllxt15t2aQHf45a91F0xqMIaNW9TWXeuG8uzyK7ueyVHIzFpRW8+/5lbKbzbvKFENJcxBDvqYUNvHPuPK6/96pXSppRZyyAcLU7rlgFOGs8mFzTvIIDpDGwsTJSf13B0qkuZAIxHjw1TQhCWoQY2bEwdRN37k5jeTMLg0Z2ENJ8xA4r+QzsNy/C+DfXYf15CVKWkhwHYTe9s3q+M2L3NWeAd3s/fQpSVxJQajuVtemiDPFiiuUoROdenMGa6I/jU6f68Mpzz+DEs59C3/HnEO0dhRzuhanFYcutObdXUySM9kQRCSjuyJdqZIsWUutLKGQ2vJKDYRe2sTJ9Fa+9+T7SuRIlOwhpIpbjYHI+hffefQdTV9/2Skmz6o4FEAlWu7VsBszK80Dm4Dt7cpeE8N9VkXryi8hFJmCBdl4j9WEZBawszGDyzl0sbOR4XUexByHNg38febtkvfUuSv/0Dqy/KkA2vEOk4Xbbw6xXLSp3AMHPyJCfPwQpKtbmqG1apalPp4inKvFOvlhpviuq49hABM8e7cOzT57CmaeexsSxU+gcPA6WHENZ569Ui2BKAHK4DyPdYfe5V2tlI4Vcoch/0UE37gzlfAbTNy/h1UvLWE+XKdlByAET30Cxhezl6W2ce+cNd00O5tD0smbXERPTGKtM7ItEh53nTcEB17sdCqTnu6C88qMYPf4kegeGEAyFvYOE1J5VzmNzZQ53Jm9jbr0A03LqFqgTQnZJtEUmb5PW34TxjYtgN1OQzfb9Zu506at5BXZ+9lH/Zi+/73Fqm36oYEEbbITx2CAJKT4IKLp3pHZ8M25ULMAm1vPoiOjo74phYrATZyYGcfbUEZw9cwJHjp9GfOgE9GgnmBaEzZ+aX/vUmh5AsrsbSf5cq1mEVHB4JXL7yjmk1g522soOx7FRyKQwef5VnL8xg7VtsQKLuA4AAIbYSURBVNe9T98YQnxOfPfyJRMXJtfw/tvfw9LsbRilgneUNLNoUIVe5TRGmGne4xPv7wHWuV08dvl0FPrfOgH52Fl093RhfGQQPX0DUAIR2JRkI3Ug1uww3a1nF3D7xg3MrGZQKFkUfxByYPh3z8zCWbwE8/fegvXdDbA160Cbp4O289Sr6ent/Oyj/s1eft9u1PqtknQJSn8IylNj7q5ykGq/bpdvEh07ZN7xD6gy4iEVPYkwBnsTODrUjdMTgzh1/CiOHT+JvpHjiPeOIhjvhizmAddwm5p6Y7ICPRRCb2fcnb5TzawV0YCnsgbWVhZRKjTPrgnMsZFfn8GNS+/i9tQcf4xlCjYIaTDxncsUDFyfXsX7776JpakbKBcObsFiUp2ArkKtau4qr2PdrWXFmOBqQpnakRIG1B9Sof3SCL9+ChJvk4O6hoHuBA4NjyDWPQim0cgOUh8i9jCKOXfNsjt372JhbRs5SnYQ0njiOyeSHEuTML7xBszf2QK74wClg2mb2sFuarlqX/1av1tSQoI8EYc0eAJQeSxQw91Wdvgu0XEvkQRwR3oEFPQlgjhyqAMnjo67W9UeOXYcQ2NH0X1oDNGuQ9AjSbBAnD/j5l7lXSy0GozG0ZmIutN2qmFaDJPLWXel8Wa0tXgb169cxK2peWznzYMfTk1ImxBTxrZyBm7NruH8+QtYunMJZplGcviJrilQqpnK6FiVRIe4PohER8KA/LwD7af6oX3mDA9oRipBDH8okaCGgd4uDAyPItQ5AFtugsVSSWsSu7GYeawvTmNqdg6L62lkSzZoFi0hjcK/bFYWbOkurO+/j/LvzsC+qEPKye6GG+TB7n1p9vIy7abVP+iXXxrSoDzfCUTHef+8Pmtu+jrR8VFimodYvHOsJ4SToz04c3wcJ0+ewJFjJzAwfgLxgaMIxbugBsKQFA1iC9fdfRQaR9ODiMWSiEUjVT0ycYaiUDZx5fYs8sWyV9p8Fu9exaX338PN6WX3zAohpL4cHtFv58RIjjW8c/4qFm68457pJP4i1mtSqhriZwBGkQeY/LrBSWUmHuYxE+rP9UL9zNOQOk/eF8SIp9ER0TDa34nB4VEgkvB2USOkDvjnnxl5bCxO4+7MPObX0sjTyA5CGsMqw1mdhvW9czB/ZxLOW0Fe1lx9r2Z07yu021dL1Gh7rdV28+9qWmPyJl8ZT0B9ZRSSnuQF9flMtGRkIV4qMb3FDaR6wnhivBsvPXkUn3n+OE498xK6D59BsKMXSiDoLvxZ+Rf1eYGrwqO/cEBHRzTEr6t7a8Rojs2tDFYufgNmfssrbU5L09dx7vVv4dbcpjs/m0INQuonVzLxzs1lvP7m21i7+YZXSnyFtw2KLKOqJZtsHlymSnDyJr/TwHUw+GO0ebOqnh2G+syngIEneTTz8emj4rl0xQI4OdSJ0YFD7okHagtIPTnlHDYWbuPW5CRuL2dQKNv0mSOkrhw4mUWY3zyP4j+/DeM7NhS7uUfW+1m1vdmd+k9c7+bfVfO7H0eKMUj9w5C6X/BK6qPuiQ7LdpAtmtjMlFE2eaPS4FZFvClipIdIfCRCKo4NxPHKmcN45YUXcOLsD6N34inEewb4C94Hph7sWh5M1aDHOxHr6IFe5W4rRcPG/EbePXvrB5uri3jz23+K63NbKJathn8uCGl1Yo3H7ZyJH7x7GTfe+w4KKze9I8RPJFlBfOgpaKEYv7P7MIPZJVjf5v/mYgyy1bht2KUwEPyyjMBXz0I+eRySHveOfJxomxPRMCYOH0b30DFoAVqvg9SXZJWR3VjEnTs3cXV2C9mC6Zu4iRD/4N8pZoJlp2D98Xdh/fY0cE6CYjeuLSKPt7P2505k0aiakHWVofxCGOrPdkOq8w5syn/DebfrQnTAp5dSeOPCLSys52BCga4q0FRxdqqWuaFHE39KrHkhAitdVREKaDzACqErEUGyoxPRZDcCoRCYFoUh6bBtCzJr7PBuXQugr7cfQ4f63Sk4uyWGX26lc7hy/TY2l6Z9sVWkeIzlUsFdODWY6EM0HEZAU6qJ4wkhDyG2UlzdyuPNd85j8sYlZDZX4PAAn/iPLCvoG57AiYlhxCOhXdaRPFwpb8L65hTsi9tApjFtmdRhQ/mkA/0/PgvlqecgxXr4E3j42TvxVGRZ5nW/5k4p3eKdTqNU4o2aGIVCSJ04FuyygUKuBMsu89gvwuMv1Y0PCSE1YJfAtqdg/dlbKH9tFvaFIqS8+H7Rd6xpiLfiI5mNnXdHFD/odq3IT5jQfnIE6suneZwwwEvq97moe6LDshlWN7Zw8ep1rC3cRWp9GcsLs9hMF2AwDRpvXEQCYicR0Qjiz7gJD01GOKAhEgm7Z5WSsSiSySTi8QRC4SiYHORfVhMOk+C4UyxYXR9jpKMfg0PDONQdr6rBNflrvLy6jnPvvIFyPsNLGpWT2x/xmuYz28gVitCCUf4+RBDUxefB+wFCSNXEYsSLy+t48/Xv4+7kLeS213lcL3beIH4kKwoGR8YwMXoIkVBw9/VjcRn2a3fhXNsGsvVPfkvdFpRXFGi/Mgb1hz8NKX6IN7SP3xNfPB9VkREM6rB4TJAvWzDKJUiU7CB1IolozrZgGUUUcmlYjgxVC0DXNfezSAjZB7MAZ3kO1l+8BePfzsB5vwikxfeu/YL7eiQJ9uKjiQso3v2HdBfvfcy1fvyOYkN9IQbtc6cgHzsGSYt5R+qj7okOEcQUyyaWVjawMXsF2xvLWFlawPpmGulsAblsBumCAf4j4P119x9IvJPvJj8qv6JuxO8Xo0o0ReIdbAXRcBDJWBidiRgSyQRCkThCPPhSgmK3lsqngskaHMhgjuU+xppRNPQNjWNo6BA6Io8PDu+VLxqYmV/EtQtv83sP+dQ2sczWOko8uNWCEUSjMTcB1aikFyGtQozsypdszC2u4MKF93H14nswSnlfjPAiD6fwtkfsIDY21I9wKLD7djE/D/u703CuZ4FsndsFlUE5oUH76UPQvvxKZfHRXSQ5dojqXozyDASDKFsOSsUCbKPAmzP/tWfEH0SyA8xCmX/WiqUyTEfiYVgAgYAOVa5ua39CCCfqazsPZ2kG1ncuwPiXt2C9Z0DiTZDkrlDdfprlWX/scfCCA9nxRjyQuMPjhCGon3gCcu8w71/Xd82W+ic6ZN6cSCrypoyFycteKXjjksXmyjzmZmextJFFKlNELs8bHAMwWSWjriqVqSaNIP6KaNgqU1tkREM6ejqi6OjuRSjRjVA47O6IgkAMjhriX+adLfvEJ2V/nxbx+gTiXZgYG8Ghng53df1qrG/ncfPuHFbm73ol/pNOrblnotVQ3N1xhqaxELJ7Ir7IFCxML6zhwoULuH7xHe8I8TtZUTF05AmMDPQgHNzlNqzMAXJTsL43A+dGHuCBZj1JA7yt/vQAtB97FvLRp3hDKhb5ro6o7sVaWqINNk0T+XwelsGDZGoHSB2JkypiZEe+WHRjT1UPI6BrbhxGnz1CdosHIVYOzto0rO+fh/Fb1+B834ZkVup20jzE+3Fg2/oqvG9/hrf1v3YcypPH+Y0u70D91D/RwS8icJGZhevXrvD46/65wmJkRCm7gc2lKczeuY5bKyXMpVWUygbCmgRV5R1e72sirhvZ8Ii/JQKvZFhDVzKOju5uxDt4sJnoducTO/wdc58PDyqZ+OG9fHAkFUzvwsD4MYwN9iEZ0at6jqKDM724gfcu34KRXvFK/UkkO7bSWSixAXQnQm6ii0Z2EPJoog4o8vryyvQm3n3rdczcPO8dIa1AVlWMnnoBQ71JhPTdrN3EPxAi0ZG5CfsHc3BuFoFsnYbji+o5yKD9RBTaV09BeeE5SNrDFx99HDHCMhAIuAuD58oOculN/ieYFwEQUj+OWUKhWEbe4HGHHkEsVFmzg2IQQnbBMuBs3oT16tswvnYb5msm7/e11zSwnS4g1RiPEGDQ/4YC5dOfgNQ9xhv9XZ682Ye6JzoEsS2epgeQ1oaQXpmBxRuUh2HFFErrk1i6ewVXr1zGpRUZZbuS8BAXEQiJhqeRbY/4WwrvdIc0BYmwit5EwB15cai/F9HOQ7BC3ShDg2TlYUsKbMt0P+iPayDFSA4p0ImeidM4PdaLnkTQ7dxXo2TamJq8iZsX36wEtz5XyqexsbKEot6Hga6Iu3BtI99rQvxEbBYgRkJ9/93LuPD2q9hcngZrgXqAfEhRNBx/4hkc6o65I912RXwGti7D/sEsnJsGkKvD0FBeL9tRG4G/bkL7tZegPPcKpGBnpcHcB9G5jAZ16MEI1osaSplNMVmU2gFSd2Ito2Ihj810GSYPwBORgDulipIdhDwMD0IcG87qBZi/910Y/3oG9ju8HjfabwtZUUtQTfFwTHXAei0E/+GzkI8/zeOFJC+t/yvWkESHaCPEAk/JWAi3r19w598+lBgd4Vj8e2PBNA2Us+vYXLyL6dvXMb+8gbShwXBE51eCzAOiSsbd+7d15H6A+f+JRIv4mxrvgIcCKhLRoDvFpaujw909hIUHIHIVopF0JN5AOg7/tzt5vgqmqJADEYQ6+tE3evSDJIeYMlPtc5lZy+Pa7WlsLE55Jf7GGINhFLG9voSy3u2umyLOYor3mhDyoZLpYGkjgzffv45bl95BJrXm1puktaiqitNPPcfbGZH43eUZMtuAc+s6jL/in4lJG1JplwmSamj8vx92oP/KU1Cefbay+KhYy2qfRE3vnhwRu2DoQWwWJFjlvBtMN6KtJ+1MdNrEjiw55LfXYPMPuaoH3M+iSjEIIfdjNpiZBlIXYf27b8H6vU04V3gbVeR9mQZ0YEntiF5qvd8xuYch8Ks21B/9MchJES/UfzSH0JBEhyDW6ggHFCykysimt905kY/HwKwSysWcu2hpNpNGamMdKwuzmJu5g5QVRlmsls2DIhEANmq7WvFX3KSHm/CQ3Y54NBRAPBpBRyKKeCyKULwDwXAMmh4C9CgQiEMOxhGMJtzpL919gxgcHMTYYI87QmQvSQ7TdnBxags3Jmdgppe8Uv8TiycaxTwymYz7HMUCdeFQZSoLIQTIlSzcXdjA2xduYPrGeeS2KMnRqkSi48mzz6MrHnZPGDyWmMvkmLC/ewf2t1JgCxYkp8Z1p5hW2K1B/5UxKJ96AXLfKC8Legf3T7SFCn+uYq0EAwF3pJ+YWtAKoxZJs6skO8xyCcVCEWWmQFIqO7LoVa6fRkjLEkmO4hpvX96B9Zdvo/y7m3Cu8u9H7sPlBoh/1Psdk6I2lCdlaH/9MOSTL0EK8H5xg/rsjUt08IsYCWHKEawtzyOX2aocqIJlllHIbmF7cw3rqytI5Sxsp9bdLWsz2RxsSYcki4RHJWnQqOGG4u+ITnhYVxALKohGw0jEYvwSRTIRRyLZiWRnF7q7utHb043+3l4M9HWjryuBzsjeF73azhu4cmMSC1O3IJl1Xm2u4RhKuS1kczkUTUALBBHnrytt/UbamdhZJZ0rYXJqBhcuXsLdO7dhbC/TdJUWpmoqzj7zvLsjmJhC+Xi8o2aVYL86CfvNFLBR2wQYUxmkQRn6z/RB/bmXIY8e4UFLpOZBS2VHtMq2s4bpoFzMuzGA+/wIaQCjXHDXPyrwGERMNRajeN114xoTWhLSnBwTDu932e9egvXH52F8fQX2xQCQF0kOQu4nNtyRDvFY5jMJqD/+EuTOMVSzK9t+NSzRsSMU0LGyvIStrS13LYv9KGfWkFqZw/zsFJZXN5AtOSgVcjBs3kA5kjt/XXzrRCLC/V8DvoEiOBOjMyIBBfFIAB2JCHo6YujriruXXn67KxFGLBxAUNv7KBR3EdLVPO5eP4/M8qRX2nrKhSw2t7Io8Vg97G73G3CTSjRnlrQTUZVZloON7Txu3ZnGxfPvYeb2FV7R5So/QFqSSNyLkYFPnz2LWDTonix4PAcwC7DevArn/S2wrRomOjTGAxYG5fMxBP/+s1COPwMpKJIc9UlAi+cb0XnwrIdRKJVRKhbh2CJuoGQHaQwx+jiTK6JYtiBmjuk8BlGUnfXivB8ipC3wetfmdfDmCqwfXIb5W2LKyjbsaR1KWT64nTx8pFmrDPHW1e2xBR1IpzXoPz0E5dmXIQXidYsZHqThiQ5xRj5vSdhOp5FLp7zS/RNne9YWp3F38iZWtg1s5hzkSyZMywaTKhn4SsPUuMZp52+KYE3M7xQXcXungdzPw7AchktTG5ibvuPuWtPKHKOA7UwW6zmLB/1hREIhd8rQXpNEhPiJSGoavB5bThXw/pXbuPjem1hbmvWOklam6kF09I/jiVPHEeEdrN2tVeSAmVnYr1+AczELtl2j0T4y/yAO8M7eF4MI/sYxKE/+CKCFKg1dHYk2OxbSYMph5AwHpWIOzLaaNmAkrUeySzDyW8jyOMRWQlADYk01xY3nKAwh7aGS5GAbU7xteRfGb1+D9fWMu/6TXOupkS1iJ3lQ1yRCjdTz8ckdNrRPxaD/8nFIydO8QCxU27hXpOGJDhGoyXoIG+trWFte8EpriPcKCttrWJ+/halbl3B9ZgN3MmHeUWDuWhpBXezT7+/pD+JLUyzbOHfxOlYWp8CMfOVACxPzs3ObC5i5ewssMY7uBA+2NZHAogqWtDaR5JhdzeEPv3cdc1d/gFKmtROb5ENyIIro0JN48tghhHV1d/UdE0Mat2F//104l3hgmq5NHel0lKD9pIPArx6F/PTnIAV7eGlj6l+R1A4HNVhyAFtFCaVcDgr2NyKUkGpUFkovYzudwqYRQiQUrExlobXDSDtwLLCtK7C++S2U/uU07NcNyCWaSv4oOzVDu9cQUiwI5dkJqD/6IqRAlyipHGiQhic6BLFFXp6Fscn758XtZa+0lpjbKIl56045h3JqFmuz13Hr2kVMp2wYYrtahXeSZZH0kPhL7rOsPH9u6+kirp1/E5n1RX6/Tebn8+ctpjttLE3DkHiQEYny4Fd330NCWo3tMGymC7h47RZe+8s/QXb1LpxSrn2+7wRqMIrOsSdxZrRj94ldkegopmB/7y04V3hwmqnNjivK4QC0L5+G+qmXIMXF/veN3T5QjAbVNdXdajafT6NcyLhtONX+pGF4DOJYFsq5TWS2N+FAgR4MuaM76KQLaUli0dE8/6xffh/5f/AWjD9Lgd1yIOf5512cdSW+ce/IkkaOMtG+3An9109CHj3Z8LhBOJBEh+iYapqOUiGLxZk6ry/hbn9UglEquPuj5zJpbKwsuFM+lpaWULJllFllUZR7p5U0M4d3gK7dXcDM7Wso5jNeaZvggYZZLro796RLDEwRO7LsbM1LgQZpDSXDxvRyGhevXsf1i+8gtb4CZtFCjO1GD0UxOHEGJwbj7pbmu6rhLBNscxXmn1yEwwNSFPaZ6OB/lI3a7g4r2o8+C3nomMjAVA40kKjexZRFsfuFLanu9FfJEeuP0HeCNJA4iWYZPKYsoVguo2yLD2YQAbEFLY3uIK3EyoOtz8B64wJK/+wanFc3gVWRSOf9JKp266KeCYh7f2+jaippQIH60yeg/shZSJGkKKkcaKADSXQIYlSHODu/srGNQnbbK60/u1xAPrOF1OYGUqkUtrczWF1bw/LiPLZKEixJh8YbKzeobNI2y7ZtfPf7P8DG6uK+F3T1K7HlcCabR3p7yx1OGk10IRJsfKaQkFoSCyhv5Q3cuD2Nq9euY+r2dWyvt87W0aQ6wUgUI0eewOH+2K47Ucw0wWYWYf7WXbB5hwer+xherDHIIya0n+2C/vPPQzl+AtAT/MDBNI7iZIQY1aHpQRRMCcVCwV2vg5IdpNGYY6MstqAtGigaEmw15O68J7ZFpnMuxPeMbbCVa7DfOA/z96Zg/VUKUtqBZB9U7d8e9vLaSh287yMG+trN1Q7KA2WoX+qE+uNPQjl69EBGcwgHluhwpxvIGoqWhIXp215pY1mW6Q4/FCM8lhZmsZYxkc2JREgKhVzWHS0gi6GxotUS/zVB6yWGs6eyRbz+2jdRyLf3jgtWOY/05gq2trbhqEEEQlFo2s4CYQf/XhGyW4y3T4ZlYSOVwdUbt3Dx4gV32+hSdtP7CdKOQpEYjpx4EoNd4UqbuRtlA87kFMx/swBs8ah0rxQGqc+B9rMq9F96FvLxpyGFu0RD6P3AwRCvgzhRogSiSBcsGOUimG3yJpqSHe2OiZX83UslBmBiopOk8FhTLF4uisUJLB7TiftubMevFREzKO61rKiQtDAQTEIJRqAGItBEXBGKuaOrAvz7GIrGEY7GEOGXaDSCYCAAVQ1ACceRjGjQaVc44lu8DnVssNw6nIs3Yb12Duaf34X9apm3Jd6PkKYjj/I6r8zfO3FpEkx2oL7AoP/yMSgvnIIU7ealB1MvSkwsZnFAyqaN6bkl/Pt///sw8mke7DfP3PNwLIHTz30KY4M9SMZFgxZ2t8YVQ2dVt4H0frDBskUT799ew+tf/5o79YdUiCDk8NOfxjOnJzDYk0A0pO2+Y0DIARLJy2LZxNrmFq5cn8TFt1+DaYhpKqTddfYO4HNf/us4PZJw16jYDZbLwP7et1D8O5fAlkpe6R4keDfxFQ2h/3Ec8uEfgxTqO7AzMh/lJgZtB9cXsrgzeRX59QVI5j6eKzkgEhxZTMmS3PdUkpgXCnttN7+6txV3b39QVrlRuc1JMpii898XgCx+j/iFjJeJpAb/2KqSA5mJpIfIe0j8SoL4y7LGr/kvcQdM8R+0tSSscG9lZC//cfG9E6OpxEXjt4Oa7B4T9wM8HhQXMQJYUVQE+DHxuz94TIT4iUhyFLdhv/d9GP/sFsw3UmCrNuRybdZ5IvUhn+Dv2wqv67abpOaRGeywidBvdkH/6uf44zsDaHHvYOMdaKJD/OWNTBnfOj+PyTf+AKZYaK8JdQ8dw/DRMxgZHsJAZwQdsQBCYmG4BjdoDn/BljYL+LevTSJ/4xvutqvkfuGJT+ETz57EmfFudERFwEMhB2le4judypZxZ3YZVy5fxuyN97wjhAA9/YP4ya/8KkZ6IrtO3LJMCva3fh/FvzcPtrzHqY38T8nHAtB+bQT63/tRSKF+txPYbLIlGzfuTGPmzi3kt9epvj8w97zuD3kLHlTsyBoKgS6oYhSGLbbfd6CIPpUYdcHfS/GRF597sQCtSEyIJIKiiNv84yiJERiiTCQp+LWiwtGTcEKdUFTV29JfJCFEUsL7GV4W4Pd1L3khEhYicSGSGeK2+FvicYqPEb/p3njQ4yakJZULcO5eQum//A+wv2/xjjMlOMge6LyOnrAR/N9PQ3nus5AiI7wuPbjP0oEmOoSSGNWxnMZ/+J1/gXyuORfWVFQNqqZD5Y2nHulAYvgsjh8dwtGBODpjAXchzEYolC3cnl7AH/37fwdHbCl7sG9dU5K0kDvy5vCpZ/HUM8/iSH/MHYVDSLMRVe+N+QwunHsbc7cvoWyUYdFIDnKPgUND+Gu/+jeRjGq77sSz9BrMP/tfUf7PDLCVvbUR8mne+fulYehf/RTk4RNekNJ8XT53TZtcETfuzGN2+g6s7Lp3hDRKWUvA0hNQFN0d1aDIzE0wuAkIRSQVREJBTA8RyYbKgrIioSDuuyMoAp3853iZJC6VfyOSECLRUPm5ys+Kz7+4uIkPfkx8Gt3b4ji/446kEKNDxDQUkaAQP+Ne+M+IByr+gXvlHavc8Y55CY0PfoaQ9sPSG7C+84co/f0ZsEWbV7DeAdIyRERQ7/pN6mII/Ccm1F//FchDJwE14h05GAee6BBnNPNFC99+6zJuXvgB8tsb3pHmJCka1FASsWjYnR7RPXQUw6OHMdyXRDIikiE7W9bWlniT1rZLeO/KJN7+5u9VCslDhWNJdPH35vDxJ/DiqSFEgjSVhRw88T22bAfpvImLk8u4e+MCNubvoJhPV36AkHsMDg3j1//m33LXpBCds91gG0so/+v/Fub/GOW33W7crjkK76Q+aUH7mSGoP/0ClBPP8J7pwQYpj2M5DCupHCanFzE3PQ1W2uCBDUXo95PctSpsWYHKb1dGN4jkgKiTeLzCKyY71AlHi0HmMY5INuwkDyqLs1embYjbYjREZeqGSD6I6SIBHsgG3DUuFP4Lxb8TiQvxb0WTKy5idMVOwsEt5zfcj7P4UMta5Zi47f5X+XfirrjvJi0qNz84/uHtD6/dn3fvfnBj5xYh5LEY2OoczN/+n1D+78NgW/TtIdVjmgPpmIbIP38C8hNfgBQR63pVF4fU2oEnOgSxXercRgHf+ON/h6X5aa/UH4KJXnR29aC7qwsdPQPo6u5Gb2cc8bCOoK64wcFOA7wfpuXg1nwKr759GWvXXvVKyaOIxeri3YcwMdSN40++gIHuuJucEkEXIY0m1uLIFgwsrGzgxpXzmF3ZRnZjAXY57/0EIR+y9SQGjzyJv/tLX6giScvgTC+h+Bv/L9jvaEChurqOdTkI/M049F88C/nkC0C4l5c2f31ZMh0srGdx8+48NuZvQjLFtM4DD22aAhNTjrQotHAcwWgC8aDm7g4i1pMQyQoRoIjEB/Qo/7kgKqMydpIUlREUYjqJuBZtp3vfLRf/VPIulTjHvc1/pUhkiM+NKBNvg3st7leuXN7Vh+4p+NgxQkh9WQU4N26g+Pf+FW87QrxSpW8hqZ40xKB+JYHA//WvQY4P84ZD944cnKZIdAiiE/DNb7+Gq5cvIrOd8kr9Q9ZCCCb60Nnd6yY6Ep1d6OjsRldHHN1iTY9AZTjlXq1u5XHuyh28/e57YNszXinZDXGmaeLMSxgZn8D4UB/6O6NuEoqQRhAVbLFsYXmrhJmFFcxPXsGda+9XDhLyECw+guEzP4z/6EdPuB3IXXEsOFfnkf/EvwQrmGLIpHdgd9QvRKH//VNQP3kWiIzyCKH51uV4EBHFZEsWZle3MXnzBvIbc3DcbWfbHA8y1UgH4l2H0NmZRCKRdE/CiESHu3aFXElGVKZ/eLfdy95jFUKIDxVXYL3xJnI/9S7kolMJXAipRpRB/UQI+j88BuXzvwjJXdfr4NuSA9te9qNEw6pHOpHO5JDa3HD3KPcTxgNMs7CNzMYiluenMLuUwlKqiEy+BNssw3TEUlq88nCDCXFmoxJUPI4Y7ZIrmrhxdx7Xr15GbmXSO0J2S+TyUqvzWEyV3J1+dFVBQGwJpyhugEdIPYg4QXx/RR0wvbCK96/P4NKVG9iYvlj5AUIeIRTrxNDoBM6MdXolu+CUwJaWYP7rq4DJP4G7CVZ5FcgCPBgYVaH97VNQf+g5SF0jvFHWvB9ofqItFR33kM4DK0VDOr0N2zJFw+z9RPuRFB16rAs9g2M4OjGOiUNJDHQE3S1QIwHFXYRTrC8mRp3ujNRwp4nsJjAhhLQOXk+y3Dzs6++g/Mc5yBbVAaQ6jH9k5DEF6hcGoH7pJcjJfl7aHJ+jpkl0CMGAhu28gY2tDMr5ba/Up4wcylsLWJu9idu37+LqqgTHKkLinwaxh7u4iA9BJaa4P+khzk4x/j/LhjvU/cqdJVw6/y5WZq57P0H2ws5vYnVuEiubaXcLuVgkwINj1Z0+RsEdqSWR4DCtSpLj/I0ZvP2DVzF/4104uVXvJwh5tFhHD8YnjuLwQBXbstkFOAtzMH57UixeIRqSx2JB3tqMywj9w278/9u7DyBJsvM+8P+Xrrxr770b72fWLxYLLAzhKQIgSOEoiRSPOuoknU4XF3e6kC5OJkJ3Ol1ICh0lhUI6SgpRJEFSNCAICABh1pvxfqZ7pnva++7yad59L6sGWC7WdM10T1dVf7/dnKrKzKouk+Z7Xz5jfPYj0Nq7ayrJcZ86hgdMA4lYBMtFC7lMhs65RfqAezDZQSc1I9aCzt5BjA10o7shiKBZ7qSzvApjjCnSy0HO3Yb76lnY33aguaXyCWNbJS0KGw43wPrUPugnDkHowfKS3VdViQ7VkZU0Q9hMZ7A4U0fNMzwb7sY05u7ewLXL5zA5v47lnIEcHUz8KqM0qXhUJThcismKFKBuZG1MzKfxg7M3ceXNH2B17g4t37tXp7ZTPrOO2elJ3F3MAsE4QgHTr+XBtTvYdlD96SxtFnDpzjL+60vncevci/7Ql1XSSpDVCNUMcmRk1B/SfMvsTXhTt5H7D5MQtupm8v15lgsx6iD0l2IwfvoFaM39gFE9AUqlVL5adaQZj0awUdSRyxfgOYU91zmpiqNau4cw2NuFtlTQH8WEMcbeVXEV7muTKPzaPLRJlSDn4wWrjGg1YH2uB9YXD0LEOtWc0oIqUDV9dNynhlA9e2MW33/5LWQmXy/PrS9mIIxAKALLshAMhmD1PI5ElG4Nze9BPrs6h82psyjaLtLZPIo5Cl7VlSm2bdQQdAb9DtFoFInBx3FouAcjnXG/Wi/X7mAPQh1JVYLy6uQSLl69ifXJi0hnsnALadRaUzy2+4ZGD+L5Fz6J7tat1+iQ2XtwXvo2Nj9zGXpeneDLC95LAjA+kkLw7x+D1v8YnZxi9KTa77/IdiXuLKRx68ZVLM/cgVvMlZfsDVbzAA7vH0V/RyNCls7XZhlj744CF5m+BeePX0Hu718CLvAFGVY54wtNsP7bUzCeO0UPouW51aGqanQo6mpMwLKoYOBg6nZ9NtXwXBvFfBa5zCY2N9exsb6G9YVJLM/ewRIFZcszE1hfnEaWljsUoHEhaQfQwV0lj/LZNP0Gm1hbvEeF0gw8PYhQMPCj9sqMfRB/iOy8jZuTizh//jyuXjqHuakJ5Nbm/avJfgaEsQp1dLTh0IH9dD6soEPQ/CK8ifMo/uYaNEf1C/U+ghLGExScfPUQ9NMnqHScqoskh6KO3/73JgwUCjada9O0H+6dWh0d/aPo62hGIhyg81h5Jqty5fPEj04X5Tsch7Ct8I9vtM34m0sl24wHeXMW9jdvw/n+EkTWHzKJsS3TnyrA/MpB6E8chYip4WSr65hVdYkOdTU9SAGKSTHKzMIacun1+q7yrbKp+TU4mRUU08uwM8vwChSUsUdGFjaQXlvE2vqG3xluenMdjh72R2sxNK3cQVt5ZcaIOiI5jofNrI3p5TQuXziLy9euY/zGVazOT0EWechY9nDaO9pxcP8+6Gpszy2hrTI/D2/8LIpfy5YTHe9+4BIxCf1UGOaXRmD81CmIeDvNrK8A1zQ0BAJBeEJHOltEvpjdA01YBDw9gLGRUbQ2xP1aomynleNT/0b9o6r+u+XJoYdqUiMgqakAuHmacqXJydJE5wqHYj57ozytAcUVmpZLj1X8qxKQpc7E1B9hrIy2DbWdqe2Ijv2Sti1/pItK+liibdK9eBfON8bhnU37/QgytiXqkJTwYH65GebHT0HrHqjK/r2qrunKfevpPN64MoEf/vFvwba52QZ7dKxgGH0HHkNPewodHV1obkggFjK5nTPzqRocmzkHC0urmJ6ZxdTCBm6f+x6cIgWwjG2To0eP4bOf+xwV2LeY6KCAV65ehPPd38Dmz+egF6x3DVplwINxSof5c4MwPvEYtJ6DpUJUnVrayOP63TmM374Gb2OpVDCoU5IKxE64FZ945iTaGhPQdU50VE4VHu8nK1R4XL4tzyv1lUaTqmnr3y/fqqSGuvXnq/tqovsuTXkJb1anWfQ6fuLjbcv9qZwIUfPUsMie6kS3QIWGIERLJ7SODoiGFgpOErSv1ketK/aQ1LbmZiE3l+DdXQQ270L0dkG0DkMEGssrbUFxFfYf/wDF//c1uH/CZS22RRody6IUSzwhYP53z9DtaTpGtdKC6isnVW2iw3E9zC+v4z/9h1/HxvoKnTvoZMDYI9a+7ykc2DeKka4kGpIxv9NSVeuIL6zsLeogqQ6VtuNiYzODG/dWcfHiJdy7+kppBca2k2bg6LHj+OynP+XXTNgStwC5/Bbsb/8G0n9JQM+bP5nooJfyOl2E/lYLzJ96GlrP4aprT7vdHFdiYT2Hi+OzWLh5nsqQqraVKqDWH6lbcFL78eknR9CcCNV4s5X3CU39RW9f/o77fmKC7nrlWz/MVffLt6q6vr+O2g7u39Lkz3Oo8Ef70qYDWXQgVNKBJqluaR/zJ3XfydGtum/TMrp18vRclbBQiQp1q55Hy2yKXec1FP+ICp9p2gH9pIhLf1XderSPqlta30+e0PuiWFeo19AK8EQQ+oEozKfboJ8cg9Z9EAilaJ81y8lJDkT2FrV90uTStplbh1yagHf5Eoq/N+dvf4Fffhr68eNABYkOuTEF53f+BMV/dRbuyxV0fM32NBmk49qwjcjfboT+7OchmoYBPVReWl2qNtGhFIou3rwxh5e+9TtYW+ZhGdmjJyiYEBQttnT24+iZD2HfQDtiIQOmTvM527EnqAOk63pI5x1cm1zCG9//BhZm7lKMKinmoOCUse0W68KxE6fx2eeOwtjqVXknDW/6NTh/+DtI/00qIBXpGPXOs7spoD+ZQvAfPAf9xBhgqY5O6/84VnA8LKymceHcWSzNTcGjgkI99sGkEh1uch8+9ZRKdIRrJNFR3kj/TCiq7tPkz1K36o461t6fryZVE0LNU4kCNZUf06QSDzJTBNapQJhRtSRU0iFPqxQg/KREGtLepFvVbCTrNxFRj4VqTuIV4S1oKPxuM9x7MUiH9hl6zdLYeOrPq7+pal+oW5W4UCkLD67/1uhv+d85/eO/Z/We6BHN1jeC9Nr39+Xya22BF6DnhyXM0x6sX4pBO/gCtM4hIJikP6+qidf//ssU2mZUgsymbXdmEt65l+D80TUUf9+Am6Zt47FGOq5/FvqpEdourPJzPph79RLy/+R7sH/9FrRC7Q0rznZJUkL7kIXw/6kumDxWqm1Wpceiqk50eFSQWE0X8Hs/uIapK6/AWb9XXsLYo2WYFkKRKMKhEIaOPYvBng60psKIhky/4ztWf1QTlVzRxfJGAXfn13Dl8mVszN5CZn0JDjenYzso1NSP4ydP44UnDm79+FJcg/PSeRT+4XfhfEv1R1GeXybCFP8ethD8P56Bduo4RLyBZm4xiVLjVJRTsF1MLW7g8sXz2FyeK3UUXGckFXAKyX343FOjaE4+qhodqgBWTjb8KOnw40mWExDqVvyZ5VT6v99k4+39WKj5qiaEuq9qKc3r8GZNyA1ZqukAtZwKfG7WX66SGMIr9XfhOXkINUKdLMK5p8G7Shv9lLpKrf6e2iHK79V//OPESGmix/fXc+idrhu0T2n0UPV0o577dj/52B/MWT1Xfec/Wvzj9YT7gPuaej16qkp2iE5APxyA/lQf9A8NQOvthQi1UIBCn3GP7Mt7jtou3TxkbgVyYQLey+OwvzUL79wGvHu0n6zTBmIIhH6tDcYnPw/R0kdP2uKOT9ur++rvo/CP34LzNdqfuH8OtkXaIQPBf9QM4+kvU8DSTDMq6DT9EavqRIeiqp1emVrHS9/9Ou7V6SgsrHaoGh7xpg7EYxE0dI6iq7cf/W1RtCSCdXmFcK9Sw1xPzGcwfus6FqZuYjNbwOrqCtzcZinwYGwHNXQO4eSpx/Dk8dGtJzryi7C/cxb5v/My5Bvv6Aw3SQWkkyFYXx2B8annIBIqMNlbV+9UpJOzPVyfmMHExC1srswDdn31q+P30WG14tMfOY3mxvj2nZPUMU9dSbZXSx1k3m++cT854Tn0/doUUJbu/zhRQbdFF3JRh/sabYSqCbJKKqhEBb2mlA40tR7dqpH2VJX8UjKj9NoSDpyZADAdBDapIE/PpaBVvaHS+up90ST8W/UapcdqPZnVIFcp+M7U0XauS4gkfd7WCLTHojBOpqAfbYE20g3ERyBM1QyN45C6oPYTew0yfRfe3btwX16Fd3kB7psZeBN5yDXaD4rl3zqoIfInT0I7+QREuIJmK04GxV/7Ldj/+gq8C+WZjH0A0SlgfK4Jgb/9LLTmo3Rcqu6aZVWf6FBUoePlV9/AubNvYHVxrjyXsd1lJTvR0NyG9uYUWrv6MNDegEQshIBp+IUTznvUDtWU26EgPJMrYnZpA9N3bmJqfhXzM1PIrMyU12Ls0ejoH8PpM4/j+IHBrV+Vz87A/vbrKPyd1+CdpcJjmboSrJ0OwPxqD8xPPA3RPFQOTPam5c0CbtyZxdTkXdq3Vdv2LDStXq6Gq7oHAXz848+jpbnhIT8XHRRVAmNzBXLlLpzz81TQWocopmm+6rNCJTVKiYX7SYtSokPV3ignIdR91UfFig55XiU6SkkKWkGlKuhWNQkp1aLwmwHS+v7jco0LdYHZSxvApkF/l2ss/BmtEqKPYo2RMIyjSegfaoNo2AeRaqV9Pv62fjxYbSjtD6qGksxsAqv3YL88Dff6PcjpBbjn8xDTtt+sSlVquk9EPWiPewj+878AvZ+O7ebW+0mQGzeR/VvfhPNbdyFWyzMZex+i1Yb+fATmzx+B+fzHqCAUU3NLC6tUTSQ6lMnZFbzyxlu4dP5NeHk6CDBWJYQVQbB5EAf6W9HS2obGpkakYlFEQgYChs6jtVQpdeRTnR6r5inpbB5rayuYmZnBnellzIxfRDHHQ8Sy3dE7ehRnzjyOQ8OdW06YyvQdON96GYX//Sy88+WZRBuwYP5cB6xfOUZBynGaodpv791jkutJzK7mcePuPKbv3IK9PgW9bhIdJR954eNobWneev8u76QOjm4O3toUnFduQF64Dvs7K3DfdKF55cSEKphB8/9VvPsFNX/bUuuoWzVRgdyV0PJ7N7m2U6QagIV2Z73Dhf6xIkTTfuhH+qANdkHraIRIRACDCr5+tXJOelQlPyFY9BOuMrMBObUK98YU5PVxFL9O+9wVWmbT3lXwoLk/OeKO6KBN4H80YP03v+onubY8Kg/tq97Mt5D5q2/B/cNVaD/OjTP2riQdRownXFhf7YP+2WegNR6m7a36Ywn975Ly/aoWDFrIOgYW1nLIr3PHpKyKuDaczXnMTI7jztwaFjeKSOdsFIpF2K6AoCBaK9fw4A5Md5/qe8OmwHuTfqPZlQwmphdx/fYELl04j4tvvIS1xXtwHT7rs93T2DGA7r4hNCeCW4sjVAGzsAD31m3Y35sD5kvBrojr0J/qgPHpo9AOH6YYOKzm+sv2KtWcI2jpEGYQBUeikF6msgYVNupId98gotHwAyZwVJIjA7l6B97L30HhX16E85ubkFckhGrpU6DtR1WZVzUs6FaUJ82f6FznTzoVnOi2PAmHh0TdCaofHtXRqVzV4L1uwv3eGrx7k5ALq/TbbEJYaVqhCGHQ76Vqd/jT3t7/qwP9cKrplZODzNDxZ24a3uRNuBdpX/vaJTi/Rbe/m4Yc9yAK9JPZtI/Jd9mXDQmtw4L1uRFoo3R8t4Jb/H3V3y/Au/lD2N+Yg5xQI/3wdsHen4zSJvdcC8wXDkPrP0jxBG1vNaBmEh3qhG2YARSp8Dhz5ybNoR2VsSrj5dexMX8H925dwrVbd3FjSSDvmQiaGgImFTpoO6ZTFscau0BdpFRJjnzRwfRSFq9eW8K33riNy2/+EPM338Dm6mJ5TcZ2V2tnL/p6e9EYD5TnfBAPyM3Cu3EL3veWIBcN/wKu8UIK5i8eg/HhIxQEqxFWmKKaFkYDBixDw3rWQT5dX/W2u/oGEYtGHqxGh+oAdIO2owtfR+Hv3YR8WQc2OFFRK+SUhHN+De5bM8DUbdrvrwCBNToeBEoFE792h0p8cBDy6FEQ4teWKkLm6Di9fBHe1R/C/k8XYP9/N2H/0V0Uvl6AuEf7m/3Bv49oLMJ4woPxeSp4tvTTAX+LfSWoWiT5Zdj/8SLs76WBJbnH099sK/SOAMwvjsH4yGGIQEvNHENqJtGhvs8gFRQNK4RlO4yNhTvlJYxVKacAZ2Mai3ev4trlt3BjNoecTTGHSRuzpkZrUds1Jz12kh9T0D+5govVjTQuj8/hWy9dxNnv/wHmJi7CWRmHKGzQSV5VuWasOrR396G/rw+JyFar+9OGvjYD9+ItOD9chZs2YX0mAOuXTsB47CBEtLFmgpJHRdXsCFgmAqEI1nIenHwGfmeWdaCzpx+JWMQfBr0i0oNcnaJt6A3k/p87sF+jQnFe92sOsNohXNrXNyTccQ+Fl4pw/8savCtXqHB9i37jIoQWooIKrfOjGh58bNg5KrlBxxU3B7m2Djl5C+4b34Hzb/8Uxf97HIXfpuP1y3nI2xSDLOrQnK3/FlqrBuPJOIyPHoOItJWTWFugOvrNTMD+jzchL2UgMryDs/dBm6SXzMP6az0wP3UCWnP/1re1KlAziQ5FVf8PBky/2um1i2fLcxmrVpLiRgeOXUCxkEd2cw3L8/dw5/YN3J6YxGIxhLRqfqk6aKPCuNq+VceD3Lzl4ahhqQu2h7WMjdnVHK7eXcYbr76Ii2dfw8St61iavYt8eg0u/S7qhM9JDlZtunv70dvXg2hwi4kOCqS9a4twvj4DeT4N4ykg8IuHoZ8+CpFSATD3j/BO6jCrathZFn03ZhgbeQdFP9nh1PwxuLWrH8lY1K+xUhE3C+/yDTi/fRHuN3JUANI4yVGr1GlNjaC8QdOyCzllwzubg/viIh0rpui3nqYdYJmODXnaGVQnsCr4UImPCrcZ9g60w6iEKe1LskDfb3YK7is0vXUBzu+/CfvfX4HzX+bhvpaGN+EAS/RDZehrV61lVYKqAqI5QMf4DuhP03HeSmzxt6P3p4ZmXj0H5w/H4d2mP5zjmJO9D3WK/KKA9aVnoQ+NlTu8rZ1tpqYSHeprVVcoQgETWdo311aW4HBbelYjPKeAXGYT6+trWFtdxdr6BhbnpjB77w7uLaaxmJHIOcJPeFiGTucsP/RgW1RwXCxvFHB7No1LN+7i+oXXcXv8Fu6M38bM3ZtYWZpHNrMBr86GlGT1p6ev32+6Eg5s9QqdA+/GHLxzdyCCa7B+cQzGk2cgGroAQ7Wj5SPJu1EJDdW8IxgIwIGFjVwBTrEATV2BrWEtnf1IJaJ+c8lKSDo3OX96DfbXbkJO8vmnHvh9L6jNOSMgFzzIezl4k2vw7q7AuzcDeWsFWJ6jH3+WSgTrpSepZi6a2nZ4C9gydcywNyCz08DGdcjpS/DevA73O7dR/K0J2q8m4b08D+/8Jn3/LuQGfbdO6fd5kGSiDLjQxgKwPt4F/cBB+u222D+HlPQe03DfPI/i1xfofXpbaibD9ijarPQRDdZf3Af9+EmImKodWlvJ0JoZdeXtbNfD7NImvv7Nb2Pu7g04+XR5CWO1SURbEW3oQEtjAu2pEJIRE/HGDiTiUUTDFgWsFnRDg04nsr3c3EUdrNQhS3X879I/RVsNCZv3OylOL89gaW0TMys5LM7PobCo+vJhrPY88czzePLJp7bedMXJwvneWbjffR2iwYP5Cy9AxAc5ybFFqhbYUtrGldtTmJu8ieL6Ih1narem14HTz2G4tx2JcGU1ebzxayj+yx+i+C+uAGpYV1a/TDqbthShxcIQ/QLaPhNaVwO0ZCdEXzO0/iREpIlikxhgWXQYoe1BjeixV4MPH31nfpFJBSAuZEHVhsjR7Sqwsgj3chpyeQFS9Ze0vALvug15zYBzx4XIq4TG9n13MuHA+KkkQv/LKfrtni/X2tvC66tmK4uzKPzbr6HwL+eBKXpvFdYkYXsEHSO0PgHz55tg/uzHofVQTBGIlBfWjppMdKg3rIaF/N7FWZx/8RtYnZ0oLWCsjjT1H0V3RwtaG6KIx+MIR2kKBmEFVOJDDVur+Z3qqckf1aX8vHqijk6qA1E1JKTjShQdF8VCAdl8AelMFpubm1ha3cClO8vITV+EV+QhYVlt060QnnrmOTzx2GlEglssbDoZuGfPwbs9CW1kCPrRYxT48hXZSqhjzdzKJm7evImZyQkU/OGlay488o2c+BDG+tuRiqihhLfOPf8iiv/sZdj/ZqE8h+0FnuFABiiGMHToCToGHZbQH09CdA5DH26FaElBhGMQyTBgBEqFatVG30981OtxhvZ9lez0J5cmh3aQIqSqTp4tQG6m4U1vwqPYAxt3ICfGYX/DhFz0KGZx4KkmyUX6HouVJRu3SjRROfRLnQj8709BNJ4oz90COwf37k0U/8FvwPk9+t3rqx9mto1Eo4TxfASBv38CWs8ztMHFaGbtNW2ryUTHfcubBfzxH/0+bl67DNehgxBjdcoIxRFtHUBTcyuSDa1oTIb8IDYStBAOBWkyYemqj49y0oPiDr/mR/n5teJ+YkMdllyKL1RiI5cvIp3NY4MCjKWNAtYWZ7Awv4DlhXsorM+Wn8lYfYh07MdTj5/GqYP9fgfcW+JkITOTFIhnIWLDpYCEVUwlU+/NL+PmrduYm5ygworq5KD29Bx6BoeGOtC05VF7Spw3v4niP38Fzr/jWrKMzsXJPMwnXRj7UhB97dCfiNPxpRWwGoFgAiIUhQiG/KYupaTH/T4+ajDx4ReFyokNdXt/+FdVY0MlPe11ILcE9+YGvJsZeBPz8F5fh/uq/+xHTnQGYP75EQT+t+chwh3luR9MZtSIPG+h8De/BvcS/Xa52iu4skfAkNAPhGD+hQGYv/xTEIGG0j5eg2o60aEKRBOza3jpB9/D9YtvlOcyVodU0kLToWkaNAokVP8dKqkhQ83Qmw8g0diMtmQQrckAmhNBNMYCiIWMitto7yZVayNXcLCatjG/nsfUUhazKzmsz4/Dm3mT9ncVi6hmK54/qRESarl6OWPvJj78DJ557BhODDXB1LdYYFBXHL2iulNqq63GlmUPJEvHoOnFddy8fQdLdy/7x5xa03bgKRwd7kJrotJEx5+UEx1cM44R1XmEarWiRu9pcKDtywKhFIQVA5pCfqfHxklaIdRKhe0uCLqFlaKZEXpSDTV98mza+DOQxVUgv0TTHGR+Ed78GpwXKTZ5i47DtNwrbsC9W4Q2Q585S/Ns+n52qZtA4+MWrF89CuMTn6HD/dZrbsmFaTh/9C3kfuUKUD5lMPZO+oEczK90wfgLn4TWdoD259qNKWo60aHkbRcXro7jtddew9ydq+W5jO0R6gRnhWEYdNIzNFimBpNuVae9IhCHlxxGR2MILfEgYmET4VAIQZpCAQOGpsFQtUD8pAkdDFRtkPvlKvXY/690vyJ0RFEHFXVoUUeX+/dVDQ2X/lF97Ki+NXLZDNK5PFbTRcyt5rC6tAC5eqvcRMVDgdZRo6c4xRydkDf9l2as3rUc/AiePXMEh/pSP94ft8Tf02jiJMfDUBdQ8gUXM0vrOHflFjILt+jAVVs1RptGn8TxsS60J1XSa+vcs99B8Z+9AvvfrpXnMFZm0LEl5NLhRXWUrsOz6DjTIqE1qVkWhBmFOGTDOO5Ca0lAhtohQm0QwSREK22HFi3XVbMX1eTlfrMXdaxSBzk/4CirNOC4r3z8Uzf+rboIom5p36X7UiUzVDI4XaA4Iw/YGcjCChUiZiFzC3CvFuG+ZgIL9ByX7nt5ePkixAK9n2V6r+UmLLLgQRTpfatOXneR9ZdbYf2tM9CGnqRHW30vEt7EVdj/7t+j8PdUcrw8m7G3C3owP9MM65ePQ3/6CcCsvX453q7mEx3Kwkoab1y8gVdfexXu+nR5LmN7m9QC8IKNiIUNRAImAioJYpr+pPr30OhcbSXa/H4/Aio5QpOmUwBihCHNMK1nlPoAETT5CZHyC79T+QiiamSoWhcqUeHYRchiGtLOwqXHtuMhW3SRz2xQfLFK63qwaZ2i7SBH8zdzDvLZNESeAg/G9rC+Ex/DU6eOYKwrXp7DHjUVFWXyNsZnV3Htxk1klymucPJUnKiNcCk2+ATO7O9GZ0OFiY4LL6L4T1+B/W/my3MYe3eqX02py1K+QpWzVU1T1blpuwuh+oYxoxRLxCDCFoznNyAjEYhAgoKOOATN92t9aCZEiJ7X7tBGq17inX1/vI9y4uHtk7dMe+gSBSo52k/9PjUKNKlmJ1mKRTZpH96EO0E3b1nQbJuW5WjZJq2agVyk+GWa/nZW/d1S81k1qY46q62zTtFow/rrR2D96nMQyd7y3C2gz+n84BwK/9Pvwn2TvqfaOJyxR8gLShhPhWD93CGYHz8D0dZNc6tr+69UXSQ6VCFqfGYFP3jtAu6c+055LmPsgxixFgSsUm0Qv1NTnU7yRgjSULVE9NI8lehQt++T6FAHEXUlVI2G4qiEh1P0kxx+x1f0WHUerGpnFHNpuPnyEHaMsZ+w//FP4vGTh9HfSgUFtmvUcSudd3D17hLu3hlHfnXWvwpcCyJdB/HY4WF0NVeWLHMvvVHqjPRfTZXnMPaQTA/G8TVI1bGyGYZQCQ5ddWoaohKIARnzoI/koKkuAFQNVd0EPYNuKeCg2EMVsd5ZSPHnSQ/Cc6gQ49B9ldRw4U6ZkDQhTWuoeaoGh5/syPvJDOHl4c7ocG+GodVwbQb96SKsX30W5uc+6teU2bLsPdi/9wqyv/g6hEoGMfYOskVH4H/oh/XnTkHrG6ONjfbTGlcXiQ5lM2fj+sQMvvvNr2NzdQ4eHfQYY4yxWnLyQ5/BqWMH0dlIhQG2q1Rzu7WMjatTS5iduILcyixU30DVLt7YhtMnjqKzvbU8Z2u8qxdQ/Kcvo/hrt8tzGNtZXsCG1laAprr1gA6paXClql1KC9/nQrIquQh40FRtDr/zUAFn2QBWzFLTkjpm/WIQ5l9+DvqJp0s1YLZCNd9Zov37t7+L7N+YgV6o7av0bJupzcEEjBda/CZRxpkDQCBVXlDb6uZoEA2ZGO5tw+EnXkAg2kCf7AOqvTHGGGNVJhyorU6E65nfB2PUxFhPEzpaGhEIhiBqoFM24eSo4OeUH1VAXVFXzQcYe0S0Am1vd6PwrkThXgnBuxSAuGxCXqDp/HtPUMsvBOBeDNNEz70cgZij59Z5kkNVdkGyCyLSSjt6BZ/VK0IursKbXKH7fCGYvQ1tRiIsoQ1psH51DPrR0bpJcih1c0RQP0c8HMAzR3uRGnkaerihtIAxxhirEeGA7ncqzKqD6n+gMWpicHAIHf0jMELV3zGbutrtT+XHW6apoUIr69eDMfboaB0utN4kkFCdmmy9ICrtDbhv5uB+3YRub7EWCNsTRJi2qaMuQv+wFfqZExCxRjW3tLAO1FU0pfb5gKHjueP9aEpwtV/GGGO1xa/RQecxVj1UyNcQD6OvuwsdPQPQgtWdDFAJDtfvM6nCVIeu+kigiTFWlcTBALSRGIQ/otJWC6N0HLDXIXOLQDFbnsdYiUha0E93QDv1DEQ0STPqK/6ou8tGQhPobYnh0LHTaG7vKc9ljDHGqp8/OpJRP1dT6oUalao5FcNAby86evdBN9TFlOoMoST9d38UrIr4o15w0xXGqo6gfdpwINriEA0pCKuCZKsaoWZjGVijqVgoz2SMNqtGAf2xBIzPHaL7Q4AaArrO1F+ig6ZQwMDY6DAG9h9DrFkNjcMYY4xVNyfWBy0Q80c6YtVF/SIBy0BLQxxD/X1o6hqAFYxBVOHVL9XHfCnRUWGmw6JPGXch48XyDMZYVaDSmtbowDgWhtYSr6xA6hXhTWzCvZqDXK67Yh97QKLBhvFMAOaX+qEfOwyYtF3VQB9UlarLLV4FJM2JEMZGx9AzdAh6SHWqwhhjjFUrAbNhCFolwwWyR0rFFkFLR3tjFANDQ0i2dMII0O9VZcGhJ0VpmO8Kq3SIkAfRUYDWlS/PYYxVBZ0KbEkd+qEkRKPqn6OCmlduHt7ddXi3C5Dr3CySlWijBoxPdkD/8AGIWBttU/V5gaVuU3u634Qlgn0j/WjsHivPZYwxxqoQxRgtySACVJBm1c3UNfS1xtA7MIBEEwWKlhobs3qCRFWRQw2N61ZYoUOEJPQOF3oXj8rAWHWh4poZBcLdpdtKOiLNZiAXlyA30uU5bC+TtOkIlTR7XPXLcQgiMUxz6zPJodRtokOxDA0j3U144sgANB5uljHGWJVSYUZ7QwghTnRUPVXGUPHFYEcK3UOjiLb0VFUnnp704LgP0BmpXzMlAEkTY6yKmAJaTwAiRccao7Jaf2pI2cL3bThX+Nyy59G5ywtS4f/TURifOQptZF9d9svxdnWd6FCCAQO9vT0488Kfg2Fyb+KMMcaqUyJs+QVoVhvUbzXUHsXwYD/i7SOQepUMPesJP8lRaRcdfkioGRA6Dz/JWDXRElSe+StUTm2lYwzto5WQazegba5Ac+r3qj3boqBE4DN5BP7iKPQjQxAB2rDqXN1HVKpTt0Q0hCNj/Rg5/QKCaugcxhhjrMrEI6Y/ugerDapmR8jU0dkcx0BfF2JtvZB+zY7dLVCoBIfnqZod5RlbpT6QZkJqfFGIsapiWhD9ByEsNdpTBccXz4bz7UV4E1k6MJTnsT1LBE1YXzwI/cBhiFgzHe/rv5bPnoioVODYkgzj9LED6OgfgxWu/wwWY4yx2pKMWJzoqDEqNxALGuhuSWCwvxeR1iF4epDKFLuX7HDhwZFe5aOuqKYrmkk3nOhgrGoYtB9HTSB1EKBjy5ZJFzI3C+98DnKesxx7mkGH924Txs90QD/9BESyq+6brNy3JyIqFW6oKqYDrVEcPHgITZ0DEKqndMYYY2y3aQa8SAci4RAMnRMdtUZ1fq6aHfW1pdA/MIhQQycFHRHIXRqNxU90eA+Q6PCbrlCBSk2MsaogGjToZ0KlkTEqabbiOcDGdXjLWUgeSGnPkoYHdNM29PFGmL9wCKJlCDBDtGT3kvGP0p6KqFQzlgNDnRgcPYhYIwUijDHG2C6SVKjUIi1oHjyJYDhK5ylOdNQileyIhw2MdSbQNTCCcGMHtEqrmW8b6Y+6UnHTFfVehV5ZYYoxtqNEe4AKqU0QQUsVZMpzP4CUkHYe3vg43EyGHnKNjj2r1YX+4RCsnx+CfuIwYKmaHHsjyaHsuYgqbBk4MtqD0YEu7pyUMcbYrhKhBiT7T+JTT40hEQlUMmogqzLqYko0qONgTwrdPYMIJtohd6F6sKAyjarNUXHZRm18QtVx5tEZGKsKtCuKUBhaoocOMGq/3Gqiw4HMbKD4BznIBQHh8YllT6Kf3XpCQ+BLndBPHoOwVD+Ve2tb2HOJDnUeb04Ecez4CRx5/PnyXMYYY+zR621N4PPP7kNfSxQG989RF+IhA2M9KfQOjsBqGoCtGkg/QirJ4bqqVkeFmQ6/jw56r7XWdIXiOr8iFJflWJ3R+lzozwnoB6mAWkltP68IbC7CvVyAlpZ+8pPtPSJJ287J49CPPQcR6lBzSgv2kD0ZVakqpm0NURzeN4KRo0/THD47MsYYe3SKkV4MnvwYPvz8R9DZGIGhCz4T1QlVuzweNDDckcDIYA9CbcMoGpFH10Gpq8N11RCzfg32CtD782tz1FiNDvqM/ufkwhyrMyISgtbcRAcUmrZ8+KAdwc0B2Sl4xXXAc8vz2Z5BpXvRa8D8KyMwPn4EItlZPrbvPXsy0aGozknbmpM4cvgAmvuPQjcr6MmYMcYYe0BOrBfD+w7hxOF96O5o889HrL6UOig10NuaxEBvN8KN3XC1EBVBdv63doWAq2p1VN52pRQM1+KQg5zkYHVGhl2gV4M2HIOwYjRni5kO2u/lZgHuxTV4Mw6kzTvHnkKHb5ESML/YBPOzByAGugBj75Zx93R0FQoY6O9qxvETJxFtH6UDCY/EwhhjbGcNj+7DmcNDGOxIwjI5yVGvVLJDDRk82N6Agd4eRONJaIZFUegO1+wQnp/k8DyaKkl21GrTFcbqkAh70PpMaENxKqiqjo23SPXPsZmFe3EdmKVjTXGHjzeseuge0ObB/OkQTUegjQ1CRFSSbO/a0xGW33FYyMLxsU6MHDqFcFMP5B7OejHGGNsZanQVOsmgp28Qzx4bxEhXCpEgj25R70xdoDFmYbS7AQP9nYg0tEJYkVJSYYeIcpJDJTsqupZLMZGw6H3R25MWV3dnbDcJS4fWkIBQTVe0CgZPcBzI1Q3IW8vQ0vQ6VPZle4BJP3SnGmHFgvkr+6AfPgYRbaQNYG82Wblvz19KUskOFWx++GgXeocPwlDjVDPGGGPbRTMgws2IDzyGT//0l9HX1YYgBbFsb1A1O1KRAPaPjaJz8ABCDR0UlKqLKjtzpdVzNbiuB8/zKh55RSRdaL15yFR+p94eY2wLRNiCSDQDIVUu2frOKPNFeNMbcK+sAQ5nOfaMBgf6hzQE/3IvtP2fAIIVdmBbp/gbKIuFDHzoaB/297WU5zDGGGMPz6NAtWXoFL7w7AG0JoN+x6Nsb1GtVSKWjn3dKfT2DSCU6oQUO9NExBQFmPYahJ0tz9kqAa3RhTGch9Fg02Nu28/YbtFPFKEfD1KBtbk8Z2tkOgM5vgzvUkB12FOey+qd3hOF+fhBaIefh7DinOQo42/hbZpTURw/eRoHjj9ensMYY4w9nNHeZnzyiRF0N0X8WoRs74oGdAx1pDAwOIRQ+zCkvv3Nl4T0ACcP6RYhK63SoToiNamAZKoe7fb2tqq+OU71sN2i9TdA62mi8moFzVaU3Dy81Su88e4hYsiC/tkRGB87DRHpKs9lCic63sY0NHS1NeHo0WMYO/ZkeS5jjDFWOS/Rj32nPozHHzuFnuYYAtzx6J6nmrHEwyb625MYGehBpG0YrhmE3NakgvQTHKXOSMuztsrvjNSCkNy0Sv0inJZku0F2poG+ViDVQY8q2ArdPOTcCuTVpfIMVu+0QcD6ah/Mzx6G1tlPJ5lAeQlTOOp6BzUSS09HC44ePYru4SPQVQ/pjDHG2FYJDXqyF6P7D+P4saPo7e7i0VXYjxhqNJawWRp6tq8PsZY+iEAEchurGt9PclRWoYMKVKrjOtWkphaHmGWsTuhHHWgDTVQooakSxVW4Eyuwz/L5pu7RYVr0SRg/3Q7z04egD/cDlhqdh9Ozb8d7wrtQnZP2dzbh+Jkn0dQ5BMMKlZcwxhhj70O3YCa6MHTgJB4/Moz+tgTX5GA/QdXsSIRNvxnL0MAgYs1d0IPbNxqLGlbW74y0kvrrQkCqRIduQnKig+2id261lVZMqnXGSBJ6exOEWcGwsqD9PTcLb2YR7iRf1a9rloTWI2F+IQnzS0chhoeAQLy8kL0dR1/vIRwwcXCgBQdOPYtUWx+d93nYWcYYY+9NUAExmGhD1/4n8MLjYxhoT/DoKuw9+c1YQibGuhowMDCGeGMnNHVFbhuSHX6ig6bKanQQYfhDIXt8VZDtondufXtma1QfNEB7X0MfFUSaqZRWQR8+qk+etVma5gHVTw+rT6aE1i1hfCIE61eOQd9/BCKcogV8zH43nOh4D6q5bMgy8Pj+Noyd+jDibUOlmYwxxtg70fnBTLSj9+Bj+PLzY2hJhHh0FfaBSrGGhoM9MQwOjyDe0getoqu4785V/ZHSVGkfHUJoNFkUHO7MiDC7Ya/VBmA1TKdCbH8eWl8DRDRSnrk10tmEd2sN3s2cqtzB6hGdL7QOF+ZPBWH99cO0rXwYCKZoPhfn3wt/Mx8gaOo4M9KIA0dOIdpxsDyXMcYY+7FY6yAOH38Mz58YRNgyOC/OKqJrGvpaYxgd7kVTRz+E/nDJDlW4V/10VDbqCm20qumKphp/109NpJ3YFd/rW+WkyqOhftO6/K4NAe2QBW04BRFTNckr2HqLq/AuFSEvm9AdPgHVI62/CPMLERhfOQKt80N04lBNlPi3fj+c6PgAKlhVPaQfGW7HsYMjiDd1lpcwxhhjQEPPAZw4eRpnDg2gORniJAermNpkwpaOruYEhof60No3CqFXWNB5G7/pin9berxlfmekBoRWHxvxwxSG3++57/XtvNt8Tn5sP/Wd1scW+mOSPpBn0edqS1HBowmopMm8dIH1ZcjlNSBjl2eyeqL15WF+IQTjC/uhjZ0CAtxcZSs40bEFGkWtKng9ONKHw0ePIdbY4VfvZIwxtpcJtPaO4cTxozg8SoXTVASmzucG9mBUrBEJmOhoTmB0qAcdfSOwInGIB+gYVCU6XLfSGh1ExTaaSQXJ2qvR8W6f9GGKAR/03K1+s9tdFKmnxEk9fZaHJUwPotWGcSYMrSHu74dbJh24V9PwrhUhV8vzWH3Q6TjelYHx00EYnzkI7eAJiFgHbTD1U+tuJ3FEtkWqrXVrUxKHD4xh/6GjCCUaoekVdBLEGNtTKi5gsJpimBbaugdx+NhJHBrpRXOSgtM6uQrOdo+qDaRqdnQ2xTE8Moi2zl6EwjHatioLatUFXrc8xGxFfpToqL3w8FHvfbu1t2/l79bK2Wc7v8OaP+PSLq6nBPQDKYi4GoFpq2UM+uROHt7EOtw7BcjN3doy2bazPKAzB+OTAsbn90E7fJK2jT46RlvlFdgH4URHBVSyo6UhgdPHD2Nw9BAi8QZOdjDG3pXg9gt1ywoE0U4F0JOPP4ujY/1IRLm5CttehqGhszGKocEBtHX0IBSJQWjalgtzKs/qPUBnpH5YKPSqrrW6W7taLRWkd+o7qubvoNYPwWr/FsEwEO2hA0BUzSgv2YLiBuTmHN2myzNYzaMNWqqKPacNBH5+DPr+pyCinOSoFCc6KqSSHc2pCD723BMYHDuIcLyBm7EwxtgeoRsG2rv68MzzH8PJA32IRwP+MKGMbSe1RRm6hs7mOPYd2IfO3n6YoRhcqIsrH7y9qf451MgrqkPSiqh4xk90qL9Rfdu1eke7Vdiuvm/j0dvSd2CoArsJEbb+7BSieQZXt39PIQ1aXwQi3k8nmkr655DwNhaB+QUgkyvPZDVNNVcJ0d7WmYD57Gnohz8Hkeij+arzUVYJLqE/ANWONhEJ4KnHTmN4/3EEEy3lJYwxxupZ99BhnHn2YxjubvET31z4YTtJxRsNsQBGhkcweOA0Qs1DcLbQ077nunA9mqgQVFFiQLX71k36w7tbIH2v91zNNQpYmeNB5m3IbPHPTF6O5jlueaVHp1a2Ja3dg/ULNhVoG2k/rKC2uNrHb03D+aEJb7KCBAmrWrI9A/0jAqFfGoP1c89AxNpoA6mfIb8fJU50PCB1taMpGcbJo/ux7+ARWHFOdjDGWD3bf+xxPP744xjoSPlNCxh7FFSyIx4JoL+zEaPDfYi1DcKj8O39ugFy6TmOFA/QR4eA1uzBeHoNboAKrLuUyXu3P8tJjtpy//e6/1vuVlL4vf7ubr2f9xSIQLTvL9XmqKSmuEp0bNwFsjm145dnslolBtKwvmAh+CujMD97EiLRSicB7ibhQXGk9hBUtdL2piSOHRrDsWMnEGloLy9hjDFWFyjA0BsG8djTH8Fjp06gv6sZkQBXv2aPlqkLJCMWBjtSODLaj1TXMLRAjAqT7xHGSQfSs2lSjVgqoApYCbo5kIE0HJpRPemFvVSE2+1v/f3+/lbf2/3fq3q2oCpmSSrQhiFSB+icU+mVe/qGi2sA7e+stnmmgHaoDcazj0E/9RhEe8cDbA/s7TjR8ZAsU0NXayOOHtqH/QePIpJq5Q5KGWOsDuhmAImWHhw+ehwnTp5ET2crwgGj3H8BY4+WSnYkwhb62pIYGR5Gc3s3AuHou26PupOHbmcAt9LCD4WFlg6RVHe9Hc0ucAH4x975Xez2Eeb9/v5uvbed/rvvfP1HuX1qHQL66RAQa6c38gBFM79vnd3eatgDM+lY21GAdjIG8+OHoR87RcfgAe6TYxtwomMbmIaGtqYkTh47hNEDxxCJ89CzjFWTnRzqlYeRrU9mIISGth7sP3wCz54YRXMy4vfJwdhuUmUZy9Qx1J7E0GA/Wto6EYgkId8REOtuHpqTBdxiec4WUYFJqCuIj+AqIu9NP8bfxQfb6TPtbiabtJ4g9MdTQDD0AH+YnhBophfhQnFNsjyILgf6C/Tz/8IwjE8epu2hk5Mc24QTHdtEJTvaG2P48FOn0T9yoDz0LFdvZqwa7OQVeL66X38MK4imjj4cPn4aT53cj8ZEkJMcrGqoLVHVJu1pa8DQ8DCaekahRVv85MTbC2uuJ/2pohKiujKskhyCq0uz3bVnjrgW7aCJGESyi+KJrY2q9GdQDCIaBuk1wqXXYrXDlNC6HBgvaAj+8hCsL5+hx12oaNQd9r440bGNNE0gGbXw8eefxKGjpxBLNpeXMMYYqxXtw8fxxIc+hqeOjVDsaO6dgJvVlICpobs1hcNj/Rge2QcZ61EDXvyok1KP7rieV+GVcFUFXodQo65wmYntEnXMrbbNb6fej76vAOND9JnH4vTPAxTLhIA21gn9Y3Q7qPrVYbVC687B+LwG668dhnbsK0Csm2Za5aVsO3CiYwdEgxZOHDuIfWdeQKTrWHkuY4yxajd68sN48sxJjHQmYRhcK49VN41KhKmwieHuBhzYP4R4xzB0q1TlWdXmcFxVPKugiFZuuuJPXKujYpwb2h7V+D3uWMI7GKYCbhNEKEUPHuCvqBod4TYYB4cgBpNAhLfCWqANFGH+TALmz56E1vM8hEW/nRrem20rTnTsAFWzozERxdHRLhw/dhiJ7sPlJYwxxqqRbpg49sRHcOrYQfR1NJQ6HS0vY6yaqWZVquaRGvZ438gwkq09MAJhqAFX/KYrFaPQ0L+qqPYA3gsqwd8Wq4SMFiGGBRV6oxBmrDy3UrTVmRFoh4dgfiYB7YwNT+NkRzXT+gswPp+C8akT0EYegwi1cZJjh3CiY4eowKMtGcKR4U6cOHEcrYNHKZDm6kiMMVZNDCuEpvY+nH78KZw6cQx9HY2I+COrlFdgrAaYuoakGpGlvQEjQ4No61QjssTgPUjRWwXcfkd4qrDEBSZWG2pxSxVRD9pAEFpvgk5GkfLcByAMaO29MD50lKYBiDYTMuT6ORBWRVT3R4MejK+0wfzpE9AOnoCIqOYqXHtup+h/l5Tvs22manaEgwYakzGIcCM2N9Mo5NLwKh7ujbEHwx1lMvbe9FASTZ2DOHToMM6cOo7mVNgvMPJuw2qRRhtuwNAQj4ZhWAHoVhiRSBipWLCyc4G9ATk7jsJ/XoMoCAjJOwSrfu+2larkx3ttve+37JFJShgfboNxZpQKvF004yHekR6CiKUA2u+Fm4cMZGm/lxBBmx7Tcof3410VoGN0jwbjZ5Kwfu4U9H3HIaJtNJNH6dxJnOjYYSq4CJg6WimAlpF2bG6sIp/dhOdyh0GM7VVqSFpOQu0uMxhFQ98hHDh6GqcP9iERsfg3YXVBVxdZwiE/yREOBhCiGKSSTVs6aXhzd1H4jVVoBYpjduBSeVUUMrdBvXyOevV+v001/G4ybsJ4tgf6sSGIQFN57kPQg9A6kvR6MegdVM6gl9Tai/SHNPrAGoTpQebVZ+et9pGy6BvvNWF+sgHWf38Ceu8pINBAPwQ3V9lpggLuHTiFsXdTdDxcnFjEGy/9KaZvX4anGtAyto1UQY13acbenxr6u/vgMzh57DDGuhsQCnCwweqPfyZ4gKSqzM3BPfttbHzqLPR1CtA9LhS9UzUlODjZUrtEn4XA/3wY5s+fgYj0luduA+lAFjeB3Azk4hTcK4uQk9NwLywg/xs6dFsDVC2Pdw4//fb7bHuoHNOABf3zrQj+0nFogydp3v0+kNhO40THI6S+6YLtYHJuBW++8Touv/VyeQljjLFHQRX6nvjo53FwdBDNqahf444rcjD2YzK/CPf8D7Dxidehr7sQfE2GPSB1aOVCxnsTfWYp0fFzZyCifeW520SqsaYdwLEhiyrxkQfSG/BmF4CVi7B/ex3exRzkWpZWy8PN0uqLQei8v28rbX8Y5s8Pw/zZY9A6+gErSHM56HhUONGxC/JFF/fmlnD+/HmcffX75bmMMcZ2imsmYDUN4emjfTi0bxgNcQo+DO6Pm7GfUFiBe/EVpD/2fYg1KvVwwadu1UsiQn2G+5+lloqQolsg8LdGYH71cYjEPjWntGDb0TejinueA+kUgOI65GQG3sIC5PoUkL0Hb24d9jfpnJhLw52gdRd1iDzXdnwguoRos6H1JWD+uf0wPnkE2kAvYITKK7BHhRMduyRvu5iZX8ZbZ8/j8vg87NU7gJMvL2WMMbZdzGgTGjtHMTS6D6fG2pGMWn4/Boyxd1Fcg3vpLWQ++l+BNadqEh21VojdLfw91ZAOB4G/0QZLJTqaHsMjHX1D1faw05DFVT+5KddX4V7OAdlFOJezkHdo2eoq5HIa7lULYp3eG5cYP5hKcjS6ML8Ugn7qEPTHj0Lr7aFAJFxegT1KnOjYRarPjoW1HN64Oo2JGxewPncbTm6zvJQxttO4T5P6l2hqR2f/fgyNjGK4uwmpKA/zzdj7sjepYHMRmee+DqzZpXb8jFW5WkzweAkH1lfCCPzCMehHPgwEUuUljxJ9c9IF3AKkkymPupSBt7gKuTEPb24J7htF4PY6vGse5KYN6dcM8WhdAVHgmpE/YtA22KnB+GQE1p8/BG3sEES8A2pEHLY7ONGxy9S3ny04eO36Aq6cewVLU9dh5+lAwxjbMZzg2BtiyQbsO/YEDh/ch66mOAydr3My9oGosONev47sM78DyYmOmqN+LT7S1QbVz692QiLw1V5YX3oGovkA/XhV0FxExUeqjw+vWOrUdGMO3q0bsP8wB296FTKvkiCq6YuEmKX369n+aC7IaXtyGFupanFE6LdsN6F/qAnW3xyD3vtMqRaH4ETQbuJER5Xw6Gd47eoM3nrjNSyMX4DjUHDBGGOsMkJA0wyYpoHTT7+AY4fG0NwQ48Cfsa1yqTBz4zYyT/0GJzpY3VHngmraomVHHsbHgwj8wiEYp38KsJJVWjiWkMV1IDsNpCcgZ+/BPbcJ51wRyC3AueNB3jYhlnRIh77h4t4p4HtNDoyjAtYLHdA/fgr6gScAikPY7uNERxXJFR1M3FvAW2+dw7VzL5XnsmqgdpNKh+hjjD16ejCORPchPPvYEQx2NCAWCXB/HIxVwivCuzWJzBO/Drla4EQHUd/AXjmK1PtnrfTzbXX9B/7eNIovWz2YHwvB+l+PQOv5KGDG6cWqM9lRqumhRnPJQebWILMq+TEFb3IB3k2abs3Au7wK54/by8+pf8ZXN2F9cR/0408CjWMQVqS8hO02TnRUEfVL5Is2llY2cPP2OL77J7/P1esZqzOcNNs58YY2DO47ghNHDqC5IY6gpXOSg7FKSRfe+BwyZ/415GquKhId6h3wnvze+PvZXQ/9/RsSWhugPx2A+dUx6PtPQDR3AgHV9EGnqQp/3fvD16pJ9e9RKKi2+JDpDcilBbg3puH8l2W4N3PwNrKlARfydGxZNlV/nbVPfYikC+uLOowvPgH90CGIRHupPw5urlI1ONFRhRxXYm0jgwsXL+Lc1TtYX7hLx5B0eSljjLF3aukewej+Q9g31IPO1gZOcDD2oCgs9KYXkPvp/wvuRXqc2/19abcL8rv999n2+jO/p7pTDSUhQ0IkPegHo9Ceaod+tA/6vhaIrqhfw0OYMUAL0KT68KjGrZG+RFWklC6knQWyq/Cu5eDNrcBbn6HHM5Cza3B+ICBUX4R2Gu6kCblsUWG0/BI1QiQdaPsktBNtsL68D9qB4xDxVvptHuGoOWxLONFRpVSfHem8g7cu38HtG5cxP3Ub2c3V8lLGGGP+Va5QE7o7WrHvwGEMD/WjJRHkJAdjD0muLqP4L/4xir+5CXmTgvcctzevNtVSPleq6b1UQgQMyIJTflQ9xKCAGE5APxKHPhKFSKRgnAwAkSYg2AgEGiCMKK1YBR2XfhAnTd/xMpBfhFxchXs2S8eTZUjVr8c5G3I8D7mUhTeuAenq/zyiuQj9jAbjpzqhHTsO/cABiHAD98lRpTjRUeXSORvjU3O4dvUK7t6+hvWVxfISxhjbuzTDQiTVjqbuYRw/NIqBjkbEwhY4x8HYNiim4d76QxR+4xK8bxTgXROQmxQ0lhezh/fO5IC6v5Xvd6vr7YZ3fib24DzLhWiS0JtNiFQAxqdyQLwFItIBEe+CaG+G3hkBrDhENAAYamxT1cxFNZuowi3E79ujAGmnAXudjjEr8MbXIKcX4d1dhv2yDeEPa5uHXKStKO9Buqp2CH0aZ/ebgkh6C1qLgPGUBvML7dCfPw2k9pcTTtxUpVpxoqMGqJ9ofi2Pcxcu462Xv4Ncng4C/qgs/NMxxvYe3TCRaO7G0MmP4Kn9rUhELK7Fwdi2ovhCtbuffQX2755H8bcW4Jx1oBVcKqRwUP8w9kIygBMe20xIuJYq8Qv6X4cW1aGfDML8dCNEwz7ox5og4ikgFIEIqqSHReuqxAftq1VbCKctRBVBVcemdg4yvQC5fB7u9+fh/CAPbyZD89JwF+i4s0Sfx28SQ09TFXDcR3i+pz8lAh7cuAnrU2FYXxqD/thJiFhvFX+37D5OdNQI1ZRldbOAS7dn8eJLryC3cIP2ebXHM8bY3tLWO4qTT38URwebETB0vwULY2wHeEXItRtwvnEW9m9eg3dxDd44jyjwIFSwvdcOVXvxMz8S6ktVk0rwGwLmV4oQnd3QDzRCP9gA0dYGBFsgrAQtr5EmLn5xVJb698jMQm5OwJucgvsGHXPeykNml+FO0vHotgmsPLq+METQg34sDe1UP8wvn4J25ABEqJkWcJKjFnCio4Y4nkQmW8TU/CpevHAH89dfRjG9XF7KGGP1LdAyhqHhERwe7UZ/RzNCAYOTHIztKAoRVc2OlVl4Ny7B/f45FH+NCh4zVHCqvq4NGNs1u5bUoT8qkvTXTRNapwetT4fojVCB3IRxwqJlfUCUplAHYCWpfF7lHWbeH83FH8klC7m5CWxsQubm/CYu3k3V5GUR7hU6Dn0vVH7SDqHvVZwRCP1iC7QDz0B0D0JEEvSFc38ctYITHTVG1ewoFD3cW0rjxq1x3Lj4OpbnJstLGWOsDgmBgQOnMTq6Dz2drWhMhBEO1MAVKsbqhWpbn1Xt6SfhvHgZ9r+g2zvrgOq3o8j7Iqt/u5bIqICqfYAw3YlokKrSQZuAsGLQ+ywYh0yIoUZoyWGIpnaIlBrNhVZWiQ+/xofKmFTZJ7yf9PBswM1BZvKQmzStr8ObW4a8sQxk7sD+AwfeVBFwckDBhbtiQnuI0q2M2BAtBowzLTD//ACMk/shkp30fUXK3xWrFZzoqFGuJ7GwlsP1Gzdx5cKbmJkcLy9hjLE6YYRgxVvR192OY8eOoa+9CZEwBTBcjYOxR0+Fi6qwsT4D5/cvwnntKtwX1+DdoPkF3icfJfVtUxGw6gveO0l9di7AvDdPlfT91hUCerMNrdeBaA9BJNqhjcSgj6aAphZonXGI5jAV4mMQZpSec38I22psmkGfSR2HvPIQtvlVIDcH94cZuPcW6f485Mwm7NfoUxeztE4e3jQ9bUOnAu/W9haRcKGdkdAf74Dx2FHoT+2DiLTRAvV98HGu1nCio8atpou4duMmLp57C8trG8iu0k6uMqCMVTl16BFcYGXvwQpFEW/pQXv/fhzbN4C+ligsk9vEMrb7JGT2HrzLF+H8wQSc7y5ATmxQgaLKq8TXKBWk1/KZstbff90xJbTuArTBMGRbA/T9YehDUSrMNwNJejwUgQgnaD3Vv0e5xke1/4JOBsgvQRaoDHRvDe6rGXi5FcjcMpzXi5BTBT/xgUwB7ngIwnuXz0OzZECD8aEgrJ9pgv7sfmhdh4FAU3kFVos40VEHckUX9xY3cP7aHUxeegkbq0tw/FFZGGOs9oQiMbT3jmBk/yHsG+hGKqaGjeVQmbGqQaGjtNcg70zBfes83O9egv17aghat1S7g6+3sAewXUmR7Xgd9fyHqTVTCwkeL+BBa3Wgt2hAOAbRHoTxGR1aYxsQ74HW3AbRlAQMNZqLWarp4Q9hqz5ZNX46+sXUQA3OJmRxAyguw7u6Cm96HjJzD97UEgpfi0JbsSE36BeyaX110c2iqUHA621C8K8OwXxiDKKlp9SRK6tpnOioE+pXLDoubs+s47/+wW9iaWEWnt+2jX9exliNoABKDRN77MmP4sTxo+hoCPOwsYxVMz/4WIV76xKK/+n78P5kDfYN2mfTAhonO1gNUlHzXjzrqM/tqkqTAYe+AAN6QsJ6RsD4TBNE8xHoB9qAaGO5iUtAjfPun7NLqvUbo0+ljlHSpQ+Xh8wtQM5cgf2NCTjfLsC9l6H5WRidNswvWjA++rMQLcOApTo64dijHnCio46oX9JxPdybX8FrF27g1rWLyC1PlZcyxlj1EmYI4cFn8eyRLoz2NCMRDcPQOdBgrOpJD7KQgVy6C3n3eyj+mxk43yxCTvP+WykVkPO3xnaLXyAUpa1QdUkhgnQ3rENEDBifz0A09wCRTuj7ktCPxGlZM4SVAvRIqYlL1da8pM/0o4SHDZml49P6Ck13gdwsfQYTovMgRKqfPkugij8HqxQnOupQ0fEwt7yB8al53Lh+DZNXXy8vYYyx6hNNNGLw0BmMjo2itzmGaMjkmhyM1RJVg9S/YjoD7+wNON+7Avu7M3DOutDWqODAqsr9wJ+PsmxLdAmtzQECIbofhBgwoO0PQKQSMJ4S0PpaIBKd/hC2IpCC36FpVaM9QI3k4mT945af1THjpSQH7xV1hRMddUrV7FjP2pidX8L4jcu4euM2Mqvz8Fwe+J4xVh2CqS50dndjtK8DXX2DaE1FYBk6X0xhrFZ5DmRmGXJmEs6Fq3C+NQHnD3PwNmxoOSpMvFsngIyx2hKTEEnan0MGxKgN0RyHCCWhDYSgH4hD6+yCCHdCNEZpfgAwVG0P1dRF7f98DGCPDic66pztelhdz+Dc5esYH7+DxenbKGQ3y0sZY2x3pFp70Tt6BPvHhjDQnkCAExyM1Q+vAJmegXfpKopfuwH36jTkGwJyhZa5pVUYYzVOSHg67dAanb/pP623AG2/Dr2zHYj2QD8ShdbZUEqENIYh4uHSSC56kJ5jqBcovQ5jO4QTHXuA+oXztovLk+u48taLmJm6g2wmDa+YKa/BGGM7T9MNBMNxRKNhjB5/BofH+tGWCnGow1i9stfhLVyE9/p5FH+d7l9ah5x1IdOq10O2XVQgz8dRVlVoF9dP0k1/A7TBJLSxGLSBBESiGaIzDhGIA2aUVgrRxlvN/XuwWsaJjj3E8ySmV3I4f3MW169eQvreBdjFQnkpY4ztHF03EEs2oe/AaRw5MIqOpihClg7uioOxekYhpmoLn5uDe/Ym3JdegfNHy3Beo4KNTcu4dse2etiEx3YmTNTrcAGDKSLmQeug214TWm8Ixk87EKlOiPgQ3fbS8ibAKNfy0DVa8f5WyAECezic6NhjVLKjYLuYX03j0pVbeOU7v1dewtjOun+oEZy135N6BsbwxIdewEBHCgHLgEbbAW8KjO0FdOxXx3/bhtyYhvvDc7B/+zKc76/DntZg8DC0e46KBvjwv4eoH1uj312ncohJD6K002s6jAYB4+kijOciEA1HIJpGofengHCUlqvEh6rpwbW/2IPjRMcepH5w2/GwvpnFrTtTOHv5JhbvXoWd4747GGPbK9V3HGMjg9jX14r2tmYETe6Lg7E9yy1Cri1DTt2Ee+EC8v95BvJWBpiiAo3qrJTtKk5AbC/+Pn+SVF9I+UsRhoRIeBBJHQhEgKYgzI+GIVpaoY8moY0kgHATYCVoXTWErRr6lY8TbOs40bGHqdod6byDyZlFTN67h5vjU1icmwKyS+U1GGOscsIIItA8jJHeFvT1D6KnvRmN8QBMgwMUxvY86QDFDcjVe3DOTsC9eA3276zDu+hAZMvrMMb2FpX8CEpoPTpEOAxtyKApCNGYgH5aQOtKAbEOWqcNCDSUEh+c9GAfgBMdzK/dsZIuYnx60R+ZZXbyBtZmJ8pLGWNs6yKxJLoG9qFjYD+GuprRnAwhaGl+UxXGGCuh0NOzIQsrkLPjsL81CfeV25DnVuBeo8JLno8XjO1lIuFCxOk4EDegHS1CtIUpwGiG3h+DPpSCaG4Hwu0QyRhEOAboPIoL+0mc6GA/ooainVvJ4cqtO7h14VUsrmXgZikIce3yGowx9u6sUBTxeAI9fYM4cuIMelspGNE1DjsYY+9POpDpeXgTb8L95nXYX0vDu1uAt0AFHZePIIztZaqpi6dTUVVV3hAazLE09CMS2lArtP5haMf66HY/RCjuL2fs7TjRwX5CtuDgznwa3z9/F+vjryK3sQzHLvpXXxhj7EeEgKYHEAxaaO0Zxf6DhzA20IVU1CqvwBhjW+SoBMcduC9fhvPSBArfWIO27FBQQiUdhxMejLESqfr1GAWsZ2IwPjEM/cRzEPEWikn08hqMlXCig72rUv8dNm5Ob+K1SxOYuX0eco2bszDGfkwYAYS7juLJU0cw2tOEhliQ++FgjD04T/XfsQlvbRLud9+A80eX4H7Pg3cvUF5hb1KB+m6keu4XEDjNxKqJ8WwA1l9vh/7EcYjEsN9ZKQUk5aWM/RgnOth78mjTKBQ9pHMF3JlZwsVLlzB+4aXyUsbYXpZqbsfxJz6CoZ5WpOIRBC0DusZDxjLGHgaFpNIDXBtycwPe9A04X6PpG1Pwbm5ALvMVW8b2HIorRGcB+vEAjA/3QX/yELThEYho7G0jsXDwwX4SJzrYB1JbSCZvY25xBeN37uLy5DrWJl6HW+Du0Rnba+KtfegfGPSbqHR19yAetvwEB2OMbSvpQdppyDuL8C7fgPvaNTh/ugLvWh5yk445bnk9xlh9CrkQbS70nhCMz8ahHd7vJzi0lg4gECsnOBh7b5zoYFvmuB7WMjbG59K4d+sCpucWsbowjWJ6ubwGY6weCU1DqrUPrS3N6OrpQ19vNzqa4txMhTG281RnpZtLkHfvwn1rCu5rs3Cv3YV3QUIucQ0PxupSANAOmDA+lYSxvxv6Y91A8wBEsJEWcD9gbGs40cEqojYW15VY3MhjYmYFM3dvYm5qAgvLq/CyK6WVGGN1QTcsf7jY1tZW9AwfRF93J5pTUYSDOg8Xyxh7dFSo6uUhKc7wJmbhXjkP53eX4L2agbdM8x0PIs+JV8ZqmdSpYBoS0LoNaMMN0J/pgvnZLmgdvUCgqdxMhWMPtnWc6GAPTPXhoZq03JhcwqvnrmFj6gJy2Sw8m4IO1caWMVaTpBFCMBhEqqEJfYOjOHHsMJoSQRg8XCxjbLepJi3FNXgvXoXzJ9fgnLsHd2kdYlyDVC1qbTpKqTEpGWO1QfUjGqFyRcKEMRKB9VNJGB8+AjF8CCIYVdVKS+sxViFOdLCHpkZoWc0UcW58GRfPvon1metw8pulZAdvXozVDgomNE2D23gQI2P7cXp/J4baYtxEhTFWfaQaenYa3ux5eGfPovB7q7BfdyGmLIh87TZpUVFTLaZpavV9s12kNhgVXjTT3VM6rOPdML88CK33ABBspZmmvxpjD4oTHWxbuJ5EwXaxvJbB3dllXL01iZk7N2CvTZbXYIxVNSMI0bwfJw6OYqCrBe1NMSQjFgyDa3EwxqoRha/SBewM5OYc5NwtOG9eQ/6fLMK76EBzOUHLWDUTcQn96TCMz3VCPzoCrXsAIpUCzBAtVMlKjj7Yw+FEB9s2akNSHZZm8w7WN7OYW1zGrZs3cOWtF0srMMaqUrKpDWNHH8dAbyeaUglEQxYCpsajqTDGqp+qPerZFICk4a2twz03AfcH1+G8NAPnUhFyCdA50t1x6ivmMwZ7P6pFmReQEA0arA8bMB4fgX50FNpAO0QiAQQigKbasfCWxLYHJzrYjlD9d2QLDhYWV3Dr5nVMLWUwP3MP+fUFikdy5bUYY7sp2T6Izs5O9He3oW9gCE3xIHRN476+GGO1SfXfkV+DvDsF98o4nLem4Hx3Dcgsw5umA9u6AWFzTQ/GHiUZcSCaXIhWC1p7A/SnGmGc7oY2PAStsR0ww1Qi5f2SbT9OdLAdVUp4uLgzn8Hk5B0szk5ieXEB62urcHMUfDDGHindMNDS0Yt4LIqugf3o6+tBeyqMoMXDNDLG6oRXhCwsQc5MwfnhDLzVW3DPUdzxfRvyLgW/HmdzGXskAhLaCQHt8TD0oVboXQPQH2sH4j0QZox2Ro492M7hRAd7JNRWpmp4zK9mMHFvAZN3xrExN46l9QwFI5u0gltekzG2E6xQBLF4EqlEFPuPP4XOtmY0xkOc4GCM1S/VpKW4BpmZhHfzNgq/MQP3T9eB+Ty8dYo7PA+iqFEMUl6fMfZwVDsxS0JoJkS7BtETg/m5Jhgf7YLo6IMIdQJmhFbkGhxs53Gigz1Samvza3nkbdydW8M3XrmO/L03YefT8BwH0nPKazLGtoNuWjANA50D+3Dk1JM40NMIy9S5eQpjbA+RFF+4wNpdOG9egP31G7Bf3ITMbkKbMoEsHRBdmvZYRKw+7sOcCh72+ayOqLyFQdtDyoXokdDCzTB+PgrjmcegdQ8DQVV7Q63EWwx7dDjRwXaF2upcz0OuYOPW9BrOjq9g+sabKMxfK6/BGNsOwydfwJEDI+hvSyASDkDXeRQVxtgepWqPFnOQG7Pw5i7AvXkO7h+lUXzVA+4YEBmu4cbYg9DaHYgRE/ozEZifaoVoPQbRNAShEhyqg1G+usJ2ASc62K5SW1+u6GAtY2NxaQWz8/OYnLyHyauvlddgjFXCjDahoWsMg70daEsF0dbWimQs4jdR0TjQYIztdSrw8IqAvQm5MQdv5h7ci9Pw3hqH+9IK3NeoYFYlVIDOR21W7cyvGNBV56L7eqANtkNrawECKUBXw8RyExW2ezjRwaqC50kUHA/pbAGr6+tYmbuH2ZUMblx6C5vrK+W1GGPvJdA8jJ7uTvR3tqC5pQ0NqThiIQNBU4fGw8Qyxtg7UPjrFgFnE3JtA97sDLwbE/BemYTzgzS8SQdylVaz+fjJ2H0y5EBEKa5oDkE/EIV2shvGU10QXS0QyRREOMIJDlY1ONHBqo7qw0MlPhZWs7h59SJmF5awtJ7F8vIy7PWZ8lqMMc2wEGnqQXtTAq29Y+jr7kBnUwThgA6h/uP4nDHGtkAlPQqQ2QXI6dtwX5yFd2kGzlsZyEWaVh148wYFzeXVGdtLdAmttwAEIhCDBrThJPSBLugHO6Ed6YaItgBGgEqVKujgwINVD050sKpmOx6WNwsYn13HnbuTWL93GbmCi810GnZuo3Q1hrE9RFgRhMIxRCMhxGJRtA4ew2hfGzoaaT6PoMIYYw9HjdSSVwmPW3BemYd3bxburVU4r9oQcznIVYPWKa/LWD0LSmgNFHd0BGA8R49THdAPNkLf3w7R1geEOkr9bzBWpTjRwWqC40p/eNqljQLuLWVx/fY4NqavIr+xhGKxCLeYK6/JWB0SAroVRihgItjYj87+UQz1daCjIYxUzIKpaVx7gzHGtpN0gOI6kJ+HNzUF9+XbcL47CfdVHXLRgyyo4WlpPTU6PkfSrA5IiiOEylsIiiliGrRBij0eC8B4thP6qQEg0Q0RbCoNDyvM0pMYq2Kc6GA1RW2tarJdFysbOVyZXMXFS1ewdP0H5TUYqz+aFUJq30fx7JFe9LUlEAtZ0I1ScoPzG4wxtpMo6PAcyGIWcmMGmHkF+X+0CO/CKtyVIrxVDXqej8SstkkNcAMSWrsGLRyB9eUkrM8PQ3QcgYg2qLHq/QQIRx2slnCig9UktdWq4WnztouNzSxmFlZw/d4G5iavYXN+Ak4+XV6TsdoVax1Az+gJjHQl0d3ejFjEgmWURk/hGhyMMfaolK+yqGYtdhbevTnIhetwL92D+9oa5J1VOHcLwGQQKHInjKx2iKQHrZdu+8JAdzOsT6YgKPYQ7V3QGlKAGQI01SyWgw5WezjRwWqe60nkii5W00Wsra5gdWUFiyurWFhaw+LiAoord8trMlbdBAUTzf2H0dLSjOZEGI2NjWhqbkUqaiEcMDi5wRhj1cDNA8U1yJU1eLPLkAszcG/NwbsxB/ubNuRtOp5zPx6siulnstCGG6ANttHUDK2vEUi2QuuNQ4TigKGap3D/G6y2caKD1Q21IavOS1XSYyOdw8r6JlZWVrG+OI3p5QyW791EMbdZWpmxKiHDzYg1tKG7KYKWVAQNHUNoSCWQjAb95IZVbqLCGGOsmqgaHg7g5iALG5AUb3hL83BeXIK8OQ3cW4J7xYVcduHlPYgcFRpdPpizR8vTPWgRCRGgWKJVQD9B9+Nd0E+moA10QLS0QjQkaV4UMMKqrSw9i7dTVh840cHqktqo1abtuB42sjYm5jZw78Y5rC4vYZ0eb6Y3UVyfK63M2KMkdCCYRCgSRSoaRKSlD22d/RjpiKOjKQJTp2BEU4PDMsYYqxnSo7jDATLLkOu3IG/dhfPSBuTdRdiTWWCS1ll3gU0JucEjZLGdITWKgMMe9BRta5oJL27CGNKhtUegDSRgvBCBaBwFEn0QwUQpseH3vcFY/eFEB9szio6H+dUcxuczuDs5hdVbL8PxPNi2U5qKeXgOD1fLtp8wAjCsAAKmCSsUgdk0ipaOLox2p9DbHEE8bEHXOLXBGGN1QXqAk4HMzQBr1+BcXIF7aRNychXyZg7uNTre2xRzLBoQXMuDbRMRkZCNtD31CVjHPIhACqKlGfqZGLShZiDSBxHuBPRg+RmM1TdOdLA9x6MtXjVx2czZ/nC103OLmJ6dx8LkDaQX7/jLPfWPVGPGMfbgNE33a2cEmgbR0j2Mvq4O9LSn0BwPIBYyoKvaG+V1GWOM1SE/6ZGGLK5Crk3DG5+Ed30C7vwt5P95HNqqCeHQmUDFHfdxZM7ey9uDBv8+/aO60qBYQz/jwPhoFPrpPmgH2vykhgi0AFaclgdoVa65wfYWTnSwPUlt9WrTVx2ZqqFqbcdFoVDAyloGt2bW8eatZTiTP6TAhEdvYQ/GCIQwePJjODrUhuZUDKFgAKZpwDQ06GrUFG6ewhhje4NKdoAm14G0i0AxD+RW4d6+Cue7E3C+n4V3Jwfks3A3HOjrfMWdvTsvmYcWU31uBAA9Ai0YRuCvuhCD+4G2QWiNTUAkDGEZftMVv7ksDwvL9ihOdDBG1E4gPek3b8nkbX8El8zaPGaXNjGzksPi7BQ2py+VVmbsXZgNvYg3daG9pQHdTWE0J8N+J6PJSACWyUPCMsYYU/wrLVRidUqdmC5uwptdgVy+Bzl3D86ldeCyA6+wBm/RAWaowLquLtmzPSsoIY4VoAWj0I4A+mgYWnMLEO4GYj3QR4JAJAFhRWihpaqTlp/IQQfb2zjRwdh7UEmPtUyRJrvUienClD+iS7rgILOxhtWNDN2uwssul5/B9gzVmWiiGQ2JOGKxCBJhE7FUK+KpRjQmomiIWYgGTU5sMMYYe38qDFcjt9hrgIopZjYgp9OQ+Xl499bh3VZ9e6xBTm3APRstP4nVO+1QHtpgACLcBCSS0J80ICKN0LrD0NriELEUYKkpWaq5wUkNxn4CJzoY+wBqD1Gjt+RtF9mCi3TeQXp9BcvrGWyuLaO4sUDzbCyu55FZmoJr58vPZPVC6CaMRCeaEyG/hkYg3oxoQyuaUgkk4lGaZyIUMBAwdBg6BxuMMcYegGri4hUgXYoj7A1gbQPe4irk/CK88UW4L1JAUliCe8mBXHJBAQet60I6EiKn+5VFWG2QYRdC5Sc01bTEgEgI6AeKQDAFEWiEdtqAvi8GEWkBIg3Q+sKAFaVV6VZ1JsrJDcY+ECc6GKtQaY+RpZqn9E++6GJxLYOr9zawePNV5NJrKNoeCrbr1wop2jbc3BqtzJ2b1go9lIBlBRGwdARMHcFwFJHekxjrSqKrKYZ4xIJpqOYoam1uksIYY2wnUKDhJz9cSDsLuTENbNyC/bUsvOubQH4dMpeGu1YAxg2A4g5aEbJIz8lqtJw7n6wKAQ8iTL+lRb+HRr+TrkMO2NAbdIhgFDDj0HoCsL5gA8k+IDYIEW0tNUXxm6HQVI43GGNbx4kOxraR2p3WszbmV/OYXclhfp2mxRVkJ34It5DxEyOqL5DSrQfXoZMaX4LZNYICDo0CDo0CCSGE34+GSl7E+s+gub0b7U1xdDaG0ZoKIhZUV08YY4yx3eXX+MgvALkZyI05yKlFON9x4WU2IIsr8OZz8K5TIXoiQCurDlDpSUU6uak+UdnOUrkIQ0IEVWyn+zU2RHceYsSD6AhBBJLQggnoT9Ki/iREsgUItkGEWgFTNUOh5zDGtgUnOhjbZmqPUomM0oguHnIFB9lcHumcXerzYzOLzfVVrK8tY/raG3DtQvmZ7FGLtu9HY1sXGhoakUzG0RSzkAhbiIQDCAVNWIYOXSslQLjWBmOMsepAgYYKNtQw+J4N2DnInOrnYwMoLEMur0JObsK7R/c3xuG+UqQpCLnAnZruNBlxIA7mEPiUAwRbIaL90NqTEN1hiKYoEEhBWAmIQAgwg6XOQ9XIKCpDwsO/MratONHB2A66n/TwvFLiw3FLw9k6jg3HdpDPbCBPt7mCjbV0qRbI5GIWixt5BFcuQLN5eNvtkI+PIZxs9UdD6W+LojEW9BMZqklKIBiEZZowDAOWGvpVjUXPyQ3GGGM1QSU8vPJUTnw4akQXui0UIYubkMtpyAWaVmcgM3ch55fhfCcCeZfikwIVyGFTgcClp0parkFLG/7LsjLTg2zKQadYQTUjkaDvR7MgDAuI6LB+bgOiIQWE24FYG0RTElp7EMKMAqpPDcuECNBzDFXDg26FmlRzFJXY4ECDsZ3CiQ7GHrEf7XAqNqH/3HLyQ/X1Uar1Yfudm7obs8jlcv5wt+mcgwwFI7mCi2zRQWHhBrzcavmFmBKIpmBGm2FFkgiHgogEDcRDJuJhE0asFaFIzO80NBW1EAqYMPVSUsNPZqikRullGGOMsRpXjjT8Wh9eqdNSJw8UN2lag0xvwrtFy5bW4eXXAYfm22l4m1l4ExSZjFMB3C7S82jyO0el26IHd1GDmAvRsvqqeSAabGjtRYiogGcYFBKoRIbpJzP8hEZSh/5EDlpIDd8ahjTo1lTDudIUjkA/Qi9Ct7BioIADwqTviF7HT2j4NTX8P0M40mDsUeJEB2NVSNUAKaqRXoouMnk12ovjj/iibtWoL/nF27Cza34tEZfWU+vaKmFi063jwLELfpMY2yl1iupmFilQUY10a49mhWGEGxAwNRhWAIYZgGWq2heqo1CtlLDQBcKxJAKxJoQiCYTDQUQCBqIhmoIGgpYOw09qcJDBGGNsL1PJDxfSsyHsTcBJQzpZus1AZrOQMza8GddvDuPPowk2Tbk8nLv0XNXvR04lQcqjw3gFCJUIcSn2uBsEFml5oUoSIZqEfnS91BGoah7idwRK7081F9HULU3CgtbuQhtyIRpMSDNIq4b8hAYMNbpJCCJmQT/oAapzUH/UE5XICNN66rFaRzU/4doZjFUbTnQwViPUjno/saGSGmrIW8cp9wNil2qE+FPBRjGfgZ1PI297fo0Qe+UupGrDS69xvxmNqzpDpenHj9Vrqdcv3fdomWpq49IhQgUxovBwNUikFQfMsF+LQg3BqhIPhq6Vp1JzEV1TSQt6TPc1lZig56kRUAKpTkRUnxnBME0RhIIBP5ERsnQELc0fAcUyhJ/0UK/3o5oajDHGGPsAFB34o7vYdOv4tyoRopIZcHOlqZiFXKH5KxIylynVAiknQkRRPc6g+GYYcjwIoVrdqpHmVEeo/uvRpG5V0xr1dyg2kTMmPYdO1CG6rxIj2XfphFMFLVEHIupCLlkQCduvfYEArS90ihEEpN8MhO6rRMb9ZMb9+xQXGJ9ehEhq9NAqJSlUssJPZKhaGVG6pfcbp+c30RRRfWaoBIhKXqj7Jr2uqtlRrp3h3+eEBmO1ghMdjNWJH+/JqkFM6bE/i+7cv+/XFHE8v2ZIvlikWxv5guvX+lA1RtSIMbki3c/TvKKqPULLKSDR8iswFl5Xr/bA7NR+aMlehAM6okGTJt1PXqimJaqZSchStS9MBIOW//h+fxkqYVEKKcr3/cflOaUbxhhjjO0YFUSoKMKPKso3XvkOxRiqxqhKfORV8xianKw/HK6fCHHTfpMZ4dCtlyvVAlmzYf9uqpTcaM9DLlvwJsJ0Zi+/fpmkOdpQBvpgBs4Pm6AdWoP+2Dq0pgCEXxvDhPRrXqjaFaqWBU1+vxgqgVFeJ0STScvVMr/mBf1NP4YoBxS+8u07HzPGahonOhhjjDHGGGOMMVY3qqQRHWOMMcYYY4wxxtjD40QHY4wxxhhjjDHG6gTw/wPuIxBhXxuG8gAAAABJRU5ErkJggg==;sketch=0;imageBorder=none;" parent="BpYFKoxMu2_yIMwH--3D-3" vertex="1">
          <mxGeometry width="1040" height="520" as="geometry" />
        </mxCell>
        <mxCell id="MEzmzRsdvk8B21g8VxNq-3" value="Ops" style="text;html=1;align=center;verticalAlign=middle;whiteSpace=wrap;rounded=0;fillColor=none;fontSize=54;fontStyle=1" parent="BpYFKoxMu2_yIMwH--3D-3" vertex="1">
          <mxGeometry x="720" y="214.5" width="130" height="90" as="geometry" />
        </mxCell>
        <mxCell id="MEzmzRsdvk8B21g8VxNq-2" value="Dev" style="text;html=1;align=center;verticalAlign=middle;whiteSpace=wrap;rounded=0;fillColor=none;fontSize=54;fontStyle=1" parent="BpYFKoxMu2_yIMwH--3D-3" vertex="1">
          <mxGeometry x="188" y="214.5" width="130" height="90" as="geometry" />
        </mxCell>
        <mxCell id="BpYFKoxMu2_yIMwH--3D-4" value="Deploy" style="text;html=1;strokeColor=none;fillColor=none;align=center;verticalAlign=middle;whiteSpace=wrap;rounded=0;sketch=0;fontSize=28;fontColor=#FFFFFF;fontStyle=1" parent="BpYFKoxMu2_yIMwH--3D-3" vertex="1">
          <mxGeometry x="725" y="40" width="120" height="40" as="geometry" />
        </mxCell>
        <mxCell id="BpYFKoxMu2_yIMwH--3D-10" value="Operate" style="text;html=1;strokeColor=none;fillColor=none;align=center;verticalAlign=middle;whiteSpace=wrap;rounded=0;sketch=0;fontSize=28;fontColor=#FFFFFF;direction=west;flipV=1;rotation=90;fontStyle=1" parent="BpYFKoxMu2_yIMwH--3D-3" vertex="1">
          <mxGeometry x="920" y="239.5" width="120" height="40" as="geometry" />
        </mxCell>
        <mxCell id="BpYFKoxMu2_yIMwH--3D-12" value="Monitor" style="text;html=1;strokeColor=none;fillColor=none;align=center;verticalAlign=middle;whiteSpace=wrap;rounded=0;sketch=0;fontSize=28;fontColor=#FFFFFF;fontStyle=1" parent="BpYFKoxMu2_yIMwH--3D-3" vertex="1">
          <mxGeometry x="680" y="430" width="120" height="40" as="geometry" />
        </mxCell>
        <mxCell id="BpYFKoxMu2_yIMwH--3D-13" value="Code" style="text;html=1;strokeColor=none;fillColor=none;align=center;verticalAlign=middle;whiteSpace=wrap;rounded=0;sketch=0;fontSize=28;fontColor=#FFFFFF;fontStyle=1" parent="BpYFKoxMu2_yIMwH--3D-3" vertex="1">
          <mxGeometry x="193" y="40" width="120" height="40" as="geometry" />
        </mxCell>
        <mxCell id="BpYFKoxMu2_yIMwH--3D-14" value="Test" style="text;html=1;strokeColor=none;fillColor=none;align=center;verticalAlign=middle;whiteSpace=wrap;rounded=0;sketch=0;fontSize=28;fontColor=#FFFFFF;fontStyle=1" parent="BpYFKoxMu2_yIMwH--3D-3" vertex="1">
          <mxGeometry x="194" y="430" width="120" height="40" as="geometry" />
        </mxCell>
        <mxCell id="BpYFKoxMu2_yIMwH--3D-15" value="Build" style="text;html=1;strokeColor=none;fillColor=none;align=center;verticalAlign=middle;whiteSpace=wrap;rounded=0;sketch=0;fontSize=28;fontColor=#FFFFFF;fontStyle=1;rotation=-90;" parent="BpYFKoxMu2_yIMwH--3D-3" vertex="1">
          <mxGeometry y="250" width="120" height="40" as="geometry" />
        </mxCell>
        <mxCell id="BpYFKoxMu2_yIMwH--3D-16" value="Plan" style="text;html=1;strokeColor=none;fillColor=none;align=center;verticalAlign=middle;whiteSpace=wrap;rounded=0;sketch=0;fontSize=28;fontColor=#FFFFFF;fontStyle=1;rotation=48;" parent="BpYFKoxMu2_yIMwH--3D-3" vertex="1">
          <mxGeometry x="380" y="150" width="120" height="40" as="geometry" />
        </mxCell>
        <mxCell id="8xYPTwv4_Tn2n8jj1ZG0-2" value="Release" style="text;html=1;strokeColor=none;fillColor=none;align=center;verticalAlign=middle;whiteSpace=wrap;rounded=0;sketch=0;fontSize=28;fontColor=#FFFFFF;fontStyle=1;rotation=310;" parent="BpYFKoxMu2_yIMwH--3D-3" vertex="1">
          <mxGeometry x="490" y="205" width="120" height="40" as="geometry" />
        </mxCell>
      </root>
    </mxGraphModel>
  </diagram>
</mxfile>
